0
SECTION
2
HEADER
9
$INSUNITS
70
4
9
$ACADVER
1
AC1014
9
$HANDSEED
5
FFFF
0
ENDSEC
0
SECTION
2
TABLES
0
TABLE
2
VPORT
5
8
100
AcDbSymbolTable
0
ENDTAB
0
TABLE
2
LTYPE
5
5
100
AcDbSymbolTable
0
LTYPE
5
14
100
AcDbSymbolTableRecord
100
AcDbLinetypeTableRecord
2
BYBLOCK
70
0
0
LTYPE
5
15
100
AcDbSymbolTableRecord
100
AcDbLinetypeTableRecord
2
BYLAYER
70
0
0
ENDTAB
0
TABLE
2
LAYER
5
2
100
AcDbSymbolTable
70
2
0
LAYER
5
50
100
AcDbSymbolTableRecord
100
AcDbLayerTableRecord
2
0
70
0
6
CONTINUOUS
0
ENDTAB
0
TABLE
2
STYLE
5
3
100
AcDbSymbolTable
70
1
0
STYLE
5
11
100
AcDbSymbolTableRecord
100
AcDbTextStyleTableRecord
2
STANDARD
70
0
0
ENDTAB
0
TABLE
2
VIEW
5
6
100
AcDbSymbolTable
70
0
0
ENDTAB
0
TABLE
2
UCS
5
7
100
AcDbSymbolTable
70
0
0
ENDTAB
0
TABLE
2
APPID
5
9
100
AcDbSymbolTable
70
2
0
APPID
5
12
100
AcDbSymbolTableRecord
100
AcDbRegAppTableRecord
2
ACAD
70
0
0
ENDTAB
0
TABLE
2
DIMSTYLE
5
A
100
AcDbSymbolTable
70
1
0
ENDTAB
0
TABLE
2
BLOCK_RECORD
5
1
100
AcDbSymbolTable
70
1
0
BLOCK_RECORD
5
1F
100
AcDbSymbolTableRecord
100
AcDbBlockTableRecord
2
*MODEL_SPACE
0
BLOCK_RECORD
5
1B
100
AcDbSymbolTableRecord
100
AcDbBlockTableRecord
2
*PAPER_SPACE
0
ENDTAB
0
ENDSEC
0
SECTION
2
BLOCKS
0
BLOCK
5
20
100
AcDbEntity
100
AcDbBlockBegin
2
*MODEL_SPACE
0
ENDBLK
5
21
100
AcDbEntity
100
AcDbBlockEnd
0
BLOCK
5
1C
100
AcDbEntity
100
AcDbBlockBegin
2
*PAPER_SPACE
0
ENDBLK
5
1D
100
AcDbEntity
100
AcDbBlockEnd
0
ENDSEC
0
SECTION
2
ENTITIES
0
CIRCLE
5
100
100
AcDbEntity
8
0
100
AcDbCircle
10
0
20
0
30
0
40
35
210
0
220
0
230
1
0
CIRCLE
5
101
100
AcDbEntity
8
0
100
AcDbCircle
10
0
20
0
30
0
40
30
210
0
220
0
230
1
0
LWPOLYLINE
5
102
100
AcDbEntity
8
0
100
AcDbPolyline
90
4
70
1
43
0.0
10
-20
20
-20
10
20
20
-20
10
20
20
20
10
-20
20
20
0
LINE
5
103
100
AcDbEntity
8
0
100
AcDbLine
10
5.9470212459564209
20
-20.026488304138184
30
0
11
-4.5695364475250244
21
-20
31
0
0
SPLINE
5
104
100
AcDbEntity
8
0
100
AcDbSpline
70
0
71
2
72
6
73
3
74
0
42
0.000000001
43
0.0000000001
44
0.0000000001
40
0
40
0
40
0
40
1
40
1
40
1
10
-4.5695364475250244
20
-20
30
0
10
-9.5761597156524658
20
-20
30
0
10
-9.5761597156524658
20
-16.847681999206543
30
0
0
SPLINE
5
105
100
AcDbEntity
8
0
100
AcDbSpline
70
0
71
2
72
6
73
3
74
0
42
0.000000001
43
0.0000000001
44
0.0000000001
40
0
40
0
40
0
40
1
40
1
40
1
10
-9.5761597156524658
20
-16.847681999206543
30
0
10
-9.5761597156524658
20
-13.29801082611084
30
0
10
-3.9867556095123291
20
-13.29801082611084
30
0
0
SPLINE
5
106
100
AcDbEntity
8
0
100
AcDbSpline
70
0
71
2
72
6
73
3
74
0
42
0.000000001
43
0.0000000001
44
0.0000000001
40
0
40
0
40
0
40
1
40
1
40
1
10
-3.9867556095123291
20
-13.29801082611084
30
0
10
-3.456951379776001
20
-13.29801082611084
30
0
10
-2.8211915493011475
20
-13.324503898620605
30
0
0
LINE
5
107
100
AcDbEntity
8
0
100
AcDbLine
10
-2.8211915493011475
20
-13.324503898620605
30
0
11
-2.8211915493011475
21
10.172185897827148
31
0
0
SPLINE
5
108
100
AcDbEntity
8
0
100
AcDbSpline
70
0
71
2
72
6
73
3
74
0
42
0.000000001
43
0.0000000001
44
0.0000000001
40
0
40
0
40
0
40
1
40
1
40
1
10
-2.8211915493011475
20
10.172185897827148
30
0
10
-5.1258265972137451
20
8.5827803611755371
30
0
10
-5.8145678043365479
20
8.5827803611755371
30
0
0
SPLINE
5
109
100
AcDbEntity
8
0
100
AcDbSpline
70
0
71
2
72
6
73
3
74
0
42
0.000000001
43
0.0000000001
44
0.0000000001
40
0
40
0
40
0
40
1
40
1
40
1
10
-5.8145678043365479
20
8.5827803611755371
30
0
10
-7.2980129718780518
20
8.5827803611755371
30
0
10
-8.4105956554412842
20
9.6423840522766113
30
0
0
SPLINE
5
110
100
AcDbEntity
8
0
100
AcDbSpline
70
0
71
2
72
6
73
3
74
0
42
0.000000001
43
0.0000000001
44
0.0000000001
40
0
40
0
40
0
40
1
40
1
40
1
10
-8.4105956554412842
20
9.6423840522766113
30
0
10
-9.4966888427734375
20
10.701985359191895
30
0
10
-9.4966888427734375
20
12.105960845947266
30
0
0
SPLINE
5
111
100
AcDbEntity
8
0
100
AcDbSpline
70
0
71
2
72
6
73
3
74
0
42
0.000000001
43
0.0000000001
44
0.0000000001
40
0
40
0
40
0
40
1
40
1
40
1
10
-9.4966888427734375
20
12.105960845947266
30
0
10
-9.4966888427734375
20
13.562912940979004
30
0
10
-7.7218544483184814
20
15.099337100982666
30
0
0
LINE
5
112
100
AcDbEntity
8
0
100
AcDbLine
10
-7.7218544483184814
20
15.099337100982666
30
0
11
-4.72847580909729
21
17.271523475646973
31
0
0
LINE
5
113
100
AcDbEntity
8
0
100
AcDbLine
10
-4.72847580909729
20
17.271523475646973
30
0
11
-1.4966881275177002
21
19.867548942565918
31
0
0
SPLINE
5
114
100
AcDbEntity
8
0
100
AcDbSpline
70
0
71
2
72
6
73
3
74
0
42
0.000000001
43
0.0000000001
44
0.0000000001
40
0
40
0
40
0
40
1
40
1
40
1
10
-1.4966881275177002
20
19.867548942565918
30
0
10
0.49006819725036621
20
21.298012733459473
30
0
10
2.3443734645843506
20
21.298012733459473
30
0
0
SPLINE
5
115
100
AcDbEntity
8
0
100
AcDbSpline
70
0
71
2
72
6
73
3
74
0
42
0.000000001
43
0.0000000001
44
0.0000000001
40
0
40
0
40
0
40
1
40
1
40
1
10
2.3443734645843506
20
21.298012733459473
30
0
10
4.7284781932830811
20
21.298012733459473
30
0
10
4.7284781932830811
20
18.437085151672363
30
0
0
SPLINE
5
116
100
AcDbEntity
8
0
100
AcDbSpline
70
0
71
2
72
6
73
3
74
0
42
0.000000001
43
0.0000000001
44
0.0000000001
40
0
40
0
40
0
40
1
40
1
40
1
10
4.7284781932830811
20
18.437085151672363
30
0
10
4.7284781932830811
20
15.284767150878906
30
0
10
4.463576078414917
20
9.5629143714904785
30
0
0
SPLINE
5
117
100
AcDbEntity
8
0
100
AcDbSpline
70
0
71
2
72
6
73
3
74
0
42
0.000000001
43
0.0000000001
44
0.0000000001
40
0
40
0
40
0
40
1
40
1
40
1
10
4.463576078414917
20
9.5629143714904785
30
0
10
4.1986763477325439
20
3.8410592079162598
30
0
10
4.1986763477325439
20
-6.781458854675293
30
0
0
LINE
5
118
100
AcDbEntity
8
0
100
AcDbLine
10
4.1986763477325439
20
-6.781458854675293
30
0
11
4.1986763477325439
21
-13.192052841186523
31
0
0
LINE
5
119
100
AcDbEntity
8
0
100
AcDbLine
10
4.1986763477325439
20
-13.192052841186523
30
0
11
5.9470212459564209
21
-13.192052841186523
31
0
0
SPLINE
5
120
100
AcDbEntity
8
0
100
AcDbSpline
70
0
71
2
72
6
73
3
74
0
42
0.000000001
43
0.0000000001
44
0.0000000001
40
0
40
0
40
0
40
1
40
1
40
1
10
5.9470212459564209
20
-13.192052841186523
30
0
10
7.483445405960083
20
-13.192052841186523
30
0
10
8.5165584087371826
20
-14.172186851501465
30
0
0
SPLINE
5
121
100
AcDbEntity
8
0
100
AcDbSpline
70
0
71
2
72
6
73
3
74
0
42
0.000000001
43
0.0000000001
44
0.0000000001
40
0
40
0
40
0
40
1
40
1
40
1
10
8.5165584087371826
20
-14.172186851501465
30
0
10
9.5761597156524658
20
-15.152316093444824
30
0
10
9.5761597156524658
20
-16.609272956848145
30
0
0
SPLINE
5
122
100
AcDbEntity
8
0
100
AcDbSpline
70
0
71
2
72
6
73
3
74
0
42
0.000000001
43
0.0000000001
44
0.0000000001
40
0
40
0
40
0
40
1
40
1
40
1
10
9.5761597156524658
20
-16.609272956848145
30
0
10
9.5761597156524658
20
-18.066225051879883
30
0
10
8.5165584087371826
20
-19.046359062194824
30
0
0
SPLINE
5
123
100
AcDbEntity
8
0
100
AcDbSpline
70
0
71
2
72
6
73
3
74
0
42
0.000000001
43
0.0000000001
44
0.0000000001
40
0
40
0
40
0
40
1
40
1
40
1
10
8.5165584087371826
20
-19.046359062194824
30
0
10
7.483445405960083
20
-20.026488304138184
30
0
10
5.9470212459564209
20
-20.026488304138184
30
0
0
ENDSEC
0
SECTION
2
OBJECTS
0
DICTIONARY
5
C
100
AcDbDictionary
3
ACAD_GROUP
350
D
3
ACAD_MLINESTYLE
350
17
0
DICTIONARY
5
D
100
AcDbDictionary
0
DICTIONARY
5
1A
330
C
100
AcDbDictionary
0
DICTIONARY
5
17
100
AcDbDictionary
0
ENDSEC
0
EOF
