0
SECTION
2
HEADER
9
$INSUNITS
70
4
9
$ACADVER
1
AC1014
9
$HANDSEED
5
FFFF
0
ENDSEC
0
SECTION
2
TABLES
0
TABLE
2
VPORT
5
8
100
AcDbSymbolTable
0
ENDTAB
0
TABLE
2
LTYPE
5
5
100
AcDbSymbolTable
0
LTYPE
5
14
100
AcDbSymbolTableRecord
100
AcDbLinetypeTableRecord
2
BYBLOCK
70
0
0
LTYPE
5
15
100
AcDbSymbolTableRecord
100
AcDbLinetypeTableRecord
2
BYLAYER
70
0
0
ENDTAB
0
TABLE
2
LAYER
5
2
100
AcDbSymbolTable
70
2
0
LAYER
5
50
100
AcDbSymbolTableRecord
100
AcDbLayerTableRecord
2
0
70
0
6
CONTINUOUS
0
ENDTAB
0
TABLE
2
STYLE
5
3
100
AcDbSymbolTable
70
1
0
STYLE
5
11
100
AcDbSymbolTableRecord
100
AcDbTextStyleTableRecord
2
STANDARD
70
0
0
ENDTAB
0
TABLE
2
VIEW
5
6
100
AcDbSymbolTable
70
0
0
ENDTAB
0
TABLE
2
UCS
5
7
100
AcDbSymbolTable
70
0
0
ENDTAB
0
TABLE
2
APPID
5
9
100
AcDbSymbolTable
70
2
0
APPID
5
12
100
AcDbSymbolTableRecord
100
AcDbRegAppTableRecord
2
ACAD
70
0
0
ENDTAB
0
TABLE
2
DIMSTYLE
5
A
100
AcDbSymbolTable
70
1
0
ENDTAB
0
TABLE
2
BLOCK_RECORD
5
1
100
AcDbSymbolTable
70
1
0
BLOCK_RECORD
5
1F
100
AcDbSymbolTableRecord
100
AcDbBlockTableRecord
2
*MODEL_SPACE
0
BLOCK_RECORD
5
1B
100
AcDbSymbolTableRecord
100
AcDbBlockTableRecord
2
*PAPER_SPACE
0
ENDTAB
0
ENDSEC
0
SECTION
2
BLOCKS
0
BLOCK
5
20
100
AcDbEntity
100
AcDbBlockBegin
2
*MODEL_SPACE
0
ENDBLK
5
21
100
AcDbEntity
100
AcDbBlockEnd
0
BLOCK
5
1C
100
AcDbEntity
100
AcDbBlockBegin
2
*PAPER_SPACE
0
ENDBLK
5
1D
100
AcDbEntity
100
AcDbBlockEnd
0
ENDSEC
0
SECTION
2
ENTITIES
0
LWPOLYLINE
5
100
100
AcDbEntity
8
0
100
AcDbPolyline
90
8
70
1
43
0.0
10
-190.57259733134288
20
166.66472206210696
42
0.17167904504671433
10
-190.57259733134285
20
173.33527793789304
42
0.42972157715856141
10
-191.23530918095821
20
173.63045380725401
10
-191.23530918095821
20
173.63045380725401
42
0.39887376112411388
10
-191.51533759820853
20
173.00175014410371
42
-0.17167904504671361
10
-191.51533759820859
20
166.99824985589626
42
0.3988737611240305
10
-191.23530918095827
20
166.36954619274599
10
-191.23530918095827
20
166.36954619274599
42
0.42972157715858089
0
LWPOLYLINE
5
101
100
AcDbEntity
8
0
100
AcDbPolyline
90
8
70
1
43
0.0
10
-191.23530918095821
20
173.63045380725401
42
0.39887376112411388
10
-191.51533759820853
20
173.00175014410371
42
-0.17167904504671361
10
-191.51533759820859
20
166.99824985589626
42
0.3988737611240305
10
-191.23530918095827
20
166.36954619274599
10
-191.23530918095827
20
166.36954619274599
42
0.42972157715858089
10
-190.57259733134288
20
166.66472206210696
42
0.17167904504671433
10
-190.57259733134285
20
173.33527793789304
42
0.42972157715856141
10
-191.23530918095821
20
173.63045380725401
0
LWPOLYLINE
5
102
100
AcDbEntity
8
0
100
AcDbPolyline
90
8
70
1
43
0.0
10
-185.95210591221658
20
164.74102977656995
42
0.1810447816807354
10
-185.95210591221655
20
175.25897022343005
42
0.42435178897923242
10
-186.61171066464536
20
175.54561101967894
10
-186.61171362628556
20
175.54560979292742
42
0.40414749524437454
10
-186.88863494768572
20
174.9083710602348
42
-0.18104477774407843
10
-186.88863494768577
20
165.0916289397652
42
0.40414749524432181
10
-186.61171362628565
20
164.45439020707258
10
-186.61171066464539
20
164.45438898032106
42
0.42435178897926007
0
LWPOLYLINE
5
103
100
AcDbEntity
8
0
100
AcDbPolyline
90
8
70
1
43
0.0
10
-190.57259733134285
20
173.33527793789304
42
0.42972157715856141
10
-191.23530918095821
20
173.63045380725401
10
-191.23530918095821
20
173.63045380725401
42
0.39887376112411388
10
-191.51533759820853
20
173.00175014410371
42
-0.17167904504671361
10
-191.51533759820859
20
166.99824985589626
42
0.3988737611240305
10
-191.23530918095827
20
166.36954619274599
10
-191.23530918095827
20
166.36954619274599
42
0.42972157715858089
10
-190.57259733134288
20
166.66472206210696
42
0.17167904504671433
0
LWPOLYLINE
5
104
100
AcDbEntity
8
0
100
AcDbPolyline
90
8
70
1
43
0.0
10
-191.51533759820859
20
166.99824985589626
42
0.3988737611240305
10
-191.23530918095827
20
166.36954619274599
10
-191.23530918095827
20
166.36954619274599
42
0.42972157715858089
10
-190.57259733134288
20
166.66472206210696
42
0.17167904504671433
10
-190.57259733134285
20
173.33527793789304
42
0.42972157715856141
10
-191.23530918095821
20
173.63045380725401
10
-191.23530918095821
20
173.63045380725401
42
0.39887376112411388
10
-191.51533759820853
20
173.00175014410371
42
-0.17167904504671361
0
LWPOLYLINE
5
105
100
AcDbEntity
8
0
100
AcDbPolyline
90
8
70
1
43
0.0
10
-186.61171066464539
20
164.45438898032106
42
0.42435178897926007
10
-185.95210591221658
20
164.74102977656995
42
0.1810447816807354
10
-185.95210591221655
20
175.25897022343005
42
0.42435178897923242
10
-186.61171066464536
20
175.54561101967894
10
-186.61171362628556
20
175.54560979292742
42
0.40414749524437454
10
-186.88863494768572
20
174.9083710602348
42
-0.18104477774407843
10
-186.88863494768577
20
165.0916289397652
42
0.40414749524432181
10
-186.61171362628565
20
164.45439020707258
0
LWPOLYLINE
5
106
100
AcDbEntity
8
0
100
AcDbPolyline
90
8
70
1
43
0.0
10
-185.95210591221658
20
164.74102977656995
42
0.1810447816807354
10
-185.95210591221655
20
175.25897022343005
42
0.42435178897923242
10
-186.61171066464536
20
175.54561101967894
10
-186.61171362628556
20
175.54560979292742
42
0.40414749524437454
10
-186.88863494768572
20
174.9083710602348
42
-0.18104477774407843
10
-186.88863494768577
20
165.0916289397652
42
0.40414749524432181
10
-186.61171362628565
20
164.45439020707258
10
-186.61171066464539
20
164.45438898032106
42
0.42435178897926007
0
LWPOLYLINE
5
107
100
AcDbEntity
8
0
100
AcDbPolyline
90
8
70
1
43
0.0
10
-194.74102977656997
20
155.95210591221655
42
0.42435178897923242
10
-194.45438898032108
20
156.61171066464536
10
-194.45439020707261
20
156.61171362628559
42
0.40414749524434818
10
-195.09162893976523
20
156.88863494768572
42
-0.18104477774407843
10
-204.90837106023486
20
156.88863494768574
42
0.40414749524434462
10
-205.54560979292745
20
156.61171362628562
10
-205.54561101967897
20
156.61171066464539
42
0.42435178897925641
10
-205.25897022343008
20
155.95210591221658
42
0.1810447816807354
0
LWPOLYLINE
5
108
100
AcDbEntity
8
0
100
AcDbPolyline
90
8
70
1
43
0.0
10
-196.36954619274601
20
161.23530918095821
10
-196.36954619274601
20
161.23530918095821
42
-0.42972157715856141
10
-196.66472206210699
20
160.57259733134285
42
-0.17167904504671427
10
-203.33527793789307
20
160.57259733134288
42
-0.42972157715858089
10
-203.63045380725407
20
161.23530918095827
10
-203.63045380725407
20
161.23530918095827
42
-0.3988737611240305
10
-203.00175014410377
20
161.51533759820859
42
0.17167904504671358
10
-196.99824985589632
20
161.51533759820859
42
-0.39887376112411388
0
LWPOLYLINE
5
109
100
AcDbEntity
8
0
100
AcDbPolyline
90
8
70
1
43
0.0
10
-186.61171066464539
20
164.45438898032106
42
0.42435178897926007
10
-185.95210591221658
20
164.74102977656995
42
0.1810447816807354
10
-185.95210591221655
20
175.25897022343005
42
0.42435178897923242
10
-186.61171066464536
20
175.54561101967894
10
-186.61171362628556
20
175.54560979292742
42
0.40414749524437454
10
-186.88863494768572
20
174.9083710602348
42
-0.18104477774407843
10
-186.88863494768577
20
165.0916289397652
42
0.40414749524432181
10
-186.61171362628565
20
164.45439020707258
0
LWPOLYLINE
5
110
100
AcDbEntity
8
0
100
AcDbPolyline
90
8
70
1
43
0.0
10
-196.36954619274601
20
161.23530918095821
10
-196.36954619274601
20
161.23530918095821
42
-0.42972157715856141
10
-196.66472206210699
20
160.57259733134285
42
-0.17167904504671427
10
-203.33527793789307
20
160.57259733134288
42
-0.42972157715858089
10
-203.63045380725407
20
161.23530918095827
10
-203.63045380725407
20
161.23530918095827
42
-0.3988737611240305
10
-203.00175014410377
20
161.51533759820859
42
0.17167904504671358
10
-196.99824985589632
20
161.51533759820859
42
-0.39887376112411388
0
LWPOLYLINE
5
111
100
AcDbEntity
8
0
100
AcDbPolyline
90
8
70
1
43
0.0
10
-194.45439020707261
20
156.61171362628559
10
-194.45438898032108
20
156.61171066464536
42
-0.42435178897923242
10
-194.74102977656997
20
155.95210591221655
42
-0.18104478168073537
10
-205.25897022343008
20
155.95210591221658
42
-0.42435178897925641
10
-205.54561101967897
20
156.61171066464539
10
-205.54560979292745
20
156.61171362628562
42
-0.40414749524434462
10
-204.90837106023486
20
156.88863494768574
42
0.18104477774407846
10
-195.09162893976523
20
156.88863494768572
42
-0.40414749524434818
0
LWPOLYLINE
5
112
100
AcDbEntity
8
0
100
AcDbPolyline
90
8
70
1
43
0.0
10
-196.36954619274601
20
161.23530918095821
10
-196.36954619274601
20
161.23530918095821
42
-0.42972157715856141
10
-196.66472206210699
20
160.57259733134285
42
-0.17167904504671427
10
-203.33527793789307
20
160.57259733134288
42
-0.42972157715858089
10
-203.63045380725407
20
161.23530918095827
10
-203.63045380725407
20
161.23530918095827
42
-0.3988737611240305
10
-203.00175014410377
20
161.51533759820859
42
0.17167904504671358
10
-196.99824985589632
20
161.51533759820859
42
-0.39887376112411388
0
LWPOLYLINE
5
113
100
AcDbEntity
8
0
100
AcDbPolyline
90
8
70
1
43
0.0
10
-194.45439020707261
20
156.61171362628559
42
0.40414749524434818
10
-195.09162893976523
20
156.88863494768572
42
-0.18104477774407843
10
-204.90837106023486
20
156.88863494768574
42
0.40414749524434462
10
-205.54560979292745
20
156.61171362628562
10
-205.54561101967897
20
156.61171066464539
42
0.42435178897925641
10
-205.25897022343008
20
155.95210591221658
42
0.1810447816807354
10
-194.74102977656997
20
155.95210591221655
42
0.42435178897923242
10
-194.45438898032108
20
156.61171066464536
0
LWPOLYLINE
5
114
100
AcDbEntity
8
0
100
AcDbPolyline
90
8
70
1
43
0.0
10
-196.36954619274601
20
161.23530918095821
42
0.39887376112411388
10
-196.99824985589632
20
161.51533759820853
42
-0.17167904504671361
10
-203.00175014410377
20
161.51533759820859
42
0.3988737611240305
10
-203.63045380725407
20
161.23530918095827
10
-203.63045380725407
20
161.23530918095827
42
0.42972157715858089
10
-203.33527793789307
20
160.57259733134288
42
0.17167904504671433
10
-196.66472206210699
20
160.57259733134285
42
0.42972157715856141
10
-196.36954619274601
20
161.23530918095821
0
LWPOLYLINE
5
115
100
AcDbEntity
8
0
100
AcDbPolyline
90
8
70
1
43
0.0
10
-194.45439020707261
20
156.61171362628559
10
-194.45438898032108
20
156.61171066464536
42
-0.42435178897923242
10
-194.74102977656997
20
155.95210591221655
42
-0.18104478168073537
10
-205.25897022343008
20
155.95210591221658
42
-0.42435178897925641
10
-205.54561101967897
20
156.61171066464539
10
-205.54560979292745
20
156.61171362628562
42
-0.40414749524434462
10
-204.90837106023486
20
156.88863494768574
42
0.18104477774407846
10
-195.09162893976523
20
156.88863494768572
42
-0.40414749524434818
0
LWPOLYLINE
5
116
100
AcDbEntity
8
0
100
AcDbPolyline
90
7
70
1
43
0.0
10
-198.28858766273743
20
165.86828512456805
10
-198.28858766273743
20
165.86828512456805
42
-0.44721359549989709
10
-198.61169714332561
20
165.196603787095
42
-0.14161447997448529
10
-201.38830285667439
20
165.196603787095
42
-0.4472135954998811
10
-201.7114123372626
20
165.86828512456808
10
-201.53073372946039
20
166.30448186995483
42
0.1701277201727838
10
-198.88935771466052
20
166.15728302967599
42
-0.38196601125009672
0
LWPOLYLINE
5
117
100
AcDbEntity
8
0
100
AcDbPolyline
90
7
70
1
43
0.0
10
-198.61169714332561
20
165.196603787095
42
0.44721359549989709
10
-198.28858766273743
20
165.86828512456805
10
-198.28858766273743
20
165.86828512456805
42
0.38196601125009672
10
-198.88935771466052
20
166.15728302967597
42
-0.17012772017278385
10
-201.53073372946039
20
166.30448186995483
10
-201.7114123372626
20
165.86828512456808
42
0.4472135954998811
10
-201.38830285667439
20
165.196603787095
42
0.14161447997448523
0
LWPOLYLINE
5
118
100
AcDbEntity
8
0
100
AcDbPolyline
90
7
70
1
43
0.0
10
-198.61169714332561
20
165.196603787095
42
0.44721359549989709
10
-198.28858766273743
20
165.86828512456805
10
-198.28858766273743
20
165.86828512456805
42
0.38196601125009672
10
-198.88935771466052
20
166.15728302967597
42
-0.17012772017278385
10
-201.53073372946039
20
166.30448186995483
10
-201.7114123372626
20
165.86828512456808
42
0.4472135954998811
10
-201.38830285667439
20
165.196603787095
42
0.14161447997448523
0
LWPOLYLINE
5
119
100
AcDbEntity
8
0
100
AcDbPolyline
90
7
70
1
43
0.0
10
-198.61169714332561
20
165.196603787095
42
0.44721359549989709
10
-198.28858766273743
20
165.86828512456805
10
-198.28858766273743
20
165.86828512456805
42
0.38196601125009672
10
-198.88935771466052
20
166.15728302967597
42
-0.17012772017278385
10
-201.53073372946039
20
166.30448186995483
10
-201.7114123372626
20
165.86828512456808
42
0.4472135954998811
10
-201.38830285667439
20
165.196603787095
42
0.14161447997448523
0
LWPOLYLINE
5
120
100
AcDbEntity
8
0
100
AcDbPolyline
90
7
70
1
43
0.0
10
-195.196603787095
20
168.61169714332564
42
0.14161447997448523
10
-195.196603787095
20
171.38830285667441
42
0.44721359549989709
10
-195.86828512456805
20
171.7114123372626
10
-195.86828512456805
20
171.7114123372626
42
0.38196601125009672
10
-196.15728302967597
20
171.11064228533951
42
-0.17012772017278385
10
-196.30448186995483
20
168.46926627053963
10
-195.86828512456808
20
168.28858766273743
42
0.4472135954998811
0
LWPOLYLINE
5
121
100
AcDbEntity
8
0
100
AcDbPolyline
90
7
70
1
43
0.0
10
-196.30448186995483
20
168.46926627053963
42
0.1701277201727838
10
-196.15728302967599
20
171.11064228533951
42
-0.38196601125009672
10
-195.86828512456805
20
171.7114123372626
10
-195.86828512456805
20
171.7114123372626
42
-0.44721359549989709
10
-195.196603787095
20
171.38830285667441
42
-0.14161447997448529
10
-195.196603787095
20
168.61169714332564
42
-0.4472135954998811
10
-195.86828512456808
20
168.28858766273743
0
LWPOLYLINE
5
122
100
AcDbEntity
8
0
100
AcDbPolyline
90
7
70
1
43
0.0
10
-195.86828512456805
20
171.7114123372626
42
0.38196601125009672
10
-196.15728302967597
20
171.11064228533951
42
-0.17012772017278385
10
-196.30448186995483
20
168.46926627053963
10
-195.86828512456808
20
168.28858766273743
42
0.4472135954998811
10
-195.196603787095
20
168.61169714332564
42
0.14161447997448523
10
-195.196603787095
20
171.38830285667441
42
0.44721359549989709
10
-195.86828512456805
20
171.7114123372626
0
LWPOLYLINE
5
123
100
AcDbEntity
8
0
100
AcDbPolyline
90
7
70
1
43
0.0
10
-195.196603787095
20
171.38830285667441
42
0.44721359549989709
10
-195.86828512456805
20
171.7114123372626
10
-195.86828512456805
20
171.7114123372626
42
0.38196601125009672
10
-196.15728302967597
20
171.11064228533951
42
-0.17012772017278385
10
-196.30448186995483
20
168.46926627053963
10
-195.86828512456808
20
168.28858766273743
42
0.4472135954998811
10
-195.196603787095
20
168.61169714332564
42
0.14161447997448523
0
LWPOLYLINE
5
124
100
AcDbEntity
8
0
100
AcDbPolyline
90
7
70
1
43
0.0
10
-198.28858766273743
20
174.1317148754319
42
0.4472135954998811
10
-198.61169714332564
20
174.80339621290497
42
0.14161447997448523
10
-201.38830285667441
20
174.80339621290497
42
0.44721359549989709
10
-201.7114123372626
20
174.13171487543192
10
-201.7114123372626
20
174.13171487543192
42
0.38196601125009672
10
-201.11064228533951
20
173.84271697032401
42
-0.17012772017278385
10
-198.46926627053963
20
173.69551813004512
0
LWPOLYLINE
5
125
100
AcDbEntity
8
0
100
AcDbPolyline
90
8
70
1
43
0.0
10
-196.36954619274599
20
178.76469081904168
10
-196.36954619274599
20
178.76469081904168
42
0.42972157715858089
10
-196.66472206210696
20
179.42740266865709
42
0.17167904504671433
10
-203.33527793789304
20
179.42740266865712
42
0.42972157715856141
10
-203.63045380725401
20
178.76469081904176
10
-203.63045380725401
20
178.76469081904176
42
0.39887376112411388
10
-203.00175014410371
20
178.48466240179141
42
-0.17167904504671361
10
-196.99824985589626
20
178.48466240179138
42
0.3988737611240305
0
LWPOLYLINE
5
126
100
AcDbEntity
8
0
100
AcDbPolyline
90
8
70
1
43
0.0
10
-196.99824985589626
20
178.48466240179138
42
0.3988737611240305
10
-196.36954619274599
20
178.76469081904168
10
-196.36954619274599
20
178.76469081904168
42
0.42972157715858089
10
-196.66472206210696
20
179.42740266865709
42
0.17167904504671433
10
-203.33527793789304
20
179.42740266865712
42
0.42972157715856141
10
-203.63045380725401
20
178.76469081904176
10
-203.63045380725401
20
178.76469081904176
42
0.39887376112411388
10
-203.00175014410371
20
178.48466240179141
42
-0.17167904504671361
0
LWPOLYLINE
5
127
100
AcDbEntity
8
0
100
AcDbPolyline
90
7
70
1
43
0.0
10
-198.46926627053963
20
173.69551813004512
10
-198.28858766273743
20
174.1317148754319
42
0.4472135954998811
10
-198.61169714332564
20
174.80339621290497
42
0.14161447997448523
10
-201.38830285667441
20
174.80339621290497
42
0.44721359549989709
10
-201.7114123372626
20
174.13171487543192
10
-201.7114123372626
20
174.13171487543192
42
0.38196601125009672
10
-201.11064228533951
20
173.84271697032401
42
-0.17012772017278385
0
LWPOLYLINE
5
128
100
AcDbEntity
8
0
100
AcDbPolyline
90
8
70
1
43
0.0
10
-196.99824985589626
20
178.48466240179138
42
0.3988737611240305
10
-196.36954619274599
20
178.76469081904168
10
-196.36954619274599
20
178.76469081904168
42
0.42972157715858089
10
-196.66472206210696
20
179.42740266865709
42
0.17167904504671433
10
-203.33527793789304
20
179.42740266865712
42
0.42972157715856141
10
-203.63045380725401
20
178.76469081904176
10
-203.63045380725401
20
178.76469081904176
42
0.39887376112411388
10
-203.00175014410371
20
178.48466240179141
42
-0.17167904504671361
0
LWPOLYLINE
5
129
100
AcDbEntity
8
0
100
AcDbPolyline
90
8
70
1
43
0.0
10
-196.99824985589626
20
178.48466240179138
42
0.3988737611240305
10
-196.36954619274599
20
178.76469081904168
10
-196.36954619274599
20
178.76469081904168
42
0.42972157715858089
10
-196.66472206210696
20
179.42740266865709
42
0.17167904504671433
10
-203.33527793789304
20
179.42740266865712
42
0.42972157715856141
10
-203.63045380725401
20
178.76469081904176
10
-203.63045380725401
20
178.76469081904176
42
0.39887376112411388
10
-203.00175014410371
20
178.48466240179141
42
-0.17167904504671361
0
LWPOLYLINE
5
130
100
AcDbEntity
8
0
100
AcDbPolyline
90
7
70
1
43
0.0
10
-198.46926627053963
20
173.69551813004512
10
-198.28858766273743
20
174.1317148754319
42
0.4472135954998811
10
-198.61169714332564
20
174.80339621290497
42
0.14161447997448523
10
-201.38830285667441
20
174.80339621290497
42
0.44721359549989709
10
-201.7114123372626
20
174.13171487543192
10
-201.7114123372626
20
174.13171487543192
42
0.38196601125009672
10
-201.11064228533951
20
173.84271697032401
42
-0.17012772017278385
0
LWPOLYLINE
5
131
100
AcDbEntity
8
0
100
AcDbPolyline
90
7
70
1
43
0.0
10
-198.28858766273743
20
174.1317148754319
42
0.4472135954998811
10
-198.61169714332564
20
174.80339621290497
42
0.14161447997448523
10
-201.38830285667441
20
174.80339621290497
42
0.44721359549989709
10
-201.7114123372626
20
174.13171487543192
10
-201.7114123372626
20
174.13171487543192
42
0.38196601125009672
10
-201.11064228533951
20
173.84271697032401
42
-0.17012772017278385
10
-198.46926627053963
20
173.69551813004512
0
ARC
5
132
100
AcDbEntity
8
0
100
AcDbCircle
10
-199.99999999999997
20
165.99999999999997
30
0
40
20.999999999999979
210
0
220
0
230
1
100
AcDbArc
50
-90.000000000000099
51
0
0
ARC
5
133
100
AcDbEntity
8
0
100
AcDbCircle
10
-199.99999999999997
20
165.99999999999997
30
0
40
20.999999999999979
210
0
220
0
230
1
100
AcDbArc
50
-90.000000000000099
51
0
0
ARC
5
134
100
AcDbEntity
8
0
100
AcDbCircle
10
-199.99999999999997
20
165.99999999999997
30
0
40
20.999999999999979
210
0
220
0
230
1
100
AcDbArc
50
-90.000000000000099
51
0
0
ARC
5
135
100
AcDbEntity
8
0
100
AcDbCircle
10
-199.99999999999997
20
165.99999999999997
30
0
40
20.999999999999979
210
0
220
0
230
1
100
AcDbArc
50
-90.000000000000099
51
0
0
LWPOLYLINE
5
136
100
AcDbEntity
8
0
100
AcDbPolyline
90
8
70
1
43
0.0
10
-195.0916289397652
20
183.11136505231423
42
0.40414749524432181
10
-194.45439020707258
20
183.38828637371435
10
-194.45438898032106
20
183.38828933535461
42
0.42435178897926007
10
-194.74102977656995
20
184.04789408778342
42
0.18104478168073512
10
-205.25897022343005
20
184.04789408778342
42
0.42435178897923242
10
-205.54561101967894
20
183.38828933535461
10
-205.54560979292742
20
183.38828637371438
42
0.40414749524434818
10
-204.9083710602348
20
183.11136505231428
42
-0.18104477774407821
0
LWPOLYLINE
5
137
100
AcDbEntity
8
0
100
AcDbPolyline
90
8
70
1
43
0.0
10
-195.0916289397652
20
183.11136505231423
42
0.40414749524432181
10
-194.45439020707258
20
183.38828637371435
10
-194.45438898032106
20
183.38828933535461
42
0.42435178897926007
10
-194.74102977656995
20
184.04789408778342
42
0.18104478168073512
10
-205.25897022343005
20
184.04789408778342
42
0.42435178897923242
10
-205.54561101967894
20
183.38828933535461
10
-205.54560979292742
20
183.38828637371438
42
0.40414749524434818
10
-204.9083710602348
20
183.11136505231428
42
-0.18104477774407821
0
LWPOLYLINE
5
138
100
AcDbEntity
8
0
100
AcDbPolyline
90
8
70
1
43
0.0
10
-194.45439020707258
20
183.38828637371435
10
-194.45438898032106
20
183.38828933535461
42
0.42435178897926007
10
-194.74102977656995
20
184.04789408778342
42
0.18104478168073512
10
-205.25897022343005
20
184.04789408778342
42
0.42435178897923242
10
-205.54561101967894
20
183.38828933535461
10
-205.54560979292742
20
183.38828637371438
42
0.40414749524434818
10
-204.9083710602348
20
183.11136505231428
42
-0.18104477774407821
10
-195.0916289397652
20
183.11136505231423
42
0.40414749524432181
0
ARC
5
139
100
AcDbEntity
8
0
100
AcDbCircle
10
-166
20
247
30
0
40
13.000000000000009
210
0
220
0
230
1
100
AcDbArc
50
119.112012461983
51
180
0
LWPOLYLINE
5
140
100
AcDbEntity
8
0
100
AcDbPolyline
90
8
70
1
43
0.0
10
-194.45439020707258
20
183.38828637371435
10
-194.45438898032106
20
183.38828933535461
42
0.42435178897926007
10
-194.74102977656995
20
184.04789408778342
42
0.18104478168073512
10
-205.25897022343005
20
184.04789408778342
42
0.42435178897923242
10
-205.54561101967894
20
183.38828933535461
10
-205.54560979292742
20
183.38828637371438
42
0.40414749524434818
10
-204.9083710602348
20
183.11136505231428
42
-0.18104477774407821
10
-195.0916289397652
20
183.11136505231423
42
0.40414749524432181
0
ARC
5
141
100
AcDbEntity
8
0
100
AcDbCircle
10
-166
20
247
30
0
40
13.000000000000009
210
0
220
0
230
1
100
AcDbArc
50
119.112012461983
51
180
0
ARC
5
142
100
AcDbEntity
8
0
100
AcDbCircle
10
-166
20
247
30
0
40
13.000000000000009
210
0
220
0
230
1
100
AcDbArc
50
119.112012461983
51
180
0
ARC
5
143
100
AcDbEntity
8
0
100
AcDbCircle
10
-166
20
247
30
0
40
13.000000000000009
210
0
220
0
230
1
100
AcDbArc
50
119.112012461983
51
180
0
LINE
5
144
100
AcDbEntity
8
0
100
AcDbLine
10
-179
20
166
30
0
11
-179
21
247.00000000000003
31
0
0
LINE
5
145
100
AcDbEntity
8
0
100
AcDbLine
10
-179
20
166
30
0
11
-179
21
247.00000000000003
31
0
0
LINE
5
146
100
AcDbEntity
8
0
100
AcDbLine
10
-179
20
166
30
0
11
-179
21
247.00000000000003
31
0
0
LINE
5
147
100
AcDbEntity
8
0
100
AcDbLine
10
-179
20
166
30
0
11
-179
21
247.00000000000003
31
0
0
LWPOLYLINE
5
148
100
AcDbEntity
8
0
100
AcDbPolyline
90
7
70
1
43
0.0
10
-204.13171487543192
20
168.28858766273743
42
0.38196601125009672
10
-203.84271697032401
20
168.88935771466052
42
-0.17012772017278385
10
-203.69551813004512
20
171.53073372946039
10
-204.1317148754319
20
171.7114123372626
42
0.4472135954998811
10
-204.80339621290497
20
171.38830285667439
42
0.14161447997448523
10
-204.80339621290497
20
168.61169714332561
42
0.44721359549989709
10
-204.13171487543192
20
168.28858766273743
0
LWPOLYLINE
5
149
100
AcDbEntity
8
0
100
AcDbPolyline
90
7
70
1
43
0.0
10
-204.13171487543192
20
168.28858766273743
10
-204.13171487543192
20
168.28858766273743
42
-0.44721359549989709
10
-204.80339621290497
20
168.61169714332561
42
-0.14161447997448529
10
-204.80339621290497
20
171.38830285667439
42
-0.4472135954998811
10
-204.1317148754319
20
171.7114123372626
10
-203.69551813004512
20
171.53073372946039
42
0.1701277201727838
10
-203.84271697032398
20
168.88935771466052
42
-0.38196601125009672
0
LWPOLYLINE
5
150
100
AcDbEntity
8
0
100
AcDbPolyline
90
7
70
1
43
0.0
10
-204.80339621290497
20
168.61169714332561
42
0.44721359549989709
10
-204.13171487543192
20
168.28858766273743
10
-204.13171487543192
20
168.28858766273743
42
0.38196601125009672
10
-203.84271697032401
20
168.88935771466052
42
-0.17012772017278385
10
-203.69551813004512
20
171.53073372946039
10
-204.1317148754319
20
171.7114123372626
42
0.4472135954998811
10
-204.80339621290497
20
171.38830285667439
42
0.14161447997448523
0
LWPOLYLINE
5
151
100
AcDbEntity
8
0
100
AcDbPolyline
90
7
70
1
43
0.0
10
-204.80339621290497
20
168.61169714332561
42
0.44721359549989709
10
-204.13171487543192
20
168.28858766273743
10
-204.13171487543192
20
168.28858766273743
42
0.38196601125009672
10
-203.84271697032401
20
168.88935771466052
42
-0.17012772017278385
10
-203.69551813004512
20
171.53073372946039
10
-204.1317148754319
20
171.7114123372626
42
0.4472135954998811
10
-204.80339621290497
20
171.38830285667439
42
0.14161447997448523
0
LINE
5
152
100
AcDbEntity
8
0
100
AcDbLine
10
-401.00000369921315
20
423.99999481067084
30
0
11
-482.00000369921338
21
423.99999481067084
31
0
0
LWPOLYLINE
5
153
100
AcDbEntity
8
0
100
AcDbPolyline
90
8
70
1
43
0.0
10
-213.38828637371435
20
164.45439020707261
42
0.40414749524432181
10
-213.1113650523142
20
165.09162893976523
42
-0.18104477774407868
10
-213.1113650523142
20
174.90837106023486
42
0.40414749524436733
10
-213.38828637371435
20
175.54560979292745
10
-213.38828933535456
20
175.54561101967897
42
0.42435178897925274
10
-214.04789408778333
20
175.25897022343008
42
0.18104478168073557
10
-214.04789408778342
20
164.74102977656997
42
0.42435178897923242
10
-213.38828933535461
20
164.45438898032108
0
LWPOLYLINE
5
154
100
AcDbEntity
8
0
100
AcDbPolyline
90
8
70
1
43
0.0
10
-214.04789408778342
20
164.74102977656997
42
0.42435178897923242
10
-213.38828933535461
20
164.45438898032108
10
-213.38828637371435
20
164.45439020707261
42
0.40414749524432181
10
-213.1113650523142
20
165.09162893976523
42
-0.18104477774407868
10
-213.1113650523142
20
174.90837106023486
42
0.40414749524436733
10
-213.38828637371435
20
175.54560979292745
10
-213.38828933535456
20
175.54561101967897
42
0.42435178897925274
10
-214.04789408778333
20
175.25897022343008
42
0.18104478168073557
0
LWPOLYLINE
5
155
100
AcDbEntity
8
0
100
AcDbPolyline
90
8
70
1
43
0.0
10
-209.42740266865712
20
166.66472206210699
42
0.42972157715856141
10
-208.76469081904176
20
166.36954619274601
10
-208.76469081904176
20
166.36954619274601
42
0.39887376112411388
10
-208.48466240179141
20
166.99824985589632
42
-0.17167904504671361
10
-208.48466240179138
20
173.00175014410377
42
0.3988737611240305
10
-208.76469081904168
20
173.63045380725407
10
-208.76469081904168
20
173.63045380725407
42
0.42972157715858089
10
-209.42740266865709
20
173.33527793789307
42
0.17167904504671433
0
LWPOLYLINE
5
156
100
AcDbEntity
8
0
100
AcDbPolyline
90
8
70
1
43
0.0
10
-209.42740266865712
20
166.66472206210699
42
0.42972157715856141
10
-208.76469081904176
20
166.36954619274601
10
-208.76469081904176
20
166.36954619274601
42
0.39887376112411388
10
-208.48466240179141
20
166.99824985589632
42
-0.17167904504671361
10
-208.48466240179138
20
173.00175014410377
42
0.3988737611240305
10
-208.76469081904168
20
173.63045380725407
10
-208.76469081904168
20
173.63045380725407
42
0.42972157715858089
10
-209.42740266865709
20
173.33527793789307
42
0.17167904504671433
0
LWPOLYLINE
5
157
100
AcDbEntity
8
0
100
AcDbPolyline
90
8
70
1
43
0.0
10
-209.42740266865712
20
166.66472206210699
42
0.42972157715856141
10
-208.76469081904176
20
166.36954619274601
10
-208.76469081904176
20
166.36954619274601
42
0.39887376112411388
10
-208.48466240179141
20
166.99824985589632
42
-0.17167904504671361
10
-208.48466240179138
20
173.00175014410377
42
0.3988737611240305
10
-208.76469081904168
20
173.63045380725407
10
-208.76469081904168
20
173.63045380725407
42
0.42972157715858089
10
-209.42740266865709
20
173.33527793789307
42
0.17167904504671433
0
LWPOLYLINE
5
158
100
AcDbEntity
8
0
100
AcDbPolyline
90
8
70
1
43
0.0
10
-214.04789408778342
20
164.74102977656997
42
0.42435178897923242
10
-213.38828933535461
20
164.45438898032108
10
-213.38828637371435
20
164.45439020707261
42
0.40414749524432181
10
-213.1113650523142
20
165.09162893976523
42
-0.18104477774407868
10
-213.1113650523142
20
174.90837106023486
42
0.40414749524436733
10
-213.38828637371435
20
175.54560979292745
10
-213.38828933535456
20
175.54561101967897
42
0.42435178897925274
10
-214.04789408778333
20
175.25897022343008
42
0.18104478168073557
0
LWPOLYLINE
5
159
100
AcDbEntity
8
0
100
AcDbPolyline
90
8
70
1
43
0.0
10
-213.38828637371435
20
164.45439020707261
10
-213.38828933535461
20
164.45438898032108
42
-0.42435178897923242
10
-214.04789408778339
20
164.74102977656997
42
-0.18104478168073557
10
-214.04789408778339
20
175.25897022343008
42
-0.42435178897925274
10
-213.38828933535456
20
175.54561101967897
10
-213.38828637371435
20
175.54560979292748
42
-0.40414749524436733
10
-213.1113650523142
20
174.90837106023486
42
0.18104477774407868
10
-213.11136505231428
20
165.09162893976523
42
-0.40414749524432181
0
LWPOLYLINE
5
160
100
AcDbEntity
8
0
100
AcDbPolyline
90
8
70
1
43
0.0
10
-209.42740266865712
20
166.66472206210699
42
0.42972157715856141
10
-208.76469081904176
20
166.36954619274601
10
-208.76469081904176
20
166.36954619274601
42
0.39887376112411388
10
-208.48466240179141
20
166.99824985589632
42
-0.17167904504671361
10
-208.48466240179138
20
173.00175014410377
42
0.3988737611240305
10
-208.76469081904168
20
173.63045380725407
10
-208.76469081904168
20
173.63045380725407
42
0.42972157715858089
10
-209.42740266865709
20
173.33527793789307
42
0.17167904504671433
0
LINE
5
161
100
AcDbEntity
8
0
100
AcDbLine
10
-401.00000146403897
20
418.99999504908931
30
0
11
-482.50000295415521
21
418.99999504908931
31
0
0
LINE
5
162
100
AcDbEntity
8
0
100
AcDbLine
10
-482.00000369921338
20
381.99999481067084
30
0
11
-401.00000369921315
21
381.99999481067084
31
0
0
LINE
5
163
100
AcDbEntity
8
0
100
AcDbLine
10
-482.50000295415521
20
386.99999457225215
30
0
11
-401.00000146403897
21
386.99999457225215
31
0
0
LINE
5
164
100
AcDbEntity
8
0
100
AcDbLine
10
-482.50000295415521
20
386.99999457225215
30
0
11
-401.00000146403897
21
386.99999457225215
31
0
0
ARC
5
165
100
AcDbEntity
8
0
100
AcDbCircle
10
-418
20
331
30
0
40
21.000000000000014
210
-0
220
0
230
1
100
AcDbArc
50
0
51
90
0
LINE
5
166
100
AcDbEntity
8
0
100
AcDbLine
10
-401.00000369921315
20
423.99999481067084
30
0
11
-482.00000369921338
21
423.99999481067084
31
0
0
LINE
5
167
100
AcDbEntity
8
0
100
AcDbLine
10
-482.50000295415521
20
386.99999457225215
30
0
11
-401.00000146403897
21
386.99999457225215
31
0
0
LINE
5
168
100
AcDbEntity
8
0
100
AcDbLine
10
-482.00000369921338
20
381.99999481067084
30
0
11
-401.00000369921315
21
381.99999481067084
31
0
0
LINE
5
169
100
AcDbEntity
8
0
100
AcDbLine
10
-401.00000146403897
20
418.99999504908931
30
0
11
-482.50000295415521
21
418.99999504908931
31
0
0
CIRCLE
5
170
100
AcDbEntity
8
0
100
AcDbCircle
10
-418
20
197.00000000000003
30
0
40
35.000000521540642
210
0
220
0
230
1
0
CIRCLE
5
171
100
AcDbEntity
8
0
100
AcDbCircle
10
-418
20
197.00000000000003
30
0
40
35.000000521540642
210
0
220
0
230
1
0
LWPOLYLINE
5
172
100
AcDbEntity
8
0
100
AcDbPolyline
90
4
70
1
43
0.0
10
-235
20
360
10
-484.00000594556332
20
360
10
-484.00000594556332
20
376
10
-235
20
376
0
ARC
5
173
100
AcDbEntity
8
0
100
AcDbCircle
10
-418
20
331
30
0
40
21.000000000000014
210
-0
220
0
230
1
100
AcDbArc
50
0
51
90
0
LINE
5
174
100
AcDbEntity
8
0
100
AcDbLine
10
-412.53008261472849
20
238.64228687727902
30
0
11
-390.32474130869957
21
238.64228687727902
31
0
0
LINE
5
175
100
AcDbEntity
8
0
100
AcDbLine
10
-445.67525869130037
20
238.64228687727902
30
0
11
-390.32474130869957
21
238.64228687727902
31
0
0
LINE
5
176
100
AcDbEntity
8
0
100
AcDbLine
10
-401.00000369921315
20
423.99999481067084
30
0
11
-482.00000369921338
21
423.99999481067084
31
0
0
CIRCLE
5
177
100
AcDbEntity
8
0
100
AcDbCircle
10
-418
20
197.00000000000003
30
0
40
35.000000521540642
210
0
220
0
230
1
0
ARC
5
178
100
AcDbEntity
8
0
100
AcDbCircle
10
-418
20
331
30
0
40
21.000000000000014
210
-0
220
0
230
1
100
AcDbArc
50
0
51
90
0
LINE
5
179
100
AcDbEntity
8
0
100
AcDbLine
10
-482.00000369921338
20
381.99999481067084
30
0
11
-401.00000369921315
21
381.99999481067084
31
0
0
LWPOLYLINE
5
180
100
AcDbEntity
8
0
100
AcDbPolyline
90
2
70
1
43
0.0
10
-444.31313979544586
20
239.51609899914769
42
3.5159657767316652
10
-391.6868602045522
20
239.51609899914649
42
-3.5159657767316652
0
LINE
5
181
100
AcDbEntity
8
0
100
AcDbLine
10
-482.00000369921338
20
381.99999481067084
30
0
11
-401.00000369921315
21
381.99999481067084
31
0
0
CIRCLE
5
182
100
AcDbEntity
8
0
100
AcDbCircle
10
-418
20
197.00000000000003
30
0
40
35.000000521540642
210
0
220
0
230
1
0
ARC
5
183
100
AcDbEntity
8
0
100
AcDbCircle
10
-418
20
331
30
0
40
21.000000000000014
210
-0
220
0
230
1
100
AcDbArc
50
0
51
90
0
LINE
5
184
100
AcDbEntity
8
0
100
AcDbLine
10
-445.67525869130037
20
238.64228687727902
30
0
11
-390.32474130869957
21
238.64228687727902
31
0
0
LINE
5
185
100
AcDbEntity
8
0
100
AcDbLine
10
-401.00000146403897
20
418.99999504908931
30
0
11
-482.50000295415521
21
418.99999504908931
31
0
0
LINE
5
186
100
AcDbEntity
8
0
100
AcDbLine
10
-401.00000369921315
20
423.99999481067084
30
0
11
-482.00000369921338
21
423.99999481067084
31
0
0
LINE
5
187
100
AcDbEntity
8
0
100
AcDbLine
10
-482.50000295415521
20
386.99999457225215
30
0
11
-401.00000146403897
21
386.99999457225215
31
0
0
LINE
5
188
100
AcDbEntity
8
0
100
AcDbLine
10
-401.00000146403897
20
418.99999504908931
30
0
11
-482.50000295415521
21
418.99999504908931
31
0
0
LWPOLYLINE
5
189
100
AcDbEntity
8
0
100
AcDbPolyline
90
2
70
1
43
0.0
10
-173.68686020454282
20
257.48390100085936
42
3.5159657767301042
10
-226.31313979545632
20
257.48390100085885
42
-3.5159657767301042
0
ARC
5
190
100
AcDbEntity
8
0
100
AcDbCircle
10
-200.00000000000003
20
165.99999999999997
30
0
40
20.999999999999979
210
0
220
0
230
1
100
AcDbArc
50
180
51
270.00000000000011
0
LWPOLYLINE
5
191
100
AcDbEntity
8
0
100
AcDbPolyline
90
2
70
1
43
0.0
10
-463.68686020454192
20
257.48390100085993
42
3.5159657767298973
10
-516.31313979545803
20
257.48390100085993
42
-3.5159657767298973
0
CIRCLE
5
192
100
AcDbEntity
8
0
100
AcDbCircle
10
-490
20
300
30
0
40
45
210
0
220
0
230
1
0
ARC
5
193
100
AcDbEntity
8
0
100
AcDbCircle
10
-490
20
165.99999999999997
30
0
40
20.999999999999943
210
0
220
0
230
1
100
AcDbArc
50
180
51
270
0
LWPOLYLINE
5
194
100
AcDbEntity
8
0
100
AcDbPolyline
90
2
70
1
43
0.0
10
-224.51610269835334
20
376.68685501521259
42
3.5159657767298937
10
-224.51610269835342
20
429.31313460612876
42
-3.5159657767298937
0
LWPOLYLINE
5
195
100
AcDbEntity
8
0
100
AcDbPolyline
90
2
70
1
43
0.0
10
-224.51610269835334
20
376.68685501521259
42
3.5159657767298937
10
-224.51610269835342
20
429.31313460612876
42
-3.5159657767298937
0
LINE
5
196
100
AcDbEntity
8
0
100
AcDbLine
10
-445.67525869130037
20
238.64228687727902
30
0
11
-390.32474130869957
21
238.64228687727902
31
0
0
LWPOLYLINE
5
197
100
AcDbEntity
8
0
100
AcDbPolyline
90
2
70
1
43
0.0
10
-226.9305060960786
20
400.5000039376319
42
35.972200218754395
10
-226.93050507625753
20
405.50000401213765
42
-35.972200218754395
0
CIRCLE
5
198
100
AcDbEntity
8
0
100
AcDbCircle
10
-490
20
300
30
0
40
45
210
0
220
0
230
1
0
LWPOLYLINE
5
199
100
AcDbEntity
8
0
100
AcDbPolyline
90
2
70
1
43
0.0
10
-492.48390470007325
20
429.31313460612887
42
3.5159657767298844
10
-492.48390470007314
20
376.68685501521259
42
-3.5159657767298844
0
ARC
5
200
100
AcDbEntity
8
0
100
AcDbCircle
10
-490
20
165.99999999999997
30
0
40
20.999999999999943
210
0
220
0
230
1
100
AcDbArc
50
180
51
270
0
CIRCLE
5
201
100
AcDbEntity
8
0
100
AcDbCircle
10
-490
20
300
30
0
40
45
210
0
220
0
230
1
0
LWPOLYLINE
5
202
100
AcDbEntity
8
0
100
AcDbPolyline
90
2
70
1
43
0.0
10
-226.9305060960786
20
400.5000039376319
42
35.972200218754395
10
-226.93050507625753
20
405.50000401213765
42
-35.972200218754395
0
LWPOLYLINE
5
203
100
AcDbEntity
8
0
100
AcDbPolyline
90
2
70
1
43
0.0
10
-490.06950130234799
20
405.4999856837095
42
35.972200218753827
10
-490.069502322169
20
400.49998560920369
42
-35.972200218753827
0
LWPOLYLINE
5
204
100
AcDbEntity
8
0
100
AcDbPolyline
90
2
70
1
43
0.0
10
-463.68686020454192
20
257.48390100085993
42
3.5159657767298973
10
-516.31313979545803
20
257.48390100085993
42
-3.5159657767298973
0
ARC
5
205
100
AcDbEntity
8
0
100
AcDbCircle
10
-490
20
165.99999999999997
30
0
40
20.999999999999943
210
0
220
0
230
1
100
AcDbArc
50
180
51
270
0
CIRCLE
5
206
100
AcDbEntity
8
0
100
AcDbCircle
10
-490
20
300
30
0
40
45
210
0
220
0
230
1
0
LWPOLYLINE
5
207
100
AcDbEntity
8
0
100
AcDbPolyline
90
2
70
1
43
0.0
10
-490.06950130234799
20
405.4999856837095
42
35.972200218753827
10
-490.069502322169
20
400.49998560920369
42
-35.972200218753827
0
LWPOLYLINE
5
208
100
AcDbEntity
8
0
100
AcDbPolyline
90
2
70
1
43
0.0
10
-492.48390470007325
20
429.31313460612887
42
3.5159657767298844
10
-492.48390470007314
20
376.68685501521259
42
-3.5159657767298844
0
ARC
5
209
100
AcDbEntity
8
0
100
AcDbCircle
10
-490
20
165.99999999999997
30
0
40
20.999999999999943
210
0
220
0
230
1
100
AcDbArc
50
180
51
270
0
LINE
5
210
100
AcDbEntity
8
0
100
AcDbLine
10
-510.99999999999994
20
247.00000000000003
30
0
11
-510.99999999999994
21
166
31
0
0
LINE
5
211
100
AcDbEntity
8
0
100
AcDbLine
10
-510.99999999999994
20
247.00000000000003
30
0
11
-510.99999999999994
21
166
31
0
0
LINE
5
212
100
AcDbEntity
8
0
100
AcDbLine
10
-510.99999999999994
20
247.00000000000003
30
0
11
-510.99999999999994
21
166
31
0
0
LINE
5
213
100
AcDbEntity
8
0
100
AcDbLine
10
-473.99999976158142
20
165.99999776482582
30
0
11
-473.99999976158142
21
247.49999925494194
31
0
0
LINE
5
214
100
AcDbEntity
8
0
100
AcDbLine
10
-473.99999976158142
20
165.99999776482582
30
0
11
-473.99999976158142
21
247.49999925494194
31
0
0
LINE
5
215
100
AcDbEntity
8
0
100
AcDbLine
10
-510.99999999999994
20
247.00000000000003
30
0
11
-510.99999999999994
21
166
31
0
0
LINE
5
216
100
AcDbEntity
8
0
100
AcDbLine
10
-473.99999976158142
20
165.99999776482582
30
0
11
-473.99999976158142
21
247.49999925494194
31
0
0
LINE
5
217
100
AcDbEntity
8
0
100
AcDbLine
10
-473.99999976158142
20
165.99999776482582
30
0
11
-473.99999976158142
21
247.49999925494194
31
0
0
ARC
5
218
100
AcDbEntity
8
0
100
AcDbCircle
10
-523.99999999999989
20
247.00000000000003
30
0
40
12.999999999999972
210
0
220
0
230
1
100
AcDbArc
50
0
51
60.887987538017917
0
ARC
5
219
100
AcDbEntity
8
0
100
AcDbCircle
10
-479.99999985098839
20
154.99999783933163
30
0
40
2.50000000000006
210
0
220
-0
230
1
100
AcDbArc
50
19.518970507597459
51
245.02840738096856
0
ARC
5
220
100
AcDbEntity
8
0
100
AcDbCircle
10
-523.99999999999989
20
247.00000000000003
30
0
40
12.999999999999972
210
0
220
0
230
1
100
AcDbArc
50
0
51
60.887987538017917
0
ARC
5
221
100
AcDbEntity
8
0
100
AcDbCircle
10
-523.99999999999989
20
247.00000000000003
30
0
40
12.999999999999972
210
0
220
0
230
1
100
AcDbArc
50
0
51
60.887987538017917
0
LINE
5
222
100
AcDbEntity
8
0
100
AcDbLine
10
-506.00000023841858
20
247.49999925494194
30
0
11
-506.00000023841858
21
165.99999776482582
31
0
0
LINE
5
223
100
AcDbEntity
8
0
100
AcDbLine
10
-506.00000023841858
20
247.49999925494194
30
0
11
-506.00000023841858
21
165.99999776482582
31
0
0
ARC
5
224
100
AcDbEntity
8
0
100
AcDbCircle
10
-200.00000000000003
20
165.99999999999997
30
0
40
20.999999999999979
210
0
220
0
230
1
100
AcDbArc
50
180
51
270.00000000000011
0
ARC
5
225
100
AcDbEntity
8
0
100
AcDbCircle
10
-523.99999999999989
20
247.00000000000003
30
0
40
12.999999999999972
210
0
220
0
230
1
100
AcDbArc
50
0
51
60.887987538017917
0
ARC
5
226
100
AcDbEntity
8
0
100
AcDbCircle
10
-200.00000000000003
20
165.99999999999997
30
0
40
20.999999999999979
210
0
220
0
230
1
100
AcDbArc
50
180
51
270.00000000000011
0
ARC
5
227
100
AcDbEntity
8
0
100
AcDbCircle
10
-500.00000014901161
20
154.99999783933163
30
0
40
2.5000000000000249
210
0
220
0
230
1
100
AcDbArc
50
-65.028407380965078
51
160.48102949240229
0
LWPOLYLINE
5
228
100
AcDbEntity
8
0
100
AcDbPolyline
90
2
70
1
43
0.0
10
-224.51610269835334
20
376.68685501521259
42
3.5159657767298937
10
-224.51610269835342
20
429.31313460612876
42
-3.5159657767298937
0
LWPOLYLINE
5
229
100
AcDbEntity
8
0
100
AcDbPolyline
90
2
70
1
43
0.0
10
-226.9305060960786
20
400.5000039376319
42
35.972200218754395
10
-226.93050507625753
20
405.50000401213765
42
-35.972200218754395
0
ARC
5
230
100
AcDbEntity
8
0
100
AcDbCircle
10
-490
20
165.99999999999997
30
0
40
20.999999999999979
210
0
220
0
230
1
100
AcDbArc
50
-90
51
0
0
LINE
5
231
100
AcDbEntity
8
0
100
AcDbLine
10
-506.00000023841858
20
247.49999925494194
30
0
11
-506.00000023841858
21
165.99999776482582
31
0
0
LINE
5
232
100
AcDbEntity
8
0
100
AcDbLine
10
-468.99999999999989
20
166
30
0
11
-468.99999999999989
21
247.00000000000003
31
0
0
LINE
5
233
100
AcDbEntity
8
0
100
AcDbLine
10
-468.99999999999989
20
166
30
0
11
-468.99999999999989
21
247.00000000000003
31
0
0
LINE
5
234
100
AcDbEntity
8
0
100
AcDbLine
10
-468.99999999999989
20
166
30
0
11
-468.99999999999989
21
247.00000000000003
31
0
0
ARC
5
235
100
AcDbEntity
8
0
100
AcDbCircle
10
-490
20
165.99999999999997
30
0
40
20.999999999999979
210
0
220
0
230
1
100
AcDbArc
50
-90
51
0
0
LINE
5
236
100
AcDbEntity
8
0
100
AcDbLine
10
-506.00000023841858
20
247.49999925494194
30
0
11
-506.00000023841858
21
165.99999776482582
31
0
0
CIRCLE
5
237
100
AcDbEntity
8
0
100
AcDbCircle
10
-500.00000014901161
20
154.99999783933163
30
0
40
1.0000000149011612
210
0
220
0
230
1
0
ARC
5
238
100
AcDbEntity
8
0
100
AcDbCircle
10
-200.00000000000003
20
165.99999999999997
30
0
40
20.999999999999979
210
0
220
0
230
1
100
AcDbArc
50
180
51
270.00000000000011
0
LWPOLYLINE
5
239
100
AcDbEntity
8
0
100
AcDbPolyline
90
2
70
1
43
0.0
10
-226.9305060960786
20
400.5000039376319
42
35.972200218754395
10
-226.93050507625753
20
405.50000401213765
42
-35.972200218754395
0
LWPOLYLINE
5
240
100
AcDbEntity
8
0
100
AcDbPolyline
90
2
70
1
43
0.0
10
-224.51610269835334
20
376.68685501521259
42
3.5159657767298937
10
-224.51610269835342
20
429.31313460612876
42
-3.5159657767298937
0
CIRCLE
5
241
100
AcDbEntity
8
0
100
AcDbCircle
10
-500.00000014901161
20
154.99999783933163
30
0
40
1.0000000149011612
210
0
220
0
230
1
0
LINE
5
242
100
AcDbEntity
8
0
100
AcDbLine
10
-468.99999999999989
20
166
30
0
11
-468.99999999999989
21
247.00000000000003
31
0
0
ARC
5
243
100
AcDbEntity
8
0
100
AcDbCircle
10
-500.00000014901161
20
154.99999783933163
30
0
40
2.5000000000000249
210
0
220
0
230
1
100
AcDbArc
50
-65.028407380965078
51
160.48102949240229
0
LWPOLYLINE
5
244
100
AcDbEntity
8
0
100
AcDbPolyline
90
2
70
1
43
0.0
10
-173.68686020454282
20
257.48390100085936
42
3.5159657767301042
10
-226.31313979545632
20
257.48390100085885
42
-3.5159657767301042
0
ARC
5
245
100
AcDbEntity
8
0
100
AcDbCircle
10
-490.00000023841864
20
165.99999776482582
30
0
40
16.000000000000014
210
0
220
0
230
1
100
AcDbArc
50
236.01083549423021
51
270.00000000000063
0
ARC
5
246
100
AcDbEntity
8
0
100
AcDbCircle
10
-455.99999999999994
20
247
30
0
40
13.000000000000009
210
0
220
0
230
1
100
AcDbArc
50
119.1120124619828
51
180
0
CIRCLE
5
247
100
AcDbEntity
8
0
100
AcDbCircle
10
-479.99999985098839
20
154.99999783933163
30
0
40
1.0000000149011612
210
0
220
0
230
1
0
LINE
5
248
100
AcDbEntity
8
0
100
AcDbLine
10
-438.99999999999989
20
331
30
0
11
-439.00000000000006
21
250
31
0
0
ARC
5
249
100
AcDbEntity
8
0
100
AcDbCircle
10
-489.99999976158136
20
165.99999776482582
30
0
40
16.000000000000057
210
0
220
0
230
1
100
AcDbArc
50
-39.441786617206006
51
0
0
ARC
5
250
100
AcDbEntity
8
0
100
AcDbCircle
10
-479.99999985098839
20
154.99999783933163
30
0
40
2.50000000000006
210
0
220
-0
230
1
100
AcDbArc
50
19.518970507597459
51
245.02840738096856
0
LINE
5
251
100
AcDbEntity
8
0
100
AcDbLine
10
-438.99999999999989
20
331
30
0
11
-439.00000000000006
21
250
31
0
0
ARC
5
252
100
AcDbEntity
8
0
100
AcDbCircle
10
-500.00000014901161
20
154.99999783933163
30
0
40
2.5000000000000249
210
0
220
0
230
1
100
AcDbArc
50
-65.028407380965078
51
160.48102949240229
0
ARC
5
253
100
AcDbEntity
8
0
100
AcDbCircle
10
-455.99999999999994
20
247
30
0
40
13.000000000000009
210
0
220
0
230
1
100
AcDbArc
50
119.1120124619828
51
180
0
ARC
5
254
100
AcDbEntity
8
0
100
AcDbCircle
10
-500.00000014901161
20
154.99999783933163
30
0
40
2.5000000000000249
210
0
220
0
230
1
100
AcDbArc
50
-65.028407380965078
51
160.48102949240229
0
ARC
5
255
100
AcDbEntity
8
0
100
AcDbCircle
10
-490.00000023841864
20
165.99999776482582
30
0
40
16.000000000000014
210
0
220
0
230
1
100
AcDbArc
50
236.01083549423021
51
270.00000000000063
0
LINE
5
256
100
AcDbEntity
8
0
100
AcDbLine
10
-438.99999999999989
20
331
30
0
11
-439.00000000000006
21
250
31
0
0
ARC
5
257
100
AcDbEntity
8
0
100
AcDbCircle
10
-489.99999976158136
20
165.99999776482582
30
0
40
16.000000000000014
210
0
220
0
230
1
100
AcDbArc
50
270
51
303.98916450577025
0
ARC
5
258
100
AcDbEntity
8
0
100
AcDbCircle
10
-489.99999976158136
20
165.99999776482582
30
0
40
16.000000000000057
210
0
220
0
230
1
100
AcDbArc
50
-39.441786617206006
51
0
0
ARC
5
259
100
AcDbEntity
8
0
100
AcDbCircle
10
-506.00000023841858
20
249.99999925494194
30
0
40
2.5
210
0
220
0
230
1
100
AcDbArc
50
-90
51
0
0
ARC
5
260
100
AcDbEntity
8
0
100
AcDbCircle
10
-489.99999976158136
20
165.99999776482582
30
0
40
16.000000000000057
210
0
220
0
230
1
100
AcDbArc
50
-39.441786617206006
51
0
0
ARC
5
261
100
AcDbEntity
8
0
100
AcDbCircle
10
-473.99999976158142
20
249.99999925494194
30
0
40
2.5
210
0
220
0
230
1
100
AcDbArc
50
180
51
270
0
ARC
5
262
100
AcDbEntity
8
0
100
AcDbCircle
10
-506.00000023841858
20
249.99999925494194
30
0
40
2.5
210
0
220
0
230
1
100
AcDbArc
50
-90
51
0
0
CIRCLE
5
263
100
AcDbEntity
8
0
100
AcDbCircle
10
-506.00000023841858
20
249.99999925494194
30
0
40
1.0000000000000009
210
0
220
0
230
1
0
CIRCLE
5
264
100
AcDbEntity
8
0
100
AcDbCircle
10
-479.99999985098839
20
154.99999783933163
30
0
40
1.0000000149011612
210
0
220
0
230
1
0
ARC
5
265
100
AcDbEntity
8
0
100
AcDbCircle
10
-490
20
165.99999999999997
30
0
40
20.999999999999979
210
0
220
0
230
1
100
AcDbArc
50
-90
51
0
0
ARC
5
266
100
AcDbEntity
8
0
100
AcDbCircle
10
-490
20
165.99999999999997
30
0
40
20.999999999999979
210
0
220
0
230
1
100
AcDbArc
50
-90
51
0
0
ARC
5
267
100
AcDbEntity
8
0
100
AcDbCircle
10
-489.99999976158136
20
165.99999776482582
30
0
40
16.000000000000057
210
0
220
0
230
1
100
AcDbArc
50
-39.441786617206006
51
0
0
ARC
5
268
100
AcDbEntity
8
0
100
AcDbCircle
10
-506.00000023841858
20
249.99999925494194
30
0
40
2.5
210
0
220
0
230
1
100
AcDbArc
50
-90
51
0
0
ARC
5
269
100
AcDbEntity
8
0
100
AcDbCircle
10
-452
20
250
30
0
40
13.000000000000009
210
-0
220
0
230
1
100
AcDbArc
50
-60.887987538017271
51
0
0
LINE
5
270
100
AcDbEntity
8
0
100
AcDbLine
10
-427.00000232458115
20
360
30
0
11
-427.00000232458115
21
366.50000535696745
31
0
0
ARC
5
271
100
AcDbEntity
8
0
100
AcDbCircle
10
-479.99999985098839
20
154.99999783933163
30
0
40
2.50000000000006
210
0
220
-0
230
1
100
AcDbArc
50
19.518970507597459
51
245.02840738096856
0
ARC
5
272
100
AcDbEntity
8
0
100
AcDbCircle
10
-489.99999976158136
20
165.99999776482582
30
0
40
16.000000000000014
210
0
220
0
230
1
100
AcDbArc
50
270
51
303.98916450577025
0
ARC
5
273
100
AcDbEntity
8
0
100
AcDbCircle
10
-490.00000023841864
20
165.99999776482582
30
0
40
16.000000000000014
210
0
220
0
230
1
100
AcDbArc
50
236.01083549423021
51
270.00000000000063
0
ARC
5
274
100
AcDbEntity
8
0
100
AcDbCircle
10
-489.99999976158136
20
165.99999776482582
30
0
40
16.000000000000014
210
0
220
0
230
1
100
AcDbArc
50
270
51
303.98916450577025
0
ARC
5
275
100
AcDbEntity
8
0
100
AcDbCircle
10
-490.00000023841864
20
165.99999776482582
30
0
40
15.999999999999943
210
0
220
0
230
1
100
AcDbArc
50
180
51
219.44178661720633
0
ARC
5
276
100
AcDbEntity
8
0
100
AcDbCircle
10
-473.99999976158142
20
249.99999925494194
30
0
40
2.5
210
0
220
0
230
1
100
AcDbArc
50
180
51
270
0
CIRCLE
5
277
100
AcDbEntity
8
0
100
AcDbCircle
10
-500.00000014901161
20
154.99999783933163
30
0
40
1.0000000149011612
210
0
220
0
230
1
0
CIRCLE
5
278
100
AcDbEntity
8
0
100
AcDbCircle
10
-479.99999985098839
20
154.99999783933163
30
0
40
1.0000000149011612
210
0
220
0
230
1
0
CIRCLE
5
279
100
AcDbEntity
8
0
100
AcDbCircle
10
-500.00000014901161
20
154.99999783933163
30
0
40
1.0000000149011612
210
0
220
0
230
1
0
ARC
5
280
100
AcDbEntity
8
0
100
AcDbCircle
10
-473.99999976158142
20
249.99999925494194
30
0
40
2.5
210
0
220
0
230
1
100
AcDbArc
50
180
51
270
0
ARC
5
281
100
AcDbEntity
8
0
100
AcDbCircle
10
-490.00000023841864
20
165.99999776482582
30
0
40
15.999999999999943
210
0
220
0
230
1
100
AcDbArc
50
180
51
219.44178661720633
0
LINE
5
282
100
AcDbEntity
8
0
100
AcDbLine
10
-485.00000295415521
20
400.49998560920369
30
0
11
-485.00000295415521
21
389.49999457225215
31
0
0
LINE
5
283
100
AcDbEntity
8
0
100
AcDbLine
10
-476.49999976158142
20
249.99999925494194
30
0
11
-503.50000023841858
21
249.99999925494194
31
0
0
ARC
5
284
100
AcDbEntity
8
0
100
AcDbCircle
10
-506.00000023841858
20
249.99999925494194
30
0
40
2.5
210
0
220
0
230
1
100
AcDbArc
50
-90
51
0
0
ARC
5
285
100
AcDbEntity
8
0
100
AcDbCircle
10
-455.99999999999994
20
247
30
0
40
13.000000000000009
210
0
220
0
230
1
100
AcDbArc
50
119.1120124619828
51
180
0
ARC
5
286
100
AcDbEntity
8
0
100
AcDbCircle
10
-490.00000023841864
20
165.99999776482582
30
0
40
16.000000000000014
210
0
220
0
230
1
100
AcDbArc
50
236.01083549423021
51
270.00000000000063
0
ARC
5
287
100
AcDbEntity
8
0
100
AcDbCircle
10
-479.99999985098839
20
154.99999783933163
30
0
40
2.50000000000006
210
0
220
-0
230
1
100
AcDbArc
50
19.518970507597459
51
245.02840738096856
0
CIRCLE
5
288
100
AcDbEntity
8
0
100
AcDbCircle
10
-479.99999985098839
20
154.99999783933163
30
0
40
1.0000000149011612
210
0
220
0
230
1
0
LINE
5
289
100
AcDbEntity
8
0
100
AcDbLine
10
-445.67525869130037
20
238.64228687727902
30
0
11
-423.46991738527146
21
238.64228687727902
31
0
0
LINE
5
290
100
AcDbEntity
8
0
100
AcDbLine
10
-476.49999976158142
20
249.99999925494194
30
0
11
-503.50000023841858
21
249.99999925494194
31
0
0
LINE
5
291
100
AcDbEntity
8
0
100
AcDbLine
10
-412.00000227987772
20
363.00000540912151
30
0
11
-412.00000227987772
21
373.00000555813313
31
0
0
LINE
5
292
100
AcDbEntity
8
0
100
AcDbLine
10
-415.0000023245812
20
360
30
0
11
-415.0000023245812
21
366.50000535696745
31
0
0
CIRCLE
5
293
100
AcDbEntity
8
0
100
AcDbCircle
10
-506.00000023841858
20
249.99999925494194
30
0
40
1.0000000000000009
210
0
220
0
230
1
0
ARC
5
294
100
AcDbEntity
8
0
100
AcDbCircle
10
-418
20
331
30
0
40
21.000000000000014
210
0
220
-0
230
1
100
AcDbArc
50
90
51
180
0
LINE
5
295
100
AcDbEntity
8
0
100
AcDbLine
10
-418.00000227987766
20
363.00000540912151
30
0
11
-418.00000227987766
21
373.00000555813313
31
0
0
ARC
5
296
100
AcDbEntity
8
0
100
AcDbCircle
10
-452
20
250
30
0
40
13.000000000000009
210
-0
220
0
230
1
100
AcDbArc
50
-60.887987538017271
51
0
0
LINE
5
297
100
AcDbEntity
8
0
100
AcDbLine
10
-476.49999976158142
20
249.99999925494194
30
0
11
-503.50000023841858
21
249.99999925494194
31
0
0
CIRCLE
5
298
100
AcDbEntity
8
0
100
AcDbCircle
10
-428.00000014901161
20
342.00000216066837
30
0
40
1.4999999999999793
210
0
220
0
230
1
0
CIRCLE
5
299
100
AcDbEntity
8
0
100
AcDbCircle
10
-473.99999976158142
20
249.99999925494194
30
0
40
0.99999999999999933
210
0
220
0
230
1
0
ARC
5
300
100
AcDbEntity
8
0
100
AcDbCircle
10
-418
20
197.00000000000003
30
0
40
50.000000000000007
210
0
220
0
230
1
100
AcDbArc
50
121.75329301644624
51
123.60781647026319
0
LINE
5
301
100
AcDbEntity
8
0
100
AcDbLine
10
-485.00000295415521
20
400.49998560920369
30
0
11
-485.00000295415521
21
389.49999457225215
31
0
0
CIRCLE
5
302
100
AcDbEntity
8
0
100
AcDbCircle
10
-407.99999985098839
20
342.00000216066837
30
0
40
1.4999999999999858
210
0
220
0
230
1
0
LINE
5
303
100
AcDbEntity
8
0
100
AcDbLine
10
-421.00000232458115
20
360
30
0
11
-421.00000232458115
21
366.50000535696745
31
0
0
ARC
5
304
100
AcDbEntity
8
0
100
AcDbCircle
10
-473.99999976158142
20
249.99999925494194
30
0
40
2.5
210
0
220
0
230
1
100
AcDbArc
50
180
51
270
0
ARC
5
305
100
AcDbEntity
8
0
100
AcDbCircle
10
-418
20
331
30
0
40
21.000000000000014
210
0
220
-0
230
1
100
AcDbArc
50
90
51
180
0
ARC
5
306
100
AcDbEntity
8
0
100
AcDbCircle
10
-452
20
250
30
0
40
13.000000000000009
210
-0
220
0
230
1
100
AcDbArc
50
-60.887987538017271
51
0
0
LINE
5
307
100
AcDbEntity
8
0
100
AcDbLine
10
-485.00000295415521
20
400.49998560920369
30
0
11
-485.00000295415521
21
389.49999457225215
31
0
0
CIRCLE
5
308
100
AcDbEntity
8
0
100
AcDbCircle
10
-506.00000023841858
20
249.99999925494194
30
0
40
1.0000000000000009
210
0
220
0
230
1
0
CIRCLE
5
309
100
AcDbEntity
8
0
100
AcDbCircle
10
-485.00000295415521
20
386.99999457225215
30
0
40
1.0000000000000009
210
0
220
0
230
1
0
CIRCLE
5
310
100
AcDbEntity
8
0
100
AcDbCircle
10
-473.99999976158142
20
249.99999925494194
30
0
40
0.99999999999999933
210
0
220
0
230
1
0
ARC
5
311
100
AcDbEntity
8
0
100
AcDbCircle
10
-418
20
331
30
0
40
21.000000000000014
210
0
220
-0
230
1
100
AcDbArc
50
90
51
180
0
CIRCLE
5
312
100
AcDbEntity
8
0
100
AcDbCircle
10
-506.00000023841858
20
249.99999925494194
30
0
40
1.0000000000000009
210
0
220
0
230
1
0
LINE
5
313
100
AcDbEntity
8
0
100
AcDbLine
10
-485.00000295415521
20
400.49998560920369
30
0
11
-485.00000295415521
21
389.49999457225215
31
0
0
ARC
5
314
100
AcDbEntity
8
0
100
AcDbCircle
10
-482.00000369921338
20
368.99999481067078
30
0
40
13.000000000000043
210
0
220
-0
230
1
100
AcDbArc
50
90
51
150.88798753801743
0
ARC
5
315
100
AcDbEntity
8
0
100
AcDbCircle
10
-418
20
331
30
0
40
21.000000000000014
210
0
220
-0
230
1
100
AcDbArc
50
90
51
180
0
ARC
5
316
100
AcDbEntity
8
0
100
AcDbCircle
10
-485.00000295415521
20
386.99999457225215
30
0
40
2.5
210
-0
220
0
230
1
100
AcDbArc
50
0
51
90
0
LINE
5
317
100
AcDbEntity
8
0
100
AcDbLine
10
-475.0000023245812
20
360
30
0
11
-475.0000023245812
21
366.50000535696745
31
0
0
LINE
5
318
100
AcDbEntity
8
0
100
AcDbLine
10
-430.00000227987766
20
363.00000540912151
30
0
11
-430.00000227987766
21
373.00000555813313
31
0
0
ARC
5
319
100
AcDbEntity
8
0
100
AcDbCircle
10
-482.00000369921338
20
368.99999481067078
30
0
40
13.000000000000043
210
0
220
-0
230
1
100
AcDbArc
50
90
51
150.88798753801743
0
ARC
5
320
100
AcDbEntity
8
0
100
AcDbCircle
10
-485.00000295415521
20
386.99999457225215
30
0
40
2.5
210
-0
220
0
230
1
100
AcDbArc
50
0
51
90
0
LINE
5
321
100
AcDbEntity
8
0
100
AcDbLine
10
-469.0000023245812
20
360
30
0
11
-469.0000023245812
21
366.50000535696745
31
0
0
LINE
5
322
100
AcDbEntity
8
0
100
AcDbLine
10
-445.0000023245812
20
376
30
0
11
-445.0000023245812
21
369.50000561028719
31
0
0
ARC
5
323
100
AcDbEntity
8
0
100
AcDbCircle
10
-485.00000295415521
20
386.99999457225215
30
0
40
2.5
210
-0
220
0
230
1
100
AcDbArc
50
0
51
90
0
LINE
5
324
100
AcDbEntity
8
0
100
AcDbLine
10
-427.00000232458126
20
376
30
0
11
-427.00000232458115
21
369.50000561028719
31
0
0
LINE
5
325
100
AcDbEntity
8
0
100
AcDbLine
10
-481.00000232458115
20
360
30
0
11
-481.00000232458115
21
366.50000535696745
31
0
0
ARC
5
326
100
AcDbEntity
8
0
100
AcDbCircle
10
-482.00000369921338
20
368.99999481067078
30
0
40
13.000000000000043
210
0
220
-0
230
1
100
AcDbArc
50
90
51
150.88798753801743
0
LINE
5
327
100
AcDbEntity
8
0
100
AcDbLine
10
-421.0000023245812
20
376
30
0
11
-421.00000232458115
21
369.50000561028719
31
0
0
LINE
5
328
100
AcDbEntity
8
0
100
AcDbLine
10
-478.00000227987766
20
363.00000540912151
30
0
11
-478.00000227987766
21
373.00000555813313
31
0
0
LINE
5
329
100
AcDbEntity
8
0
100
AcDbLine
10
-451.00000232458115
20
360
30
0
11
-451.00000232458115
21
366.50000535696745
31
0
0
LINE
5
330
100
AcDbEntity
8
0
100
AcDbLine
10
-415.0000023245812
20
376
30
0
11
-415.0000023245812
21
369.50000561028719
31
0
0
LINE
5
331
100
AcDbEntity
8
0
100
AcDbLine
10
-475.0000023245812
20
376
30
0
11
-475.0000023245812
21
369.50000561028719
31
0
0
LINE
5
332
100
AcDbEntity
8
0
100
AcDbLine
10
-442.00000227987772
20
363.00000540912151
30
0
11
-442.00000227987772
21
373.00000555813313
31
0
0
LINE
5
333
100
AcDbEntity
8
0
100
AcDbLine
10
-457.00000232458126
20
376
30
0
11
-457.00000232458115
21
369.50000561028719
31
0
0
CIRCLE
5
334
100
AcDbEntity
8
0
100
AcDbCircle
10
-200
20
300
30
0
40
35.000000000000007
210
0
220
0
230
1
0
LINE
5
335
100
AcDbEntity
8
0
100
AcDbLine
10
-469.00000232458126
20
376
30
0
11
-469.0000023245812
21
369.50000561028719
31
0
0
LINE
5
336
100
AcDbEntity
8
0
100
AcDbLine
10
-463.00000232458115
20
376
30
0
11
-463.00000232458115
21
369.50000561028719
31
0
0
LINE
5
337
100
AcDbEntity
8
0
100
AcDbLine
10
-451.0000023245812
20
376
30
0
11
-451.00000232458115
21
369.50000561028719
31
0
0
LINE
5
338
100
AcDbEntity
8
0
100
AcDbLine
10
-424.00000227987766
20
363.00000540912151
30
0
11
-424.00000227987766
21
373.00000555813313
31
0
0
LINE
5
339
100
AcDbEntity
8
0
100
AcDbLine
10
-463.00000232458115
20
360
30
0
11
-463.00000232458115
21
366.50000535696745
31
0
0
CIRCLE
5
340
100
AcDbEntity
8
0
100
AcDbCircle
10
-485.00000295415521
20
386.99999457225215
30
0
40
1.0000000000000009
210
0
220
0
230
1
0
LINE
5
341
100
AcDbEntity
8
0
100
AcDbLine
10
-433.00000232458115
20
376
30
0
11
-433.00000232458115
21
369.50000561028719
31
0
0
LINE
5
342
100
AcDbEntity
8
0
100
AcDbLine
10
-466.00000227987772
20
363.00000540912151
30
0
11
-466.00000227987772
21
373.00000555813313
31
0
0
LINE
5
343
100
AcDbEntity
8
0
100
AcDbLine
10
-439.0000023245812
20
360
30
0
11
-439.0000023245812
21
366.50000535696745
31
0
0
LINE
5
344
100
AcDbEntity
8
0
100
AcDbLine
10
-439.00000232458126
20
376
30
0
11
-439.0000023245812
21
369.50000561028719
31
0
0
ARC
5
345
100
AcDbEntity
8
0
100
AcDbCircle
10
-482.00000369921338
20
368.99999481067078
30
0
40
13.000000000000043
210
0
220
-0
230
1
100
AcDbArc
50
90
51
150.88798753801743
0
LINE
5
346
100
AcDbEntity
8
0
100
AcDbLine
10
-406.00000227987772
20
363.00000540912151
30
0
11
-406.00000227987772
21
373.00000555813313
31
0
0
CIRCLE
5
347
100
AcDbEntity
8
0
100
AcDbCircle
10
-485.00000295415521
20
386.99999457225215
30
0
40
1.0000000000000009
210
0
220
0
230
1
0
LINE
5
348
100
AcDbEntity
8
0
100
AcDbLine
10
-409.00000232458126
20
376
30
0
11
-409.0000023245812
21
369.50000561028719
31
0
0
LINE
5
349
100
AcDbEntity
8
0
100
AcDbLine
10
-409.0000023245812
20
360
30
0
11
-409.0000023245812
21
366.50000535696745
31
0
0
CIRCLE
5
350
100
AcDbEntity
8
0
100
AcDbCircle
10
-485.00000295415521
20
386.99999457225215
30
0
40
1.0000000000000009
210
0
220
0
230
1
0
LINE
5
351
100
AcDbEntity
8
0
100
AcDbLine
10
-448.00000227987766
20
363.00000540912151
30
0
11
-448.00000227987766
21
373.00000555813313
31
0
0
LINE
5
352
100
AcDbEntity
8
0
100
AcDbLine
10
-481.0000023245812
20
376
30
0
11
-481.00000232458115
21
369.50000561028719
31
0
0
LINE
5
353
100
AcDbEntity
8
0
100
AcDbLine
10
-460.00000227987766
20
363.00000540912151
30
0
11
-460.00000227987766
21
373.00000555813313
31
0
0
ARC
5
354
100
AcDbEntity
8
0
100
AcDbCircle
10
-485.00000295415521
20
386.99999457225215
30
0
40
2.5
210
-0
220
0
230
1
100
AcDbArc
50
0
51
90
0
LINE
5
355
100
AcDbEntity
8
0
100
AcDbLine
10
-454.00000227987766
20
363.00000540912151
30
0
11
-454.00000227987766
21
373.00000555813313
31
0
0
LINE
5
356
100
AcDbEntity
8
0
100
AcDbLine
10
-433.00000232458115
20
360
30
0
11
-433.00000232458115
21
366.50000535696745
31
0
0
LINE
5
357
100
AcDbEntity
8
0
100
AcDbLine
10
-436.00000227987772
20
363.00000540912151
30
0
11
-436.00000227987772
21
373.00000555813313
31
0
0
LINE
5
358
100
AcDbEntity
8
0
100
AcDbLine
10
-472.00000227987772
20
363.00000540912151
30
0
11
-472.00000227987772
21
373.00000555813313
31
0
0
LINE
5
359
100
AcDbEntity
8
0
100
AcDbLine
10
-457.00000232458115
20
360
30
0
11
-457.00000232458115
21
366.50000535696745
31
0
0
LINE
5
360
100
AcDbEntity
8
0
100
AcDbLine
10
-445.0000023245812
20
360
30
0
11
-445.0000023245812
21
366.50000535696745
31
0
0
ARC
5
361
100
AcDbEntity
8
0
100
AcDbCircle
10
-490.00000023841864
20
165.99999776482582
30
0
40
15.999999999999943
210
0
220
0
230
1
100
AcDbArc
50
180
51
219.44178661720633
0
ARC
5
362
100
AcDbEntity
8
0
100
AcDbCircle
10
-490.00000023841864
20
165.99999776482582
30
0
40
15.999999999999943
210
0
220
0
230
1
100
AcDbArc
50
180
51
219.44178661720633
0
ARC
5
363
100
AcDbEntity
8
0
100
AcDbCircle
10
-455.99999999999994
20
247
30
0
40
13.000000000000009
210
0
220
0
230
1
100
AcDbArc
50
119.1120124619828
51
180
0
ARC
5
364
100
AcDbEntity
8
0
100
AcDbCircle
10
-452
20
250
30
0
40
13.000000000000009
210
-0
220
0
230
1
100
AcDbArc
50
-60.887987538017271
51
0
0
CIRCLE
5
365
100
AcDbEntity
8
0
100
AcDbCircle
10
-485.00000295415521
20
418.99999504908931
30
0
40
0.99999999999999933
210
0
220
0
230
1
0
ARC
5
366
100
AcDbEntity
8
0
100
AcDbCircle
10
-482.00000369921338
20
436.99999481067084
30
0
40
12.999999999999883
210
0
220
0
230
1
100
AcDbArc
50
209.11201246198326
51
270
0
LINE
5
367
100
AcDbEntity
8
0
100
AcDbLine
10
-485.00000295415521
20
416.49999504908931
30
0
11
-485.00000295415521
21
405.4999856837095
31
0
0
ARC
5
368
100
AcDbEntity
8
0
100
AcDbCircle
10
-485.00000295415521
20
418.99999504908931
30
0
40
2.5
210
0
220
0
230
1
100
AcDbArc
50
-90
51
0
0
LINE
5
369
100
AcDbEntity
8
0
100
AcDbLine
10
-485.00000295415521
20
400.49998560920369
30
0
11
-490.06950232216911
21
400.49998560920369
31
0
0
LINE
5
370
100
AcDbEntity
8
0
100
AcDbLine
10
-485.00000295415521
20
416.49999504908931
30
0
11
-485.00000295415521
21
405.4999856837095
31
0
0
CIRCLE
5
371
100
AcDbEntity
8
0
100
AcDbCircle
10
-485.00000295415521
20
418.99999504908931
30
0
40
0.99999999999999933
210
0
220
0
230
1
0
ARC
5
372
100
AcDbEntity
8
0
100
AcDbCircle
10
-485.00000295415521
20
418.99999504908931
30
0
40
2.5
210
0
220
0
230
1
100
AcDbArc
50
-90
51
0
0
LINE
5
373
100
AcDbEntity
8
0
100
AcDbLine
10
-438.99999999999989
20
331
30
0
11
-439.00000000000006
21
250
31
0
0
ARC
5
374
100
AcDbEntity
8
0
100
AcDbCircle
10
-489.99999976158136
20
165.99999776482582
30
0
40
16.000000000000014
210
0
220
0
230
1
100
AcDbArc
50
270
51
303.98916450577025
0
ARC
5
375
100
AcDbEntity
8
0
100
AcDbCircle
10
-418
20
197.00000000000003
30
0
40
50.000000000000007
210
0
220
0
230
1
100
AcDbArc
50
121.75329301644624
51
123.60781647026319
0
LINE
5
376
100
AcDbEntity
8
0
100
AcDbLine
10
-476.49999976158142
20
249.99999925494194
30
0
11
-503.50000023841858
21
249.99999925494194
31
0
0
CIRCLE
5
377
100
AcDbEntity
8
0
100
AcDbCircle
10
-473.99999976158142
20
249.99999925494194
30
0
40
0.99999999999999933
210
0
220
0
230
1
0
CIRCLE
5
378
100
AcDbEntity
8
0
100
AcDbCircle
10
-434.00000023841858
20
247.00000074505809
30
0
40
1.4999999999999933
210
0
220
0
230
1
0
ARC
5
379
100
AcDbEntity
8
0
100
AcDbCircle
10
-482.00000369921338
20
436.99999481067084
30
0
40
12.999999999999883
210
0
220
0
230
1
100
AcDbArc
50
209.11201246198326
51
270
0
CIRCLE
5
380
100
AcDbEntity
8
0
100
AcDbCircle
10
-473.99999976158142
20
249.99999925494194
30
0
40
0.99999999999999933
210
0
220
0
230
1
0
CIRCLE
5
381
100
AcDbEntity
8
0
100
AcDbCircle
10
-485.00000295415521
20
418.99999504908931
30
0
40
0.99999999999999933
210
0
220
0
230
1
0
CIRCLE
5
382
100
AcDbEntity
8
0
100
AcDbCircle
10
-485.00000295415521
20
418.99999504908931
30
0
40
0.99999999999999933
210
0
220
0
230
1
0
ARC
5
383
100
AcDbEntity
8
0
100
AcDbCircle
10
-482.00000369921338
20
436.99999481067084
30
0
40
12.999999999999883
210
0
220
0
230
1
100
AcDbArc
50
209.11201246198326
51
270
0
LINE
5
384
100
AcDbEntity
8
0
100
AcDbLine
10
-490.06950130234799
20
405.4999856837095
30
0
11
-485.00000295415521
21
405.4999856837095
31
0
0
LINE
5
385
100
AcDbEntity
8
0
100
AcDbLine
10
-235.00000369921324
20
423.99999481067061
30
0
11
-316.00000369921332
21
423.99999481067061
31
0
0
ARC
5
386
100
AcDbEntity
8
0
100
AcDbCircle
10
-485.00000295415521
20
418.99999504908931
30
0
40
2.5
210
0
220
0
230
1
100
AcDbArc
50
-90
51
0
0
LINE
5
387
100
AcDbEntity
8
0
100
AcDbLine
10
-316.0000059343875
20
386.99999457225209
30
0
11
-234.50000444427133
21
386.99999457225209
31
0
0
LINE
5
388
100
AcDbEntity
8
0
100
AcDbLine
10
-316.0000059343875
20
386.99999457225209
30
0
11
-234.50000444427133
21
386.99999457225209
31
0
0
LINE
5
389
100
AcDbEntity
8
0
100
AcDbLine
10
-485.00000295415521
20
416.49999504908931
30
0
11
-485.00000295415521
21
405.4999856837095
31
0
0
LINE
5
390
100
AcDbEntity
8
0
100
AcDbLine
10
-485.00000295415521
20
416.49999504908931
30
0
11
-485.00000295415521
21
405.4999856837095
31
0
0
ARC
5
391
100
AcDbEntity
8
0
100
AcDbCircle
10
-485.00000295415521
20
418.99999504908931
30
0
40
2.5
210
0
220
0
230
1
100
AcDbArc
50
-90
51
0
0
LINE
5
392
100
AcDbEntity
8
0
100
AcDbLine
10
-316.00000369921332
20
381.99999481067061
30
0
11
-235.00000369921324
21
381.99999481067061
31
0
0
ARC
5
393
100
AcDbEntity
8
0
100
AcDbCircle
10
-482.00000369921338
20
436.99999481067084
30
0
40
12.999999999999883
210
0
220
0
230
1
100
AcDbArc
50
209.11201246198326
51
270
0
LINE
5
394
100
AcDbEntity
8
0
100
AcDbLine
10
-234.50000444427133
20
418.99999504908925
30
0
11
-316.0000059343875
21
418.99999504908925
31
0
0
LINE
5
395
100
AcDbEntity
8
0
100
AcDbLine
10
-316.00000369921332
20
381.99999481067061
30
0
11
-235.00000369921324
21
381.99999481067061
31
0
0
CIRCLE
5
396
100
AcDbEntity
8
0
100
AcDbCircle
10
-345
20
300
30
0
40
45
210
0
220
0
230
1
0
LINE
5
397
100
AcDbEntity
8
0
100
AcDbLine
10
-234.50000444427133
20
418.99999504908925
30
0
11
-316.0000059343875
21
418.99999504908925
31
0
0
CIRCLE
5
398
100
AcDbEntity
8
0
100
AcDbCircle
10
-273.00163705936819
20
196.99884036080118
30
0
40
38.000000566244125
210
0
220
0
230
1
0
LINE
5
399
100
AcDbEntity
8
0
100
AcDbLine
10
-316.00000369921332
20
381.99999481067061
30
0
11
-235.00000369921324
21
381.99999481067061
31
0
0
LINE
5
400
100
AcDbEntity
8
0
100
AcDbLine
10
-234.50000444427133
20
418.99999504908925
30
0
11
-316.0000059343875
21
418.99999504908925
31
0
0
LWPOLYLINE
5
401
100
AcDbEntity
8
0
100
AcDbPolyline
90
2
70
1
43
0.0
10
-299.31502991418483
20
239.51478274090266
42
3.5159655448947627
10
-246.68874737351953
20
239.51509415132642
42
-3.5159655448947627
0
LINE
5
402
100
AcDbEntity
8
0
100
AcDbLine
10
-316.00000369921332
20
381.99999481067061
30
0
11
-235.00000369921324
21
381.99999481067061
31
0
0
LINE
5
403
100
AcDbEntity
8
0
100
AcDbLine
10
-316.00000369921332
20
381.99999481067061
30
0
11
-235.00000369921324
21
381.99999481067061
31
0
0
LWPOLYLINE
5
404
100
AcDbEntity
8
0
100
AcDbPolyline
90
2
70
1
43
0.0
10
-318.68686020454192
20
257.48390100085993
42
3.5159657767298991
10
-371.31313979545803
20
257.48390100085987
42
-3.5159657767298991
0
LINE
5
405
100
AcDbEntity
8
0
100
AcDbLine
10
-316.0000059343875
20
386.99999457225209
30
0
11
-234.50000444427133
21
386.99999457225209
31
0
0
CIRCLE
5
406
100
AcDbEntity
8
0
100
AcDbCircle
10
-273.00163705936848
20
196.99884036080118
30
0
40
35.000000521540642
210
0
220
0
230
1
0
CIRCLE
5
407
100
AcDbEntity
8
0
100
AcDbCircle
10
-273.00163705936848
20
196.99884036080118
30
0
40
38.000000566244125
210
0
220
0
230
1
0
LINE
5
408
100
AcDbEntity
8
0
100
AcDbLine
10
-234.50000444427133
20
418.99999504908925
30
0
11
-316.0000059343875
21
418.99999504908925
31
0
0
LINE
5
409
100
AcDbEntity
8
0
100
AcDbLine
10
-234.50000444427133
20
418.99999504908925
30
0
11
-316.0000059343875
21
418.99999504908925
31
0
0
LINE
5
410
100
AcDbEntity
8
0
100
AcDbLine
10
-235.00000369921324
20
423.99999481067061
30
0
11
-316.00000369921332
21
423.99999481067061
31
0
0
CIRCLE
5
411
100
AcDbEntity
8
0
100
AcDbCircle
10
-345
20
300
30
0
40
45
210
0
220
0
230
1
0
LINE
5
412
100
AcDbEntity
8
0
100
AcDbLine
10
-235.00000369921324
20
423.99999481067061
30
0
11
-316.00000369921332
21
423.99999481067061
31
0
0
LINE
5
413
100
AcDbEntity
8
0
100
AcDbLine
10
-235.00000369921324
20
423.99999481067061
30
0
11
-316.00000369921332
21
423.99999481067061
31
0
0
LINE
5
414
100
AcDbEntity
8
0
100
AcDbLine
10
-234.50000444427133
20
418.99999504908925
30
0
11
-316.0000059343875
21
418.99999504908925
31
0
0
LINE
5
415
100
AcDbEntity
8
0
100
AcDbLine
10
-316.00000369921332
20
381.99999481067061
30
0
11
-235.00000369921324
21
381.99999481067061
31
0
0
LINE
5
416
100
AcDbEntity
8
0
100
AcDbLine
10
-235.00000369921324
20
423.99999481067061
30
0
11
-316.00000369921332
21
423.99999481067061
31
0
0
CIRCLE
5
417
100
AcDbEntity
8
0
100
AcDbCircle
10
-345
20
300
30
0
40
45
210
0
220
0
230
1
0
LINE
5
418
100
AcDbEntity
8
0
100
AcDbLine
10
-235.00000369921324
20
423.99999481067061
30
0
11
-316.00000369921332
21
423.99999481067061
31
0
0
LINE
5
419
100
AcDbEntity
8
0
100
AcDbLine
10
-316.0000059343875
20
386.99999457225209
30
0
11
-234.50000444427133
21
386.99999457225209
31
0
0
CIRCLE
5
420
100
AcDbEntity
8
0
100
AcDbCircle
10
-273.00163705936819
20
196.99884036080118
30
0
40
35.000000521540642
210
0
220
0
230
1
0
LINE
5
421
100
AcDbEntity
8
0
100
AcDbLine
10
-316.0000059343875
20
386.99999457225209
30
0
11
-234.50000444427133
21
386.99999457225209
31
0
0
LINE
5
422
100
AcDbEntity
8
0
100
AcDbLine
10
-316.00000369921332
20
381.99999481067061
30
0
11
-235.00000369921324
21
381.99999481067061
31
0
0
LINE
5
423
100
AcDbEntity
8
0
100
AcDbLine
10
-316.00000369921332
20
381.99999481067061
30
0
11
-235.00000369921324
21
381.99999481067061
31
0
0
LINE
5
424
100
AcDbEntity
8
0
100
AcDbLine
10
-235.00000369921324
20
423.99999481067061
30
0
11
-316.00000369921332
21
423.99999481067061
31
0
0
LINE
5
425
100
AcDbEntity
8
0
100
AcDbLine
10
-235.00000369921324
20
423.99999481067061
30
0
11
-316.00000369921332
21
423.99999481067061
31
0
0
LINE
5
426
100
AcDbEntity
8
0
100
AcDbLine
10
-316.0000059343875
20
386.99999457225209
30
0
11
-234.50000444427133
21
386.99999457225209
31
0
0
LINE
5
427
100
AcDbEntity
8
0
100
AcDbLine
10
-316.0000059343875
20
386.99999457225209
30
0
11
-234.50000444427133
21
386.99999457225209
31
0
0
CIRCLE
5
428
100
AcDbEntity
8
0
100
AcDbCircle
10
-273.00163705936848
20
196.99884036080118
30
0
40
42.00000062584877
210
0
220
0
230
1
0
LINE
5
429
100
AcDbEntity
8
0
100
AcDbLine
10
-316.0000059343875
20
386.99999457225209
30
0
11
-234.50000444427133
21
386.99999457225209
31
0
0
LWPOLYLINE
5
430
100
AcDbEntity
8
0
100
AcDbPolyline
90
2
70
1
43
0.0
10
-318.68686020454192
20
257.48390100085993
42
3.5159657767298991
10
-371.31313979545803
20
257.48390100085987
42
-3.5159657767298991
0
LINE
5
431
100
AcDbEntity
8
0
100
AcDbLine
10
-234.50000444427133
20
418.99999504908925
30
0
11
-316.0000059343875
21
418.99999504908925
31
0
0
CIRCLE
5
432
100
AcDbEntity
8
0
100
AcDbCircle
10
-345
20
300
30
0
40
45
210
0
220
0
230
1
0
LINE
5
433
100
AcDbEntity
8
0
100
AcDbLine
10
-234.50000444427133
20
418.99999504908925
30
0
11
-316.0000059343875
21
418.99999504908925
31
0
0
LINE
5
434
100
AcDbEntity
8
0
100
AcDbLine
10
-221
20
247.00000000000003
30
0
11
-221
21
166
31
0
0
LINE
5
435
100
AcDbEntity
8
0
100
AcDbLine
10
-221
20
247.00000000000003
30
0
11
-221
21
166
31
0
0
LINE
5
436
100
AcDbEntity
8
0
100
AcDbLine
10
-221
20
247.00000000000003
30
0
11
-221
21
166
31
0
0
LINE
5
437
100
AcDbEntity
8
0
100
AcDbLine
10
-221
20
247.00000000000003
30
0
11
-221
21
166
31
0
0
LINE
5
438
100
AcDbEntity
8
0
100
AcDbLine
10
-365.99999999999994
20
247.00000000000003
30
0
11
-365.99999999999994
21
166
31
0
0
LINE
5
439
100
AcDbEntity
8
0
100
AcDbLine
10
-361.00000023841858
20
247.49999925494194
30
0
11
-361.00000023841858
21
165.99999776482582
31
0
0
LINE
5
440
100
AcDbEntity
8
0
100
AcDbLine
10
-361.00000023841858
20
247.49999925494194
30
0
11
-361.00000023841858
21
165.99999776482582
31
0
0
ARC
5
441
100
AcDbEntity
8
0
100
AcDbCircle
10
-273.00279436686162
20
330.99846295780588
30
0
40
21.000000000000007
210
-0
220
0
230
1
100
AcDbArc
50
0.00056484402344404564
51
90.000377972101887
0
LINE
5
442
100
AcDbEntity
8
0
100
AcDbLine
10
-365.99999999999994
20
247.00000000000003
30
0
11
-365.99999999999994
21
166
31
0
0
LWPOLYLINE
5
443
100
AcDbEntity
8
0
100
AcDbPolyline
90
12
70
1
43
0.0
10
-257.00648177492468
20
330.98454004239852
42
0.17381646381010998
10
-260.65051270638304
20
341.14910198103991
42
-1.5038313023095748
10
-264.06237154896201
20
344.25057225008965
42
0.14940236042932462
10
-273.00702645854187
20
346.98396406648533
10
-273.00733867730054
20
346.98425507256218
42
0.14940270792393984
10
-281.95182581319494
20
344.25024312835819
42
-1.5038311113419416
10
-285.36346976778509
20
341.14853614557535
42
0.17381658333039582
10
-289.00679583496719
20
330.98371411332687
10
-289.00403570928
20
249.49838779809875
42
-0.41421361770431803
10
-286.50401209619605
20
246.99841093911928
10
-259.50381291052571
20
246.99854053174226
42
-0.41421348185786183
10
-257.00383709465166
20
249.49856402840086
0
LINE
5
444
100
AcDbEntity
8
0
100
AcDbLine
10
-365.99999999999994
20
247.00000000000003
30
0
11
-365.99999999999994
21
166
31
0
0
ARC
5
445
100
AcDbEntity
8
0
100
AcDbCircle
10
-273.0028033819371
20
330.99841409686962
30
0
40
20.999999999999972
210
-0
220
0
230
1
100
AcDbArc
50
0.00060393186245076623
51
90.000382966275183
0
LINE
5
446
100
AcDbEntity
8
0
100
AcDbLine
10
-328.99999976158142
20
165.99999776482582
30
0
11
-328.99999976158142
21
247.49999925494194
31
0
0
LINE
5
447
100
AcDbEntity
8
0
100
AcDbLine
10
-323.99999999999989
20
166
30
0
11
-323.99999999999989
21
247.00000000000003
31
0
0
ARC
5
448
100
AcDbEntity
8
0
100
AcDbCircle
10
-273.0027852644846
20
330.99846195723887
30
0
40
20.999999999999915
210
0
220
0
230
1
100
AcDbArc
50
90.000377257413476
51
180.00058847490484
0
LINE
5
449
100
AcDbEntity
8
0
100
AcDbLine
10
-365.99999999999994
20
247.00000000000003
30
0
11
-365.99999999999994
21
166
31
0
0
LINE
5
450
100
AcDbEntity
8
0
100
AcDbLine
10
-328.99999976158142
20
165.99999776482582
30
0
11
-328.99999976158142
21
247.49999925494194
31
0
0
LINE
5
451
100
AcDbEntity
8
0
100
AcDbLine
10
-323.99999999999989
20
166
30
0
11
-323.99999999999989
21
247.00000000000003
31
0
0
ARC
5
452
100
AcDbEntity
8
0
100
AcDbCircle
10
-273.00281914408492
20
330.99848356075705
30
0
40
20.999999999999858
210
0
220
0
230
1
100
AcDbArc
50
90.000378380235858
51
180.00055927648137
0
LINE
5
453
100
AcDbEntity
8
0
100
AcDbLine
10
-323.99999999999989
20
166
30
0
11
-323.99999999999989
21
247.00000000000003
31
0
0
ARC
5
454
100
AcDbEntity
8
0
100
AcDbCircle
10
-234
20
247.00000000000003
30
0
40
12.999999999999972
210
0
220
0
230
1
100
AcDbArc
50
0
51
60.887987538017377
0
LINE
5
455
100
AcDbEntity
8
0
100
AcDbLine
10
-323.99999999999989
20
166
30
0
11
-323.99999999999989
21
247.00000000000003
31
0
0
LINE
5
456
100
AcDbEntity
8
0
100
AcDbLine
10
-328.99999976158142
20
165.99999776482582
30
0
11
-328.99999976158142
21
247.49999925494194
31
0
0
LINE
5
457
100
AcDbEntity
8
0
100
AcDbLine
10
-361.00000023841858
20
247.49999925494194
30
0
11
-361.00000023841858
21
165.99999776482582
31
0
0
LINE
5
458
100
AcDbEntity
8
0
100
AcDbLine
10
-252.00199584067389
20
249.99894311889619
30
0
11
-252.00279436788207
21
330.99866998407657
31
0
0
LWPOLYLINE
5
459
100
AcDbEntity
8
0
100
AcDbPolyline
90
12
70
1
43
0.0
10
-257.0064809847367
20
330.9845409523017
42
0.17381646382737448
10
-260.65051188834991
20
341.14910290199794
42
-1.5038313023192493
10
-264.06237072242328
20
344.2505731803879
42
0.1494023603186608
10
-273.00702561758538
20
346.98396502129333
10
-273.00733604852769
20
346.98425436102298
42
0.14940270775794037
10
-281.95182318255672
20
344.2502424447149
42
-1.5038311112546485
10
-285.36346714688642
20
341.14853547249112
42
0.17381662875171922
10
-289.00679324560724
20
330.98371062986644
10
-289.00404220397513
20
249.49838665472726
42
-0.41421361778207744
10
-286.50401855989452
20
246.99840982608237
10
-259.50381254545084
20
246.99853955220982
42
-0.41421348189783624
10
-257.0038367327341
20
249.4985630523669
0
LINE
5
460
100
AcDbEntity
8
0
100
AcDbLine
10
-328.99999976158142
20
165.99999776482582
30
0
11
-328.99999976158142
21
247.49999925494194
31
0
0
LINE
5
461
100
AcDbEntity
8
0
100
AcDbLine
10
-294.00281914308476
20
330.99827857498332
30
0
11
-294.0020284879302
21
249.99871477709277
31
0
0
ARC
5
462
100
AcDbEntity
8
0
100
AcDbCircle
10
-239.00199584130564
20
249.99907127801609
30
0
40
12.99999999999995
210
0
220
0
230
1
100
AcDbArc
50
180.00056484402342
51
240.88833995339851
0
LINE
5
463
100
AcDbEntity
8
0
100
AcDbLine
10
-361.00000023841858
20
247.49999925494194
30
0
11
-361.00000023841858
21
165.99999776482582
31
0
0
ARC
5
464
100
AcDbEntity
8
0
100
AcDbCircle
10
-345
20
165.99999999999997
30
0
40
20.999999999999943
210
0
220
0
230
1
100
AcDbArc
50
180
51
270
0
ARC
5
465
100
AcDbEntity
8
0
100
AcDbCircle
10
-234
20
247.00000000000003
30
0
40
12.999999999999972
210
0
220
0
230
1
100
AcDbArc
50
0
51
60.887987538017377
0
LINE
5
466
100
AcDbEntity
8
0
100
AcDbLine
10
-397
20
250
30
0
11
-396.99999999999994
21
331
31
0
0
CIRCLE
5
467
100
AcDbEntity
8
0
100
AcDbCircle
10
-289.00000023841847
20
247.000000745058
30
0
40
0.99999999999999933
210
0
220
0
230
1
0
ARC
5
468
100
AcDbEntity
8
0
100
AcDbCircle
10
-307.00195333128102
20
249.99863739363877
30
0
40
13.000000000000082
210
-0
220
0
230
1
100
AcDbArc
50
-60.887649115506264
51
0.00058847490483193113
0
CIRCLE
5
469
100
AcDbEntity
8
0
100
AcDbCircle
10
-257.003812545561
20
246.9985630524836
30
0
40
1.0000000000000009
210
0
220
0
230
1
0
ARC
5
470
100
AcDbEntity
8
0
100
AcDbCircle
10
-234
20
247.00000000000003
30
0
40
12.999999999999972
210
0
220
0
230
1
100
AcDbArc
50
0
51
60.887987538017377
0
ARC
5
471
100
AcDbEntity
8
0
100
AcDbCircle
10
-344.99999999999994
20
165.99999999999997
30
0
40
20.999999999999979
210
0
220
0
230
1
100
AcDbArc
50
-90.000000000000142
51
0
0
LINE
5
472
100
AcDbEntity
8
0
100
AcDbLine
10
-259.0000023245812
20
376
30
0
11
-259.00000232458115
21
369.50000561028719
31
0
0
CIRCLE
5
473
100
AcDbEntity
8
0
100
AcDbCircle
10
-263.00686936758632
20
341.98431649552219
30
0
40
1.0000000149011612
210
0
220
0
230
1
0
LINE
5
474
100
AcDbEntity
8
0
100
AcDbLine
10
-294.00278526337695
20
330.99824626992068
30
0
11
-294.00195333196672
21
249.99877091435951
31
0
0
LINE
5
475
100
AcDbEntity
8
0
100
AcDbLine
10
-259.00000232458115
20
360
30
0
11
-259.00000232458115
21
366.50000535696745
31
0
0
ARC
5
476
100
AcDbEntity
8
0
100
AcDbCircle
10
-344.99999976158136
20
165.99999776482582
30
0
40
16.000000000000014
210
0
220
0
230
1
100
AcDbArc
50
270
51
303.98916450577008
0
LINE
5
477
100
AcDbEntity
8
0
100
AcDbLine
10
-271.00000232458115
20
360
30
0
11
-271.00000232458115
21
366.50000535696745
31
0
0
LINE
5
478
100
AcDbEntity
8
0
100
AcDbLine
10
-247.0000023245812
20
376
30
0
11
-247.00000232458115
21
369.50000561028719
31
0
0
LINE
5
479
100
AcDbEntity
8
0
100
AcDbLine
10
-265.00000232458115
20
360
30
0
11
-265.00000232458115
21
366.50000535696745
31
0
0
CIRCLE
5
480
100
AcDbEntity
8
0
100
AcDbCircle
10
-257.00381291063587
20
246.99856402851759
30
0
40
1.0000000000000009
210
0
220
0
230
1
0
LINE
5
481
100
AcDbEntity
8
0
100
AcDbLine
10
-244.00000227987766
20
363.00000540912151
30
0
11
-244.00000227987766
21
373.00000555813313
31
0
0
LINE
5
482
100
AcDbEntity
8
0
100
AcDbLine
10
-271.0000023245812
20
376
30
0
11
-271.00000232458115
21
369.50000561028719
31
0
0
LINE
5
483
100
AcDbEntity
8
0
100
AcDbLine
10
-247.00000232458115
20
360
30
0
11
-247.00000232458115
21
366.50000535696745
31
0
0
CIRCLE
5
484
100
AcDbEntity
8
0
100
AcDbCircle
10
-289.00000023841847
20
247.000000745058
30
0
40
0.99999999999999933
210
0
220
0
230
1
0
LINE
5
485
100
AcDbEntity
8
0
100
AcDbLine
10
-280.00000227987766
20
363.00000540912151
30
0
11
-280.00000227987766
21
373.00000555813313
31
0
0
LINE
5
486
100
AcDbEntity
8
0
100
AcDbLine
10
-241.00000232458117
20
376
30
0
11
-241.00000232458115
21
369.50000561028719
31
0
0
ARC
5
487
100
AcDbEntity
8
0
100
AcDbCircle
10
-273.00163705936819
20
196.99884036080118
30
0
40
42.00000062584877
210
0
220
-0
230
1
100
AcDbArc
50
82.517042570911457
51
97.483496569017419
0
CIRCLE
5
488
100
AcDbEntity
8
0
100
AcDbCircle
10
-283.0071684980764
20
341.98391363692673
30
0
40
1.0000000149011612
210
0
220
0
230
1
0
LINE
5
489
100
AcDbEntity
8
0
100
AcDbLine
10
-277.0000023245812
20
376
30
0
11
-277.00000232458115
21
369.50000561028719
31
0
0
ARC
5
490
100
AcDbEntity
8
0
100
AcDbCircle
10
-234
20
247.00000000000003
30
0
40
12.999999999999972
210
0
220
0
230
1
100
AcDbArc
50
0
51
60.887987538017377
0
LINE
5
491
100
AcDbEntity
8
0
100
AcDbLine
10
-256.00000227987766
20
363.00000540912151
30
0
11
-256.00000227987766
21
373.00000555813313
31
0
0
ARC
5
492
100
AcDbEntity
8
0
100
AcDbCircle
10
-239.00194959818694
20
249.99904092537764
30
0
40
12.999999999999989
210
0
220
0
230
1
100
AcDbArc
50
180.00060393186243
51
240.88832216413311
0
LINE
5
493
100
AcDbEntity
8
0
100
AcDbLine
10
-274.00000227987766
20
363.00000540912151
30
0
11
-274.00000227987766
21
373.00000555813313
31
0
0
LINE
5
494
100
AcDbEntity
8
0
100
AcDbLine
10
-250.00000227987766
20
363.00000540912151
30
0
11
-250.00000227987766
21
373.00000555813313
31
0
0
CIRCLE
5
495
100
AcDbEntity
8
0
100
AcDbCircle
10
-283.00717112153279
20
341.98391431722564
30
0
40
1.0000000149011612
210
0
220
0
230
1
0
LINE
5
496
100
AcDbEntity
8
0
100
AcDbLine
10
-268.00000227987766
20
363.00000540912151
30
0
11
-268.00000227987766
21
373.00000555813313
31
0
0
LINE
5
497
100
AcDbEntity
8
0
100
AcDbLine
10
-253.00000232458115
20
360
30
0
11
-253.00000232458115
21
366.50000535696745
31
0
0
LINE
5
498
100
AcDbEntity
8
0
100
AcDbLine
10
-252.00194959746477
20
249.99890389759872
30
0
11
-252.00280338310375
21
330.9986354494356
31
0
0
LINE
5
499
100
AcDbEntity
8
0
100
AcDbLine
10
-265.0000023245812
20
376
30
0
11
-265.00000232458115
21
369.50000561028719
31
0
0
ARC
5
500
100
AcDbEntity
8
0
100
AcDbCircle
10
-235.00000369921324
20
436.99999481067067
30
0
40
13.000000000000043
210
-0
220
0
230
1
100
AcDbArc
50
270
51
330.88798753801774
0
LINE
5
501
100
AcDbEntity
8
0
100
AcDbLine
10
-238.00000227987766
20
363.00000540912151
30
0
11
-238.00000227987766
21
373.00000555813313
31
0
0
LINE
5
502
100
AcDbEntity
8
0
100
AcDbLine
10
-277.00000232458115
20
360
30
0
11
-277.00000232458115
21
366.50000535696745
31
0
0
CIRCLE
5
503
100
AcDbEntity
8
0
100
AcDbCircle
10
-263.00686854726996
20
341.98431742292223
30
0
40
1.0000000149011612
210
0
220
0
230
1
0
ARC
5
504
100
AcDbEntity
8
0
100
AcDbCircle
10
-334.99999985098839
20
154.99999783933163
30
0
40
2.50000000000006
210
0
220
-0
230
1
100
AcDbArc
50
19.518970507597459
51
245.02840738096742
0
ARC
5
505
100
AcDbEntity
8
0
100
AcDbCircle
10
-334.99999985098839
20
154.99999783933163
30
0
40
2.50000000000006
210
0
220
-0
230
1
100
AcDbArc
50
19.518970507597459
51
245.02840738096742
0
ARC
5
506
100
AcDbEntity
8
0
100
AcDbCircle
10
-344.99999976158136
20
165.99999776482582
30
0
40
16.000000000000057
210
0
220
0
230
1
100
AcDbArc
50
-39.441786617206006
51
0
0
LINE
5
507
100
AcDbEntity
8
0
100
AcDbLine
10
-262.00000227987766
20
363.00000540912151
30
0
11
-262.00000227987766
21
373.00000555813313
31
0
0
LINE
5
508
100
AcDbEntity
8
0
100
AcDbLine
10
-298.00000227987766
20
363.00000540912151
30
0
11
-298.00000227987766
21
373.00000555813313
31
0
0
CIRCLE
5
509
100
AcDbEntity
8
0
100
AcDbCircle
10
-334.99999985098839
20
154.99999783933163
30
0
40
1.0000000149011612
210
0
220
0
230
1
0
LINE
5
510
100
AcDbEntity
8
0
100
AcDbLine
10
-253.00000232458117
20
376
30
0
11
-253.00000232458115
21
369.50000561028719
31
0
0
ARC
5
511
100
AcDbEntity
8
0
100
AcDbCircle
10
-418
20
197.00000000000003
30
0
40
50
210
0
220
-0
230
1
100
AcDbArc
50
56.392183529736776
51
58.246706983551157
0
LINE
5
512
100
AcDbEntity
8
0
100
AcDbLine
10
-295.0000023245812
20
376
30
0
11
-295.00000232458115
21
369.50000561028719
31
0
0
ARC
5
513
100
AcDbEntity
8
0
100
AcDbCircle
10
-344.99999999999994
20
165.99999999999997
30
0
40
20.999999999999979
210
0
220
0
230
1
100
AcDbArc
50
-90.000000000000142
51
0
0
ARC
5
514
100
AcDbEntity
8
0
100
AcDbCircle
10
-344.99999976158136
20
165.99999776482582
30
0
40
16.000000000000057
210
0
220
0
230
1
100
AcDbArc
50
-39.441786617206006
51
0
0
LINE
5
515
100
AcDbEntity
8
0
100
AcDbLine
10
-283.00000232458115
20
360
30
0
11
-283.00000232458115
21
366.50000535696745
31
0
0
ARC
5
516
100
AcDbEntity
8
0
100
AcDbCircle
10
-418
20
197.00000000000003
30
0
40
50
210
0
220
-0
230
1
100
AcDbArc
50
56.392183529736776
51
58.246706983551157
0
ARC
5
517
100
AcDbEntity
8
0
100
AcDbCircle
10
-345.00000023841858
20
165.99999776482582
30
0
40
16.000000000000053
210
0
220
0
230
1
100
AcDbArc
50
236.01083549423009
51
270.0000000000004
0
CIRCLE
5
518
100
AcDbEntity
8
0
100
AcDbCircle
10
-334.99999985098839
20
154.99999783933163
30
0
40
1.0000000149011612
210
0
220
0
230
1
0
LINE
5
519
100
AcDbEntity
8
0
100
AcDbLine
10
-241.00000232458115
20
360
30
0
11
-241.00000232458115
21
366.50000535696745
31
0
0
ARC
5
520
100
AcDbEntity
8
0
100
AcDbCircle
10
-344.99999999999994
20
165.99999999999997
30
0
40
20.999999999999979
210
0
220
0
230
1
100
AcDbArc
50
-90.000000000000142
51
0
0
LINE
5
521
100
AcDbEntity
8
0
100
AcDbLine
10
-292.00000227987766
20
363.00000540912151
30
0
11
-292.00000227987766
21
373.00000555813313
31
0
0
ARC
5
522
100
AcDbEntity
8
0
100
AcDbCircle
10
-361.00000023841858
20
249.99999925494194
30
0
40
2.5
210
0
220
0
230
1
100
AcDbArc
50
-90
51
0
0
LINE
5
523
100
AcDbEntity
8
0
100
AcDbLine
10
-289.0000023245812
20
376
30
0
11
-289.00000232458115
21
369.50000561028719
31
0
0
CIRCLE
5
524
100
AcDbEntity
8
0
100
AcDbCircle
10
-334.99999985098839
20
154.99999783933163
30
0
40
1.0000000149011612
210
0
220
0
230
1
0
LINE
5
525
100
AcDbEntity
8
0
100
AcDbLine
10
-283.00000232458115
20
376
30
0
11
-283.00000232458115
21
369.50000561028719
31
0
0
CIRCLE
5
526
100
AcDbEntity
8
0
100
AcDbCircle
10
-328.99999976158142
20
249.99999925494194
30
0
40
0.99999999999999933
210
0
220
0
230
1
0
ARC
5
527
100
AcDbEntity
8
0
100
AcDbCircle
10
-344.99999976158136
20
165.99999776482582
30
0
40
16.000000000000014
210
0
220
0
230
1
100
AcDbArc
50
270
51
303.98916450577008
0
ARC
5
528
100
AcDbEntity
8
0
100
AcDbCircle
10
-334.99999985098839
20
154.99999783933163
30
0
40
2.50000000000006
210
0
220
-0
230
1
100
AcDbArc
50
19.518970507597459
51
245.02840738096742
0
LINE
5
529
100
AcDbEntity
8
0
100
AcDbLine
10
-286.00000227987766
20
363.00000540912151
30
0
11
-286.00000227987766
21
373.00000555813313
31
0
0
ARC
5
530
100
AcDbEntity
8
0
100
AcDbCircle
10
-328.99999976158142
20
249.99999925494194
30
0
40
2.5
210
0
220
0
230
1
100
AcDbArc
50
180
51
270
0
ARC
5
531
100
AcDbEntity
8
0
100
AcDbCircle
10
-378.99999999999989
20
247.00000000000003
30
0
40
12.999999999999972
210
0
220
0
230
1
100
AcDbArc
50
0
51
60.887987538017917
0
CIRCLE
5
532
100
AcDbEntity
8
0
100
AcDbCircle
10
-334.99999985098839
20
154.99999783933163
30
0
40
1.0000000149011612
210
0
220
0
230
1
0
LINE
5
533
100
AcDbEntity
8
0
100
AcDbLine
10
-301.00000232458115
20
360
30
0
11
-301.00000232458115
21
366.50000535696745
31
0
0
CIRCLE
5
534
100
AcDbEntity
8
0
100
AcDbCircle
10
-328.99999976158142
20
249.99999925494194
30
0
40
0.99999999999999933
210
0
220
0
230
1
0
ARC
5
535
100
AcDbEntity
8
0
100
AcDbCircle
10
-344.99999999999994
20
165.99999999999997
30
0
40
20.999999999999979
210
0
220
0
230
1
100
AcDbArc
50
-90.000000000000142
51
0
0
LINE
5
536
100
AcDbEntity
8
0
100
AcDbLine
10
-289.00000232458115
20
360
30
0
11
-289.00000232458115
21
366.50000535696745
31
0
0
ARC
5
537
100
AcDbEntity
8
0
100
AcDbCircle
10
-307.00202848731089
20
249.99858788113778
30
0
40
12.999999999999975
210
-0
220
0
230
1
100
AcDbArc
50
-60.887628672278382
51
0.00055927713308006114
0
ARC
5
538
100
AcDbEntity
8
0
100
AcDbCircle
10
-384.00000000000006
20
250
30
0
40
12.999999999999972
210
0
220
0
230
1
100
AcDbArc
50
180
51
240.88798753801768
0
ARC
5
539
100
AcDbEntity
8
0
100
AcDbCircle
10
-344.99999976158136
20
165.99999776482582
30
0
40
16.000000000000014
210
0
220
0
230
1
100
AcDbArc
50
270
51
303.98916450577008
0
LINE
5
540
100
AcDbEntity
8
0
100
AcDbLine
10
-301.0000023245812
20
376
30
0
11
-301.00000232458115
21
369.50000561028719
31
0
0
CIRCLE
5
541
100
AcDbEntity
8
0
100
AcDbCircle
10
-361.00000023841858
20
249.99999925494194
30
0
40
1.0000000000000009
210
0
220
0
230
1
0
LINE
5
542
100
AcDbEntity
8
0
100
AcDbLine
10
-295.00000232458115
20
360
30
0
11
-295.00000232458115
21
366.50000535696745
31
0
0
ARC
5
543
100
AcDbEntity
8
0
100
AcDbCircle
10
-310.99999999999994
20
247
30
0
40
13.000000000000009
210
0
220
0
230
1
100
AcDbArc
50
119.1120124619828
51
180
0
ARC
5
544
100
AcDbEntity
8
0
100
AcDbCircle
10
-378.99999999999989
20
247.00000000000003
30
0
40
12.999999999999972
210
0
220
0
230
1
100
AcDbArc
50
0
51
60.887987538017917
0
CIRCLE
5
545
100
AcDbEntity
8
0
100
AcDbCircle
10
-361.00000023841858
20
249.99999925494194
30
0
40
1.0000000000000009
210
0
220
0
230
1
0
ARC
5
546
100
AcDbEntity
8
0
100
AcDbCircle
10
-345
20
165.99999999999997
30
0
40
20.999999999999943
210
0
220
0
230
1
100
AcDbArc
50
180
51
270
0
LINE
5
547
100
AcDbEntity
8
0
100
AcDbLine
10
-397
20
250
30
0
11
-396.99999999999994
21
331
31
0
0
ARC
5
548
100
AcDbEntity
8
0
100
AcDbCircle
10
-235.00000369921324
20
436.99999481067067
30
0
40
13.000000000000043
210
-0
220
0
230
1
100
AcDbArc
50
270
51
330.88798753801774
0
ARC
5
549
100
AcDbEntity
8
0
100
AcDbCircle
10
-235.00000369921324
20
368.99999481067061
30
0
40
13.000000000000009
210
0
220
-0
230
1
100
AcDbArc
50
29.112012461982946
51
90
0
LINE
5
550
100
AcDbEntity
8
0
100
AcDbLine
10
-331.49999976158142
20
249.99999925494194
30
0
11
-358.50000023841858
21
249.99999925494194
31
0
0
ARC
5
551
100
AcDbEntity
8
0
100
AcDbCircle
10
-344.99999976158136
20
165.99999776482582
30
0
40
16.000000000000057
210
0
220
0
230
1
100
AcDbArc
50
-39.441786617206006
51
0
0
LINE
5
552
100
AcDbEntity
8
0
100
AcDbLine
10
-397
20
250
30
0
11
-396.99999999999994
21
331
31
0
0
ARC
5
553
100
AcDbEntity
8
0
100
AcDbCircle
10
-378.99999999999989
20
247.00000000000003
30
0
40
12.999999999999972
210
0
220
0
230
1
100
AcDbArc
50
0
51
60.887987538017917
0
LINE
5
554
100
AcDbEntity
8
0
100
AcDbLine
10
-331.49999976158142
20
249.99999925494194
30
0
11
-358.50000023841858
21
249.99999925494194
31
0
0
ARC
5
555
100
AcDbEntity
8
0
100
AcDbCircle
10
-345
20
165.99999999999997
30
0
40
20.999999999999943
210
0
220
0
230
1
100
AcDbArc
50
180
51
270
0
ARC
5
556
100
AcDbEntity
8
0
100
AcDbCircle
10
-378.99999999999989
20
247.00000000000003
30
0
40
12.999999999999972
210
0
220
0
230
1
100
AcDbArc
50
0
51
60.887987538017917
0
ARC
5
557
100
AcDbEntity
8
0
100
AcDbCircle
10
-235.00000369921324
20
368.99999481067061
30
0
40
13.000000000000009
210
0
220
-0
230
1
100
AcDbArc
50
29.112012461982946
51
90
0
ARC
5
558
100
AcDbEntity
8
0
100
AcDbCircle
10
-345.00000023841858
20
165.99999776482582
30
0
40
16.000000000000053
210
0
220
0
230
1
100
AcDbArc
50
236.01083549423009
51
270.0000000000004
0
ARC
5
559
100
AcDbEntity
8
0
100
AcDbCircle
10
-328.99999976158142
20
249.99999925494194
30
0
40
2.5
210
0
220
0
230
1
100
AcDbArc
50
180
51
270
0
ARC
5
560
100
AcDbEntity
8
0
100
AcDbCircle
10
-345.00000023841858
20
165.99999776482582
30
0
40
16.000000000000053
210
0
220
0
230
1
100
AcDbArc
50
236.01083549423009
51
270.0000000000004
0
ARC
5
561
100
AcDbEntity
8
0
100
AcDbCircle
10
-334.99999985098839
20
154.99999783933163
30
0
40
2.50000000000006
210
0
220
-0
230
1
100
AcDbArc
50
19.518970507597459
51
245.02840738096742
0
CIRCLE
5
562
100
AcDbEntity
8
0
100
AcDbCircle
10
-361.00000023841858
20
249.99999925494194
30
0
40
1.0000000000000009
210
0
220
0
230
1
0
ARC
5
563
100
AcDbEntity
8
0
100
AcDbCircle
10
-310.99999999999994
20
247
30
0
40
13.000000000000009
210
0
220
0
230
1
100
AcDbArc
50
119.1120124619828
51
180
0
ARC
5
564
100
AcDbEntity
8
0
100
AcDbCircle
10
-344.99999976158136
20
165.99999776482582
30
0
40
16.000000000000014
210
0
220
0
230
1
100
AcDbArc
50
270
51
303.98916450577008
0
ARC
5
565
100
AcDbEntity
8
0
100
AcDbCircle
10
-310.99999999999994
20
247
30
0
40
13.000000000000009
210
0
220
0
230
1
100
AcDbArc
50
119.1120124619828
51
180
0
ARC
5
566
100
AcDbEntity
8
0
100
AcDbCircle
10
-361.00000023841858
20
249.99999925494194
30
0
40
2.5
210
0
220
0
230
1
100
AcDbArc
50
-90
51
0
0
LINE
5
567
100
AcDbEntity
8
0
100
AcDbLine
10
-397
20
250
30
0
11
-396.99999999999994
21
331
31
0
0
ARC
5
568
100
AcDbEntity
8
0
100
AcDbCircle
10
-235.00000369921324
20
436.99999481067067
30
0
40
13.000000000000043
210
-0
220
0
230
1
100
AcDbArc
50
270
51
330.88798753801774
0
ARC
5
569
100
AcDbEntity
8
0
100
AcDbCircle
10
-310.99999999999994
20
247
30
0
40
13.000000000000009
210
0
220
0
230
1
100
AcDbArc
50
119.1120124619828
51
180
0
ARC
5
570
100
AcDbEntity
8
0
100
AcDbCircle
10
-328.99999976158142
20
249.99999925494194
30
0
40
2.5
210
0
220
0
230
1
100
AcDbArc
50
180
51
270
0
ARC
5
571
100
AcDbEntity
8
0
100
AcDbCircle
10
-345.00000023841858
20
165.99999776482582
30
0
40
16.000000000000053
210
0
220
0
230
1
100
AcDbArc
50
236.01083549423009
51
270.0000000000004
0
ARC
5
572
100
AcDbEntity
8
0
100
AcDbCircle
10
-345
20
165.99999999999997
30
0
40
20.999999999999943
210
0
220
0
230
1
100
AcDbArc
50
180
51
270
0
LINE
5
573
100
AcDbEntity
8
0
100
AcDbLine
10
-331.49999976158142
20
249.99999925494194
30
0
11
-358.50000023841858
21
249.99999925494194
31
0
0
ARC
5
574
100
AcDbEntity
8
0
100
AcDbCircle
10
-344.99999976158136
20
165.99999776482582
30
0
40
16.000000000000057
210
0
220
0
230
1
100
AcDbArc
50
-39.441786617206006
51
0
0
CIRCLE
5
575
100
AcDbEntity
8
0
100
AcDbCircle
10
-328.99999976158142
20
249.99999925494194
30
0
40
0.99999999999999933
210
0
220
0
230
1
0
ARC
5
576
100
AcDbEntity
8
0
100
AcDbCircle
10
-235.00000369921324
20
368.99999481067061
30
0
40
13.000000000000009
210
0
220
-0
230
1
100
AcDbArc
50
29.112012461982946
51
90
0
ARC
5
577
100
AcDbEntity
8
0
100
AcDbCircle
10
-361.00000023841858
20
249.99999925494194
30
0
40
2.5
210
0
220
0
230
1
100
AcDbArc
50
-90
51
0
0
ARC
5
578
100
AcDbEntity
8
0
100
AcDbCircle
10
-235.00000369921324
20
436.99999481067067
30
0
40
13.000000000000043
210
-0
220
0
230
1
100
AcDbArc
50
270
51
330.88798753801774
0
LINE
5
579
100
AcDbEntity
8
0
100
AcDbLine
10
-331.49999976158142
20
249.99999925494194
30
0
11
-358.50000023841858
21
249.99999925494194
31
0
0
ARC
5
580
100
AcDbEntity
8
0
100
AcDbCircle
10
-235.00000369921324
20
436.99999481067067
30
0
40
13.000000000000043
210
-0
220
0
230
1
100
AcDbArc
50
270
51
330.88798753801774
0
CIRCLE
5
581
100
AcDbEntity
8
0
100
AcDbCircle
10
-328.99999976158142
20
249.99999925494194
30
0
40
0.99999999999999933
210
0
220
0
230
1
0
ARC
5
582
100
AcDbEntity
8
0
100
AcDbCircle
10
-328.99999976158142
20
249.99999925494194
30
0
40
2.5
210
0
220
0
230
1
100
AcDbArc
50
180
51
270
0
CIRCLE
5
583
100
AcDbEntity
8
0
100
AcDbCircle
10
-355.00000014901161
20
154.99999783933163
30
0
40
1.0000000149011612
210
0
220
0
230
1
0
ARC
5
584
100
AcDbEntity
8
0
100
AcDbCircle
10
-235.00000369921324
20
368.99999481067061
30
0
40
13.000000000000009
210
0
220
-0
230
1
100
AcDbArc
50
29.112012461982946
51
90
0
ARC
5
585
100
AcDbEntity
8
0
100
AcDbCircle
10
-361.00000023841858
20
249.99999925494194
30
0
40
2.5
210
0
220
0
230
1
100
AcDbArc
50
-90
51
0
0
ARC
5
586
100
AcDbEntity
8
0
100
AcDbCircle
10
-355.00000014901161
20
154.99999783933163
30
0
40
2.5000000000000249
210
0
220
0
230
1
100
AcDbArc
50
-65.028407380965078
51
160.48102949240229
0
CIRCLE
5
587
100
AcDbEntity
8
0
100
AcDbCircle
10
-361.00000023841858
20
249.99999925494194
30
0
40
1.0000000000000009
210
0
220
0
230
1
0
LINE
5
588
100
AcDbEntity
8
0
100
AcDbLine
10
-358.00000227987766
20
363.00000540912151
30
0
11
-358.00000227987766
21
373.00000555813313
31
0
0
ARC
5
589
100
AcDbEntity
8
0
100
AcDbCircle
10
-384.00000000000006
20
250
30
0
40
12.999999999999972
210
0
220
0
230
1
100
AcDbArc
50
180
51
240.88798753801768
0
CIRCLE
5
590
100
AcDbEntity
8
0
100
AcDbCircle
10
-401.99999976158142
20
247.00000074505809
30
0
40
1.4999999999999858
210
0
220
0
230
1
0
LINE
5
591
100
AcDbEntity
8
0
100
AcDbLine
10
-361.00000232458115
20
360
30
0
11
-361.00000232458115
21
366.50000535696745
31
0
0
ARC
5
592
100
AcDbEntity
8
0
100
AcDbCircle
10
-384.00000000000006
20
250
30
0
40
12.999999999999972
210
0
220
0
230
1
100
AcDbArc
50
180
51
240.88798753801768
0
CIRCLE
5
593
100
AcDbEntity
8
0
100
AcDbCircle
10
-232.00000444427133
20
386.99999457225209
30
0
40
0.99999999999999933
210
-0
220
0
230
1
0
ARC
5
594
100
AcDbEntity
8
0
100
AcDbCircle
10
-384.00000000000006
20
250
30
0
40
12.999999999999972
210
0
220
0
230
1
100
AcDbArc
50
180
51
240.88798753801768
0
ARC
5
595
100
AcDbEntity
8
0
100
AcDbCircle
10
-401.00000369921315
20
402.99999481067084
30
0
40
20.999999999999943
210
-0
220
0
230
1
100
AcDbArc
50
0
51
90
0
LINE
5
596
100
AcDbEntity
8
0
100
AcDbLine
10
-373.00000232458115
20
360
30
0
11
-373.00000232458115
21
366.50000535696745
31
0
0
ARC
5
597
100
AcDbEntity
8
0
100
AcDbCircle
10
-316.00000369921332
20
402.99999481067061
30
0
40
20.999999999999943
210
0
220
0
230
1
100
AcDbArc
50
180
51
270
0
ARC
5
598
100
AcDbEntity
8
0
100
AcDbCircle
10
-345.00000023841858
20
165.99999776482582
30
0
40
16.000000000000014
210
0
220
0
230
1
100
AcDbArc
50
180
51
219.44178661720622
0
LINE
5
599
100
AcDbEntity
8
0
100
AcDbLine
10
-367.00000232458115
20
360
30
0
11
-367.00000232458115
21
366.50000535696745
31
0
0
LINE
5
600
100
AcDbEntity
8
0
100
AcDbLine
10
-232.00000444427133
20
389.49999457225209
30
0
11
-232.00000444427133
21
400.5000039376319
31
0
0
ARC
5
601
100
AcDbEntity
8
0
100
AcDbCircle
10
-401.00000369921315
20
402.99999481067073
30
0
40
20.999999999999943
210
0
220
0
230
1
100
AcDbArc
50
-90
51
0
0
CIRCLE
5
602
100
AcDbEntity
8
0
100
AcDbCircle
10
-355.00000014901161
20
154.99999783933163
30
0
40
1.0000000149011612
210
0
220
0
230
1
0
LINE
5
603
100
AcDbEntity
8
0
100
AcDbLine
10
-364.00000227987766
20
363.00000540912151
30
0
11
-364.00000227987766
21
373.00000555813313
31
0
0
CIRCLE
5
604
100
AcDbEntity
8
0
100
AcDbCircle
10
-355.00000014901161
20
154.99999783933163
30
0
40
1.0000000149011612
210
0
220
0
230
1
0
LINE
5
605
100
AcDbEntity
8
0
100
AcDbLine
10
-373.00000232458115
20
376
30
0
11
-373.00000232458115
21
369.50000561028719
31
0
0
ARC
5
606
100
AcDbEntity
8
0
100
AcDbCircle
10
-401.00000146403897
20
402.99999457225221
30
0
40
15.999999999999979
210
-0
220
0
230
1
100
AcDbArc
50
-33.989164505770354
51
0
0
ARC
5
607
100
AcDbEntity
8
0
100
AcDbCircle
10
-345.00000023841858
20
165.99999776482582
30
0
40
16.000000000000014
210
0
220
0
230
1
100
AcDbArc
50
180
51
219.44178661720622
0
LINE
5
608
100
AcDbEntity
8
0
100
AcDbLine
10
-370.00000227987766
20
363.00000540912151
30
0
11
-370.00000227987766
21
373.00000555813313
31
0
0
ARC
5
609
100
AcDbEntity
8
0
100
AcDbCircle
10
-345.00000023841858
20
165.99999776482582
30
0
40
16.000000000000014
210
0
220
0
230
1
100
AcDbArc
50
180
51
219.44178661720622
0
ARC
5
610
100
AcDbEntity
8
0
100
AcDbCircle
10
-235.00000369921324
20
368.99999481067061
30
0
40
13.000000000000009
210
0
220
-0
230
1
100
AcDbArc
50
29.112012461982946
51
90
0
LINE
5
611
100
AcDbEntity
8
0
100
AcDbLine
10
-367.00000232458126
20
376
30
0
11
-367.00000232458115
21
369.50000561028719
31
0
0
ARC
5
612
100
AcDbEntity
8
0
100
AcDbCircle
10
-355.00000014901161
20
154.99999783933163
30
0
40
2.5000000000000249
210
0
220
0
230
1
100
AcDbArc
50
-65.028407380965078
51
160.48102949240229
0
ARC
5
613
100
AcDbEntity
8
0
100
AcDbCircle
10
-355.00000014901161
20
154.99999783933163
30
0
40
2.5000000000000249
210
0
220
0
230
1
100
AcDbArc
50
-65.028407380965078
51
160.48102949240229
0
CIRCLE
5
614
100
AcDbEntity
8
0
100
AcDbCircle
10
-355.00000014901161
20
154.99999783933163
30
0
40
1.0000000149011612
210
0
220
0
230
1
0
LINE
5
615
100
AcDbEntity
8
0
100
AcDbLine
10
-355.0000023245812
20
360
30
0
11
-355.0000023245812
21
366.50000535696745
31
0
0
LINE
5
616
100
AcDbEntity
8
0
100
AcDbLine
10
-376.00000227987772
20
363.00000540912151
30
0
11
-376.00000227987772
21
373.00000555813313
31
0
0
ARC
5
617
100
AcDbEntity
8
0
100
AcDbCircle
10
-316.00000369921332
20
402.99999481067061
30
0
40
20.999999999999943
210
0
220
0
230
1
100
AcDbArc
50
180
51
270
0
ARC
5
618
100
AcDbEntity
8
0
100
AcDbCircle
10
-345.00000023841858
20
165.99999776482582
30
0
40
16.000000000000014
210
0
220
0
230
1
100
AcDbArc
50
180
51
219.44178661720622
0
ARC
5
619
100
AcDbEntity
8
0
100
AcDbCircle
10
-232.00000444427133
20
386.99999457225209
30
0
40
2.5
210
0
220
-0
230
1
100
AcDbArc
50
90
51
180
0
LINE
5
620
100
AcDbEntity
8
0
100
AcDbLine
10
-361.0000023245812
20
376
30
0
11
-361.00000232458115
21
369.50000561028719
31
0
0
LINE
5
621
100
AcDbEntity
8
0
100
AcDbLine
10
-355.0000023245812
20
376
30
0
11
-355.0000023245812
21
369.50000561028719
31
0
0
ARC
5
622
100
AcDbEntity
8
0
100
AcDbCircle
10
-355.00000014901161
20
154.99999783933163
30
0
40
2.5000000000000249
210
0
220
0
230
1
100
AcDbArc
50
-65.028407380965078
51
160.48102949240229
0
ARC
5
623
100
AcDbEntity
8
0
100
AcDbCircle
10
-235.00000369921324
20
436.99999481067067
30
0
40
13.000000000000043
210
-0
220
0
230
1
100
AcDbArc
50
270
51
330.88798753801774
0
ARC
5
624
100
AcDbEntity
8
0
100
AcDbCircle
10
-401.00000369921315
20
402.99999481067073
30
0
40
20.999999999999943
210
0
220
0
230
1
100
AcDbArc
50
-90
51
0
0
ARC
5
625
100
AcDbEntity
8
0
100
AcDbCircle
10
-235.00000369921324
20
368.99999481067061
30
0
40
13.000000000000009
210
0
220
-0
230
1
100
AcDbArc
50
29.112012461982946
51
90
0
ARC
5
626
100
AcDbEntity
8
0
100
AcDbCircle
10
-401.00000369921315
20
402.99999481067084
30
0
40
20.999999999999943
210
-0
220
0
230
1
100
AcDbArc
50
0
51
90
0
ARC
5
627
100
AcDbEntity
8
0
100
AcDbCircle
10
-401.00000369921315
20
402.99999481067073
30
0
40
20.999999999999943
210
0
220
0
230
1
100
AcDbArc
50
-90
51
0
0
ARC
5
628
100
AcDbEntity
8
0
100
AcDbCircle
10
-401.00000369921315
20
402.99999481067073
30
0
40
20.999999999999943
210
0
220
0
230
1
100
AcDbArc
50
-90
51
0
0
ARC
5
629
100
AcDbEntity
8
0
100
AcDbCircle
10
-327.00000585988164
20
392.99999466165906
30
0
40
2.50000000000006
210
-0
220
0
230
1
100
AcDbArc
50
-70.481029492402556
51
155.02840738096597
0
ARC
5
630
100
AcDbEntity
8
0
100
AcDbCircle
10
-232.00000444427133
20
386.99999457225209
30
0
40
2.5
210
0
220
-0
230
1
100
AcDbArc
50
90
51
180
0
LINE
5
631
100
AcDbEntity
8
0
100
AcDbLine
10
-307.0000023245812
20
376
30
0
11
-307.00000232458115
21
369.50000561028719
31
0
0
ARC
5
632
100
AcDbEntity
8
0
100
AcDbCircle
10
-235.00000369921324
20
368.99999481067061
30
0
40
13.000000000000009
210
0
220
-0
230
1
100
AcDbArc
50
29.112012461982946
51
90
0
ARC
5
633
100
AcDbEntity
8
0
100
AcDbCircle
10
-235.00000369921324
20
436.99999481067067
30
0
40
13.000000000000043
210
-0
220
0
230
1
100
AcDbArc
50
270
51
330.88798753801774
0
ARC
5
634
100
AcDbEntity
8
0
100
AcDbCircle
10
-327.00000585988164
20
412.99999495968228
30
0
40
2.5000000000000089
210
0
220
0
230
1
100
AcDbArc
50
-155.02840738096597
51
70.481029492401646
0
ARC
5
635
100
AcDbEntity
8
0
100
AcDbCircle
10
-401.00000146403897
20
402.99999457225221
30
0
40
15.999999999999979
210
-0
220
0
230
1
100
AcDbArc
50
-33.989164505770354
51
0
0
LINE
5
636
100
AcDbEntity
8
0
100
AcDbLine
10
-319.00000232458115
20
360
30
0
11
-319.00000232458115
21
366.50000535696745
31
0
0
ARC
5
637
100
AcDbEntity
8
0
100
AcDbCircle
10
-401.00000369921315
20
402.99999481067084
30
0
40
20.999999999999943
210
-0
220
0
230
1
100
AcDbArc
50
0
51
90
0
ARC
5
638
100
AcDbEntity
8
0
100
AcDbCircle
10
-327.00000585988164
20
412.99999495968228
30
0
40
2.5000000000000089
210
0
220
0
230
1
100
AcDbArc
50
-155.02840738096597
51
70.481029492401646
0
CIRCLE
5
639
100
AcDbEntity
8
0
100
AcDbCircle
10
-232.00000444427133
20
386.99999457225209
30
0
40
0.99999999999999933
210
-0
220
0
230
1
0
LINE
5
640
100
AcDbEntity
8
0
100
AcDbLine
10
-313.00000232458115
20
376
30
0
11
-313.00000232458115
21
369.50000561028719
31
0
0
ARC
5
641
100
AcDbEntity
8
0
100
AcDbCircle
10
-235.00000369921324
20
368.99999481067061
30
0
40
13.000000000000009
210
0
220
-0
230
1
100
AcDbArc
50
29.112012461982946
51
90
0
ARC
5
642
100
AcDbEntity
8
0
100
AcDbCircle
10
-401.00000146403897
20
402.99999504908942
30
0
40
15.999999999999943
210
-0
220
0
230
1
100
AcDbArc
50
0
51
33.989164505770205
0
ARC
5
643
100
AcDbEntity
8
0
100
AcDbCircle
10
-327.00000585988164
20
392.99999466165906
30
0
40
2.50000000000006
210
-0
220
0
230
1
100
AcDbArc
50
-70.481029492402556
51
155.02840738096597
0
ARC
5
644
100
AcDbEntity
8
0
100
AcDbCircle
10
-235.00000369921324
20
436.99999481067067
30
0
40
13.000000000000043
210
-0
220
0
230
1
100
AcDbArc
50
270
51
330.88798753801774
0
LINE
5
645
100
AcDbEntity
8
0
100
AcDbLine
10
-310.00000227987766
20
363.00000540912151
30
0
11
-310.00000227987766
21
373.00000555813313
31
0
0
ARC
5
646
100
AcDbEntity
8
0
100
AcDbCircle
10
-401.00000146403897
20
402.99999504908942
30
0
40
15.999999999999943
210
-0
220
0
230
1
100
AcDbArc
50
0
51
33.989164505770205
0
ARC
5
647
100
AcDbEntity
8
0
100
AcDbCircle
10
-401.00000369921315
20
402.99999481067084
30
0
40
20.999999999999943
210
-0
220
0
230
1
100
AcDbArc
50
0
51
90
0
LINE
5
648
100
AcDbEntity
8
0
100
AcDbLine
10
-304.00000227987766
20
363.00000540912151
30
0
11
-304.00000227987766
21
373.00000555813313
31
0
0
LINE
5
649
100
AcDbEntity
8
0
100
AcDbLine
10
-232.00000444427133
20
389.49999457225209
30
0
11
-232.00000444427133
21
400.5000039376319
31
0
0
LINE
5
650
100
AcDbEntity
8
0
100
AcDbLine
10
-232.00000444427133
20
389.49999457225209
30
0
11
-232.00000444427133
21
400.5000039376319
31
0
0
ARC
5
651
100
AcDbEntity
8
0
100
AcDbCircle
10
-316.0000059343875
20
402.99999504908925
30
0
40
16.000000000000014
210
0
220
-0
230
1
100
AcDbArc
50
90
51
129.44178661720596
0
LINE
5
652
100
AcDbEntity
8
0
100
AcDbLine
10
-322.00000227987772
20
363.00000540912151
30
0
11
-322.00000227987772
21
373.00000555813313
31
0
0
ARC
5
653
100
AcDbEntity
8
0
100
AcDbCircle
10
-401.00000146403897
20
402.99999457225221
30
0
40
15.999999999999979
210
-0
220
0
230
1
100
AcDbArc
50
-33.989164505770354
51
0
0
LINE
5
654
100
AcDbEntity
8
0
100
AcDbLine
10
-319.0000023245812
20
376
30
0
11
-319.00000232458115
21
369.50000561028719
31
0
0
LINE
5
655
100
AcDbEntity
8
0
100
AcDbLine
10
-226.9305060960786
20
400.5000039376319
30
0
11
-232.00000444427133
21
400.5000039376319
31
0
0
ARC
5
656
100
AcDbEntity
8
0
100
AcDbCircle
10
-316.0000059343875
20
402.99999504908925
30
0
40
16.000000000000014
210
0
220
-0
230
1
100
AcDbArc
50
90
51
129.44178661720596
0
ARC
5
657
100
AcDbEntity
8
0
100
AcDbCircle
10
-401.00000146403897
20
402.99999504908942
30
0
40
15.999999999999943
210
-0
220
0
230
1
100
AcDbArc
50
0
51
33.989164505770205
0
LINE
5
658
100
AcDbEntity
8
0
100
AcDbLine
10
-325.0000023245812
20
360
30
0
11
-325.0000023245812
21
366.50000535696745
31
0
0
ARC
5
659
100
AcDbEntity
8
0
100
AcDbCircle
10
-401.00000146403897
20
402.99999457225221
30
0
40
15.999999999999979
210
-0
220
0
230
1
100
AcDbArc
50
-33.989164505770354
51
0
0
LINE
5
660
100
AcDbEntity
8
0
100
AcDbLine
10
-232.00000444427133
20
405.50000401213771
30
0
11
-226.93050507625756
21
405.50000401213771
31
0
0
CIRCLE
5
661
100
AcDbEntity
8
0
100
AcDbCircle
10
-232.00000444427133
20
386.99999457225209
30
0
40
0.99999999999999933
210
-0
220
0
230
1
0
LINE
5
662
100
AcDbEntity
8
0
100
AcDbLine
10
-307.00000232458115
20
360
30
0
11
-307.00000232458115
21
366.50000535696745
31
0
0
LINE
5
663
100
AcDbEntity
8
0
100
AcDbLine
10
-232.00000444427133
20
405.50000401213771
30
0
11
-232.00000444427133
21
416.49999504908925
31
0
0
ARC
5
664
100
AcDbEntity
8
0
100
AcDbCircle
10
-316.0000059343875
20
402.99999457225204
30
0
40
16.000000000000011
210
0
220
0
230
1
100
AcDbArc
50
230.55821338279415
51
270
0
LINE
5
665
100
AcDbEntity
8
0
100
AcDbLine
10
-325.0000023245812
20
376
30
0
11
-325.0000023245812
21
369.50000561028719
31
0
0
ARC
5
666
100
AcDbEntity
8
0
100
AcDbCircle
10
-401.00000146403897
20
402.99999504908942
30
0
40
15.999999999999943
210
-0
220
0
230
1
100
AcDbArc
50
0
51
33.989164505770205
0
ARC
5
667
100
AcDbEntity
8
0
100
AcDbCircle
10
-316.00000369921332
20
402.99999481067061
30
0
40
20.999999999999943
210
0
220
0
230
1
100
AcDbArc
50
180
51
270
0
LINE
5
668
100
AcDbEntity
8
0
100
AcDbLine
10
-232.00000444427133
20
405.50000401213771
30
0
11
-226.93050507625756
21
405.50000401213771
31
0
0
LINE
5
669
100
AcDbEntity
8
0
100
AcDbLine
10
-316.00000227987766
20
363.00000540912151
30
0
11
-316.00000227987766
21
373.00000555813313
31
0
0
ARC
5
670
100
AcDbEntity
8
0
100
AcDbCircle
10
-232.00000444427133
20
386.99999457225209
30
0
40
2.5
210
0
220
-0
230
1
100
AcDbArc
50
90
51
180
0
ARC
5
671
100
AcDbEntity
8
0
100
AcDbCircle
10
-327.00000585988164
20
392.99999466165906
30
0
40
2.50000000000006
210
-0
220
0
230
1
100
AcDbArc
50
-70.481029492402556
51
155.02840738096597
0
LINE
5
672
100
AcDbEntity
8
0
100
AcDbLine
10
-313.00000232458115
20
360
30
0
11
-313.00000232458115
21
366.50000535696745
31
0
0
CIRCLE
5
673
100
AcDbEntity
8
0
100
AcDbCircle
10
-232.00000444427133
20
418.99999504908925
30
0
40
1.0000000000000009
210
-0
220
0
230
1
0
ARC
5
674
100
AcDbEntity
8
0
100
AcDbCircle
10
-232.00000444427133
20
418.99999504908925
30
0
40
2.5
210
0
220
0
230
1
100
AcDbArc
50
180
51
270
0
CIRCLE
5
675
100
AcDbEntity
8
0
100
AcDbCircle
10
-232.00000444427133
20
386.99999457225209
30
0
40
0.99999999999999933
210
-0
220
0
230
1
0
ARC
5
676
100
AcDbEntity
8
0
100
AcDbCircle
10
-232.00000444427133
20
418.99999504908925
30
0
40
2.5
210
0
220
0
230
1
100
AcDbArc
50
180
51
270
0
ARC
5
677
100
AcDbEntity
8
0
100
AcDbCircle
10
-390.00000153854489
20
412.99999495968234
30
0
40
2.50000000000006
210
0
220
0
230
1
100
AcDbArc
50
109.51897050759625
51
335.02840738096717
0
LINE
5
678
100
AcDbEntity
8
0
100
AcDbLine
10
-232.00000444427133
20
405.50000401213771
30
0
11
-232.00000444427133
21
416.49999504908925
31
0
0
ARC
5
679
100
AcDbEntity
8
0
100
AcDbCircle
10
-390.00000153854489
20
412.99999495968234
30
0
40
2.50000000000006
210
0
220
0
230
1
100
AcDbArc
50
109.51897050759625
51
335.02840738096717
0
ARC
5
680
100
AcDbEntity
8
0
100
AcDbCircle
10
-232.00000444427133
20
418.99999504908925
30
0
40
2.5
210
0
220
0
230
1
100
AcDbArc
50
180
51
270
0
LINE
5
681
100
AcDbEntity
8
0
100
AcDbLine
10
-232.00000444427133
20
389.49999457225209
30
0
11
-232.00000444427133
21
400.5000039376319
31
0
0
ARC
5
682
100
AcDbEntity
8
0
100
AcDbCircle
10
-327.00000585988164
20
412.99999495968228
30
0
40
2.5000000000000089
210
0
220
0
230
1
100
AcDbArc
50
-155.02840738096597
51
70.481029492401646
0
CIRCLE
5
683
100
AcDbEntity
8
0
100
AcDbCircle
10
-390.00000153854489
20
412.99999495968234
30
0
40
1.0000000149011612
210
0
220
0
230
1
0
CIRCLE
5
684
100
AcDbEntity
8
0
100
AcDbCircle
10
-232.00000444427133
20
418.99999504908925
30
0
40
1.0000000000000009
210
-0
220
0
230
1
0
LINE
5
685
100
AcDbEntity
8
0
100
AcDbLine
10
-232.00000444427133
20
405.50000401213771
30
0
11
-232.00000444427133
21
416.49999504908925
31
0
0
ARC
5
686
100
AcDbEntity
8
0
100
AcDbCircle
10
-401.00000146403897
20
402.99999504908942
30
0
40
16.000000000000011
210
0
220
-0
230
1
100
AcDbArc
50
50.558213382794023
51
90
0
LINE
5
687
100
AcDbEntity
8
0
100
AcDbLine
10
-232.00000444427133
20
389.49999457225209
30
0
11
-232.00000444427133
21
400.5000039376319
31
0
0
ARC
5
688
100
AcDbEntity
8
0
100
AcDbCircle
10
-232.00000444427133
20
418.99999504908925
30
0
40
2.5
210
0
220
0
230
1
100
AcDbArc
50
180
51
270
0
CIRCLE
5
689
100
AcDbEntity
8
0
100
AcDbCircle
10
-390.00000153854489
20
412.99999495968234
30
0
40
1.0000000149011612
210
0
220
0
230
1
0
CIRCLE
5
690
100
AcDbEntity
8
0
100
AcDbCircle
10
-232.00000444427133
20
386.99999457225209
30
0
40
0.99999999999999933
210
-0
220
0
230
1
0
CIRCLE
5
691
100
AcDbEntity
8
0
100
AcDbCircle
10
-390.00000153854489
20
392.99999466165912
30
0
40
1.0000000149011612
210
0
220
0
230
1
0
CIRCLE
5
692
100
AcDbEntity
8
0
100
AcDbCircle
10
-232.00000444427133
20
418.99999504908925
30
0
40
1.0000000000000009
210
-0
220
0
230
1
0
ARC
5
693
100
AcDbEntity
8
0
100
AcDbCircle
10
-390.00000153854489
20
412.99999495968234
30
0
40
2.50000000000006
210
0
220
0
230
1
100
AcDbArc
50
109.51897050759625
51
335.02840738096717
0
LINE
5
694
100
AcDbEntity
8
0
100
AcDbLine
10
-397.00000232458126
20
376
30
0
11
-397.00000232458115
21
369.50000561028719
31
0
0
ARC
5
695
100
AcDbEntity
8
0
100
AcDbCircle
10
-232.00000444427133
20
418.99999504908925
30
0
40
2.5
210
0
220
0
230
1
100
AcDbArc
50
180
51
270
0
CIRCLE
5
696
100
AcDbEntity
8
0
100
AcDbCircle
10
-390.00000153854489
20
412.99999495968234
30
0
40
1.0000000149011612
210
0
220
0
230
1
0
ARC
5
697
100
AcDbEntity
8
0
100
AcDbCircle
10
-232.00000444427133
20
386.99999457225209
30
0
40
2.5
210
0
220
-0
230
1
100
AcDbArc
50
90
51
180
0
LINE
5
698
100
AcDbEntity
8
0
100
AcDbLine
10
-397.00000232458115
20
360
30
0
11
-397.00000232458115
21
366.50000535696745
31
0
0
LINE
5
699
100
AcDbEntity
8
0
100
AcDbLine
10
-232.00000444427133
20
405.50000401213771
30
0
11
-232.00000444427133
21
416.49999504908925
31
0
0
ARC
5
700
100
AcDbEntity
8
0
100
AcDbCircle
10
-316.0000059343875
20
402.99999457225204
30
0
40
16.000000000000011
210
0
220
0
230
1
100
AcDbArc
50
230.55821338279415
51
270
0
ARC
5
701
100
AcDbEntity
8
0
100
AcDbCircle
10
-401.00000146403897
20
402.99999504908942
30
0
40
16.000000000000011
210
0
220
-0
230
1
100
AcDbArc
50
50.558213382794023
51
90
0
LINE
5
702
100
AcDbEntity
8
0
100
AcDbLine
10
-394.00000227987766
20
363.00000540912151
30
0
11
-394.00000227987766
21
373.00000555813313
31
0
0
LINE
5
703
100
AcDbEntity
8
0
100
AcDbLine
10
-349.00000232458115
20
360
30
0
11
-349.00000232458115
21
366.50000535696745
31
0
0
LINE
5
704
100
AcDbEntity
8
0
100
AcDbLine
10
-232.00000444427133
20
405.50000401213771
30
0
11
-232.00000444427133
21
416.49999504908925
31
0
0
ARC
5
705
100
AcDbEntity
8
0
100
AcDbCircle
10
-401.00000146403897
20
402.99999504908942
30
0
40
16.000000000000011
210
0
220
-0
230
1
100
AcDbArc
50
50.558213382794023
51
90
0
ARC
5
706
100
AcDbEntity
8
0
100
AcDbCircle
10
-232.00000444427133
20
386.99999457225209
30
0
40
2.5
210
0
220
-0
230
1
100
AcDbArc
50
90
51
180
0
ARC
5
707
100
AcDbEntity
8
0
100
AcDbCircle
10
-401.00000146403897
20
402.99999457225221
30
0
40
16.000000000000014
210
0
220
0
230
1
100
AcDbArc
50
270
51
309.44178661720599
0
CIRCLE
5
708
100
AcDbEntity
8
0
100
AcDbCircle
10
-232.00000444427133
20
418.99999504908925
30
0
40
1.0000000000000009
210
-0
220
0
230
1
0
LINE
5
709
100
AcDbEntity
8
0
100
AcDbLine
10
-343.00000232458115
20
376
30
0
11
-343.00000232458115
21
369.50000561028719
31
0
0
CIRCLE
5
710
100
AcDbEntity
8
0
100
AcDbCircle
10
-232.00000444427133
20
386.99999457225209
30
0
40
0.99999999999999933
210
-0
220
0
230
1
0
ARC
5
711
100
AcDbEntity
8
0
100
AcDbCircle
10
-401.00000146403897
20
402.99999504908942
30
0
40
16.000000000000011
210
0
220
-0
230
1
100
AcDbArc
50
50.558213382794023
51
90
0
ARC
5
712
100
AcDbEntity
8
0
100
AcDbCircle
10
-390.00000153854489
20
392.99999466165912
30
0
40
2.5000000000000089
210
0
220
-0
230
1
100
AcDbArc
50
24.971592619035228
51
250.48102949240246
0
CIRCLE
5
713
100
AcDbEntity
8
0
100
AcDbCircle
10
-327.00000585988164
20
392.99999466165906
30
0
40
1.0000000149011612
210
-0
220
0
230
1
0
LINE
5
714
100
AcDbEntity
8
0
100
AcDbLine
10
-232.00000444427133
20
405.50000401213771
30
0
11
-232.00000444427133
21
416.49999504908925
31
0
0
CIRCLE
5
715
100
AcDbEntity
8
0
100
AcDbCircle
10
-390.00000153854489
20
412.99999495968234
30
0
40
1.0000000149011612
210
0
220
0
230
1
0
LINE
5
716
100
AcDbEntity
8
0
100
AcDbLine
10
-391.0000023245812
20
376
30
0
11
-391.00000232458115
21
369.50000561028719
31
0
0
LINE
5
717
100
AcDbEntity
8
0
100
AcDbLine
10
-343.00000232458115
20
360
30
0
11
-343.00000232458115
21
366.50000535696745
31
0
0
ARC
5
718
100
AcDbEntity
8
0
100
AcDbCircle
10
-232.00000444427133
20
386.99999457225209
30
0
40
2.5
210
0
220
-0
230
1
100
AcDbArc
50
90
51
180
0
LINE
5
719
100
AcDbEntity
8
0
100
AcDbLine
10
-232.00000444427133
20
389.49999457225209
30
0
11
-232.00000444427133
21
400.5000039376319
31
0
0
ARC
5
720
100
AcDbEntity
8
0
100
AcDbCircle
10
-232.00000444427133
20
418.99999504908925
30
0
40
2.5
210
0
220
0
230
1
100
AcDbArc
50
180
51
270
0
LINE
5
721
100
AcDbEntity
8
0
100
AcDbLine
10
-403.00000232458115
20
360
30
0
11
-403.00000232458115
21
366.50000535696745
31
0
0
LINE
5
722
100
AcDbEntity
8
0
100
AcDbLine
10
-388.00000227987766
20
363.00000540912151
30
0
11
-388.00000227987766
21
373.00000555813313
31
0
0
LINE
5
723
100
AcDbEntity
8
0
100
AcDbLine
10
-328.00000227987766
20
363.00000540912151
30
0
11
-328.00000227987766
21
373.00000555813313
31
0
0
ARC
5
724
100
AcDbEntity
8
0
100
AcDbCircle
10
-232.00000444427133
20
418.99999504908925
30
0
40
2.5
210
0
220
0
230
1
100
AcDbArc
50
180
51
270
0
CIRCLE
5
725
100
AcDbEntity
8
0
100
AcDbCircle
10
-232.00000444427133
20
418.99999504908925
30
0
40
1.0000000000000009
210
-0
220
0
230
1
0
CIRCLE
5
726
100
AcDbEntity
8
0
100
AcDbCircle
10
-327.00000585988164
20
392.99999466165906
30
0
40
1.0000000149011612
210
-0
220
0
230
1
0
CIRCLE
5
727
100
AcDbEntity
8
0
100
AcDbCircle
10
-390.00000153854489
20
392.99999466165912
30
0
40
1.0000000149011612
210
0
220
0
230
1
0
ARC
5
728
100
AcDbEntity
8
0
100
AcDbCircle
10
-390.00000153854489
20
412.99999495968234
30
0
40
2.50000000000006
210
0
220
0
230
1
100
AcDbArc
50
109.51897050759625
51
335.02840738096717
0
LINE
5
729
100
AcDbEntity
8
0
100
AcDbLine
10
-385.0000023245812
20
376
30
0
11
-385.0000023245812
21
369.50000561028719
31
0
0
LINE
5
730
100
AcDbEntity
8
0
100
AcDbLine
10
-331.00000232458115
20
360
30
0
11
-331.00000232458115
21
366.50000535696745
31
0
0
LINE
5
731
100
AcDbEntity
8
0
100
AcDbLine
10
-226.9305060960786
20
400.5000039376319
30
0
11
-232.00000444427133
21
400.5000039376319
31
0
0
CIRCLE
5
732
100
AcDbEntity
8
0
100
AcDbCircle
10
-232.00000444427133
20
386.99999457225209
30
0
40
0.99999999999999933
210
-0
220
0
230
1
0
LINE
5
733
100
AcDbEntity
8
0
100
AcDbLine
10
-232.00000444427133
20
405.50000401213771
30
0
11
-232.00000444427133
21
416.49999504908925
31
0
0
ARC
5
734
100
AcDbEntity
8
0
100
AcDbCircle
10
-316.00000369921332
20
402.99999481067067
30
0
40
20.999999999999943
210
0
220
-0
230
1
100
AcDbArc
50
90
51
180
0
ARC
5
735
100
AcDbEntity
8
0
100
AcDbCircle
10
-390.00000153854489
20
392.99999466165912
30
0
40
2.5000000000000089
210
0
220
-0
230
1
100
AcDbArc
50
24.971592619035228
51
250.48102949240246
0
CIRCLE
5
736
100
AcDbEntity
8
0
100
AcDbCircle
10
-327.00000585988164
20
392.99999466165906
30
0
40
1.0000000149011612
210
-0
220
0
230
1
0
ARC
5
737
100
AcDbEntity
8
0
100
AcDbCircle
10
-401.00000146403897
20
402.99999457225221
30
0
40
16.000000000000014
210
0
220
0
230
1
100
AcDbArc
50
270
51
309.44178661720599
0
ARC
5
738
100
AcDbEntity
8
0
100
AcDbCircle
10
-390.00000153854489
20
392.99999466165912
30
0
40
2.5000000000000089
210
0
220
-0
230
1
100
AcDbArc
50
24.971592619035228
51
250.48102949240246
0
CIRCLE
5
739
100
AcDbEntity
8
0
100
AcDbCircle
10
-390.00000153854489
20
392.99999466165912
30
0
40
1.0000000149011612
210
0
220
0
230
1
0
ARC
5
740
100
AcDbEntity
8
0
100
AcDbCircle
10
-401.00000146403897
20
402.99999457225221
30
0
40
16.000000000000014
210
0
220
0
230
1
100
AcDbArc
50
270
51
309.44178661720599
0
LINE
5
741
100
AcDbEntity
8
0
100
AcDbLine
10
-400.00000227987766
20
363.00000540912151
30
0
11
-400.00000227987766
21
373.00000555813313
31
0
0
LINE
5
742
100
AcDbEntity
8
0
100
AcDbLine
10
-232.00000444427133
20
405.50000401213771
30
0
11
-232.00000444427133
21
416.49999504908925
31
0
0
LINE
5
743
100
AcDbEntity
8
0
100
AcDbLine
10
-391.00000232458115
20
360
30
0
11
-391.00000232458115
21
366.50000535696745
31
0
0
LINE
5
744
100
AcDbEntity
8
0
100
AcDbLine
10
-403.00000232458115
20
376
30
0
11
-403.00000232458115
21
369.50000561028719
31
0
0
CIRCLE
5
745
100
AcDbEntity
8
0
100
AcDbCircle
10
-232.00000444427133
20
418.99999504908925
30
0
40
1.0000000000000009
210
-0
220
0
230
1
0
LINE
5
746
100
AcDbEntity
8
0
100
AcDbLine
10
-385.0000023245812
20
360
30
0
11
-385.0000023245812
21
366.50000535696745
31
0
0
ARC
5
747
100
AcDbEntity
8
0
100
AcDbCircle
10
-232.00000444427133
20
418.99999504908925
30
0
40
2.5
210
0
220
0
230
1
100
AcDbArc
50
180
51
270
0
CIRCLE
5
748
100
AcDbEntity
8
0
100
AcDbCircle
10
-232.00000444427133
20
418.99999504908925
30
0
40
1.0000000000000009
210
-0
220
0
230
1
0
LINE
5
749
100
AcDbEntity
8
0
100
AcDbLine
10
-232.00000444427133
20
389.49999457225209
30
0
11
-232.00000444427133
21
400.5000039376319
31
0
0
ARC
5
750
100
AcDbEntity
8
0
100
AcDbCircle
10
-316.0000059343875
20
402.99999457225204
30
0
40
16.000000000000011
210
0
220
0
230
1
100
AcDbArc
50
230.55821338279415
51
270
0
ARC
5
751
100
AcDbEntity
8
0
100
AcDbCircle
10
-316.0000059343875
20
402.99999457225204
30
0
40
16.000000000000011
210
0
220
0
230
1
100
AcDbArc
50
230.55821338279415
51
270
0
LINE
5
752
100
AcDbEntity
8
0
100
AcDbLine
10
-232.00000444427133
20
389.49999457225209
30
0
11
-232.00000444427133
21
400.5000039376319
31
0
0
CIRCLE
5
753
100
AcDbEntity
8
0
100
AcDbCircle
10
-390.00000153854489
20
392.99999466165912
30
0
40
1.0000000149011612
210
0
220
0
230
1
0
CIRCLE
5
754
100
AcDbEntity
8
0
100
AcDbCircle
10
-232.00000444427133
20
418.99999504908925
30
0
40
1.0000000000000009
210
-0
220
0
230
1
0
ARC
5
755
100
AcDbEntity
8
0
100
AcDbCircle
10
-232.00000444427133
20
386.99999457225209
30
0
40
2.5
210
0
220
-0
230
1
100
AcDbArc
50
90
51
180
0
ARC
5
756
100
AcDbEntity
8
0
100
AcDbCircle
10
-327.00000585988164
20
392.99999466165906
30
0
40
2.50000000000006
210
-0
220
0
230
1
100
AcDbArc
50
-70.481029492402556
51
155.02840738096597
0
ARC
5
757
100
AcDbEntity
8
0
100
AcDbCircle
10
-232.00000444427133
20
386.99999457225209
30
0
40
2.5
210
0
220
-0
230
1
100
AcDbArc
50
90
51
180
0
CIRCLE
5
758
100
AcDbEntity
8
0
100
AcDbCircle
10
-232.00000444427133
20
386.99999457225209
30
0
40
0.99999999999999933
210
-0
220
0
230
1
0
ARC
5
759
100
AcDbEntity
8
0
100
AcDbCircle
10
-390.00000153854489
20
392.99999466165912
30
0
40
2.5000000000000089
210
0
220
-0
230
1
100
AcDbArc
50
24.971592619035228
51
250.48102949240246
0
LINE
5
760
100
AcDbEntity
8
0
100
AcDbLine
10
-349.0000023245812
20
376
30
0
11
-349.00000232458115
21
369.50000561028719
31
0
0
ARC
5
761
100
AcDbEntity
8
0
100
AcDbCircle
10
-327.00000585988164
20
392.99999466165906
30
0
40
2.50000000000006
210
-0
220
0
230
1
100
AcDbArc
50
-70.481029492402556
51
155.02840738096597
0
LINE
5
762
100
AcDbEntity
8
0
100
AcDbLine
10
-379.0000023245812
20
376
30
0
11
-379.0000023245812
21
369.50000561028719
31
0
0
ARC
5
763
100
AcDbEntity
8
0
100
AcDbCircle
10
-401.00000146403897
20
402.99999457225221
30
0
40
16.000000000000014
210
0
220
0
230
1
100
AcDbArc
50
270
51
309.44178661720599
0
LINE
5
764
100
AcDbEntity
8
0
100
AcDbLine
10
-379.0000023245812
20
360
30
0
11
-379.0000023245812
21
366.50000535696745
31
0
0
ARC
5
765
100
AcDbEntity
8
0
100
AcDbCircle
10
-316.0000059343875
20
402.99999457225204
30
0
40
16.000000000000011
210
0
220
0
230
1
100
AcDbArc
50
230.55821338279415
51
270
0
ARC
5
766
100
AcDbEntity
8
0
100
AcDbCircle
10
-316.00000369921332
20
402.99999481067061
30
0
40
20.999999999999943
210
0
220
0
230
1
100
AcDbArc
50
180
51
270
0
ARC
5
767
100
AcDbEntity
8
0
100
AcDbCircle
10
-316.00000369921332
20
402.99999481067061
30
0
40
20.999999999999943
210
0
220
0
230
1
100
AcDbArc
50
180
51
270
0
ARC
5
768
100
AcDbEntity
8
0
100
AcDbCircle
10
-316.0000059343875
20
402.99999504908925
30
0
40
16.000000000000014
210
0
220
-0
230
1
100
AcDbArc
50
90
51
129.44178661720596
0
LINE
5
769
100
AcDbEntity
8
0
100
AcDbLine
10
-331.0000023245812
20
376
30
0
11
-331.00000232458115
21
369.50000561028719
31
0
0
ARC
5
770
100
AcDbEntity
8
0
100
AcDbCircle
10
-316.0000059343875
20
402.99999457225204
30
0
40
16.000000000000011
210
0
220
0
230
1
100
AcDbArc
50
230.55821338279415
51
270
0
ARC
5
771
100
AcDbEntity
8
0
100
AcDbCircle
10
-316.00000369921332
20
402.99999481067067
30
0
40
20.999999999999943
210
0
220
-0
230
1
100
AcDbArc
50
90
51
180
0
ARC
5
772
100
AcDbEntity
8
0
100
AcDbCircle
10
-316.0000059343875
20
402.99999504908925
30
0
40
16.000000000000014
210
0
220
-0
230
1
100
AcDbArc
50
90
51
129.44178661720596
0
ARC
5
773
100
AcDbEntity
8
0
100
AcDbCircle
10
-327.00000585988164
20
392.99999466165906
30
0
40
2.50000000000006
210
-0
220
0
230
1
100
AcDbArc
50
-70.481029492402556
51
155.02840738096597
0
LINE
5
774
100
AcDbEntity
8
0
100
AcDbLine
10
-382.00000227987772
20
363.00000540912151
30
0
11
-382.00000227987772
21
373.00000555813313
31
0
0
ARC
5
775
100
AcDbEntity
8
0
100
AcDbCircle
10
-316.00000369921332
20
402.99999481067067
30
0
40
20.999999999999943
210
0
220
-0
230
1
100
AcDbArc
50
90
51
180
0
ARC
5
776
100
AcDbEntity
8
0
100
AcDbCircle
10
-316.00000369921332
20
402.99999481067067
30
0
40
20.999999999999943
210
0
220
-0
230
1
100
AcDbArc
50
90
51
180
0
ARC
5
777
100
AcDbEntity
8
0
100
AcDbCircle
10
-327.00000585988164
20
412.99999495968228
30
0
40
2.5000000000000089
210
0
220
0
230
1
100
AcDbArc
50
-155.02840738096597
51
70.481029492401646
0
ARC
5
778
100
AcDbEntity
8
0
100
AcDbCircle
10
-327.00000585988164
20
412.99999495968228
30
0
40
2.5000000000000089
210
0
220
0
230
1
100
AcDbArc
50
-155.02840738096597
51
70.481029492401646
0
LINE
5
779
100
AcDbEntity
8
0
100
AcDbLine
10
-352.00000227987772
20
363.00000540912151
30
0
11
-352.00000227987772
21
373.00000555813313
31
0
0
ARC
5
780
100
AcDbEntity
8
0
100
AcDbCircle
10
-316.0000059343875
20
402.99999457225204
30
0
40
16.000000000000011
210
0
220
0
230
1
100
AcDbArc
50
230.55821338279415
51
270
0
ARC
5
781
100
AcDbEntity
8
0
100
AcDbCircle
10
-316.00000369921332
20
402.99999481067061
30
0
40
20.999999999999943
210
0
220
0
230
1
100
AcDbArc
50
180
51
270
0
ARC
5
782
100
AcDbEntity
8
0
100
AcDbCircle
10
-327.00000585988164
20
412.99999495968228
30
0
40
2.5000000000000089
210
0
220
0
230
1
100
AcDbArc
50
-155.02840738096597
51
70.481029492401646
0
ARC
5
783
100
AcDbEntity
8
0
100
AcDbCircle
10
-316.00000369921332
20
402.99999481067061
30
0
40
20.999999999999943
210
0
220
0
230
1
100
AcDbArc
50
180
51
270
0
ARC
5
784
100
AcDbEntity
8
0
100
AcDbCircle
10
-316.00000369921332
20
402.99999481067067
30
0
40
20.999999999999943
210
0
220
-0
230
1
100
AcDbArc
50
90
51
180
0
ARC
5
785
100
AcDbEntity
8
0
100
AcDbCircle
10
-327.00000585988164
20
412.99999495968228
30
0
40
2.5000000000000089
210
0
220
0
230
1
100
AcDbArc
50
-155.02840738096597
51
70.481029492401646
0
ARC
5
786
100
AcDbEntity
8
0
100
AcDbCircle
10
-327.00000585988164
20
412.99999495968228
30
0
40
2.5000000000000089
210
0
220
0
230
1
100
AcDbArc
50
-155.02840738096597
51
70.481029492401646
0
LINE
5
787
100
AcDbEntity
8
0
100
AcDbLine
10
-340.00000227987766
20
363.00000540912151
30
0
11
-340.00000227987766
21
373.00000555813313
31
0
0
ARC
5
788
100
AcDbEntity
8
0
100
AcDbCircle
10
-316.00000369921332
20
402.99999481067061
30
0
40
20.999999999999943
210
0
220
0
230
1
100
AcDbArc
50
180
51
270
0
ARC
5
789
100
AcDbEntity
8
0
100
AcDbCircle
10
-327.00000585988164
20
392.99999466165906
30
0
40
2.50000000000006
210
-0
220
0
230
1
100
AcDbArc
50
-70.481029492402556
51
155.02840738096597
0
ARC
5
790
100
AcDbEntity
8
0
100
AcDbCircle
10
-316.00000369921332
20
402.99999481067067
30
0
40
20.999999999999943
210
0
220
-0
230
1
100
AcDbArc
50
90
51
180
0
ARC
5
791
100
AcDbEntity
8
0
100
AcDbCircle
10
-316.0000059343875
20
402.99999504908925
30
0
40
16.000000000000014
210
0
220
-0
230
1
100
AcDbArc
50
90
51
129.44178661720596
0
ARC
5
792
100
AcDbEntity
8
0
100
AcDbCircle
10
-316.00000369921332
20
402.99999481067067
30
0
40
20.999999999999943
210
0
220
-0
230
1
100
AcDbArc
50
90
51
180
0
ARC
5
793
100
AcDbEntity
8
0
100
AcDbCircle
10
-316.0000059343875
20
402.99999504908925
30
0
40
16.000000000000014
210
0
220
-0
230
1
100
AcDbArc
50
90
51
129.44178661720596
0
ARC
5
794
100
AcDbEntity
8
0
100
AcDbCircle
10
-316.0000059343875
20
402.99999504908925
30
0
40
16.000000000000014
210
0
220
-0
230
1
100
AcDbArc
50
90
51
129.44178661720596
0
ARC
5
795
100
AcDbEntity
8
0
100
AcDbCircle
10
-327.00000585988164
20
392.99999466165906
30
0
40
2.50000000000006
210
-0
220
0
230
1
100
AcDbArc
50
-70.481029492402556
51
155.02840738096597
0
ARC
5
796
100
AcDbEntity
8
0
100
AcDbCircle
10
-316.0000059343875
20
402.99999457225204
30
0
40
16.000000000000011
210
0
220
0
230
1
100
AcDbArc
50
230.55821338279415
51
270
0
ARC
5
797
100
AcDbEntity
8
0
100
AcDbCircle
10
-316.00000369921332
20
402.99999481067067
30
0
40
20.999999999999943
210
0
220
-0
230
1
100
AcDbArc
50
90
51
180
0
ARC
5
798
100
AcDbEntity
8
0
100
AcDbCircle
10
-316.0000059343875
20
402.99999504908925
30
0
40
16.000000000000014
210
0
220
-0
230
1
100
AcDbArc
50
90
51
129.44178661720596
0
ARC
5
799
100
AcDbEntity
8
0
100
AcDbCircle
10
-316.0000059343875
20
402.99999504908925
30
0
40
15.999999999999979
210
0
220
0
230
1
100
AcDbArc
50
146.01083549422975
51
180
0
ARC
5
800
100
AcDbEntity
8
0
100
AcDbCircle
10
-316.0000059343875
20
402.99999457225204
30
0
40
15.999999999999943
210
0
220
0
230
1
100
AcDbArc
50
180
51
213.98916450577011
0
LINE
5
801
100
AcDbEntity
8
0
100
AcDbLine
10
-337.00000232458115
20
360
30
0
11
-337.00000232458115
21
366.50000535696745
31
0
0
ARC
5
802
100
AcDbEntity
8
0
100
AcDbCircle
10
-316.0000059343875
20
402.99999504908925
30
0
40
15.999999999999979
210
0
220
0
230
1
100
AcDbArc
50
146.01083549422975
51
180
0
ARC
5
803
100
AcDbEntity
8
0
100
AcDbCircle
10
-316.0000059343875
20
402.99999457225204
30
0
40
15.999999999999943
210
0
220
0
230
1
100
AcDbArc
50
180
51
213.98916450577011
0
ARC
5
804
100
AcDbEntity
8
0
100
AcDbCircle
10
-316.0000059343875
20
402.99999504908925
30
0
40
15.999999999999979
210
0
220
0
230
1
100
AcDbArc
50
146.01083549422975
51
180
0
ARC
5
805
100
AcDbEntity
8
0
100
AcDbCircle
10
-316.0000059343875
20
402.99999457225204
30
0
40
15.999999999999943
210
0
220
0
230
1
100
AcDbArc
50
180
51
213.98916450577011
0
ARC
5
806
100
AcDbEntity
8
0
100
AcDbCircle
10
-316.0000059343875
20
402.99999504908925
30
0
40
15.999999999999979
210
0
220
0
230
1
100
AcDbArc
50
146.01083549422975
51
180
0
ARC
5
807
100
AcDbEntity
8
0
100
AcDbCircle
10
-316.0000059343875
20
402.99999504908925
30
0
40
15.999999999999979
210
0
220
0
230
1
100
AcDbArc
50
146.01083549422975
51
180
0
ARC
5
808
100
AcDbEntity
8
0
100
AcDbCircle
10
-316.0000059343875
20
402.99999504908925
30
0
40
15.999999999999979
210
0
220
0
230
1
100
AcDbArc
50
146.01083549422975
51
180
0
ARC
5
809
100
AcDbEntity
8
0
100
AcDbCircle
10
-316.0000059343875
20
402.99999457225204
30
0
40
15.999999999999943
210
0
220
0
230
1
100
AcDbArc
50
180
51
213.98916450577011
0
ARC
5
810
100
AcDbEntity
8
0
100
AcDbCircle
10
-316.0000059343875
20
402.99999457225204
30
0
40
15.999999999999943
210
0
220
0
230
1
100
AcDbArc
50
180
51
213.98916450577011
0
ARC
5
811
100
AcDbEntity
8
0
100
AcDbCircle
10
-316.0000059343875
20
402.99999504908925
30
0
40
15.999999999999979
210
0
220
0
230
1
100
AcDbArc
50
146.01083549422975
51
180
0
ARC
5
812
100
AcDbEntity
8
0
100
AcDbCircle
10
-316.0000059343875
20
402.99999457225204
30
0
40
15.999999999999943
210
0
220
0
230
1
100
AcDbArc
50
180
51
213.98916450577011
0
ARC
5
813
100
AcDbEntity
8
0
100
AcDbCircle
10
-316.0000059343875
20
402.99999457225204
30
0
40
15.999999999999943
210
0
220
0
230
1
100
AcDbArc
50
180
51
213.98916450577011
0
CIRCLE
5
814
100
AcDbEntity
8
0
100
AcDbCircle
10
-327.00000585988164
20
392.99999466165906
30
0
40
1.0000000149011612
210
-0
220
0
230
1
0
ARC
5
815
100
AcDbEntity
8
0
100
AcDbCircle
10
-316.0000059343875
20
402.99999504908925
30
0
40
15.999999999999979
210
0
220
0
230
1
100
AcDbArc
50
146.01083549422975
51
180
0
ARC
5
816
100
AcDbEntity
8
0
100
AcDbCircle
10
-316.0000059343875
20
402.99999457225204
30
0
40
15.999999999999943
210
0
220
0
230
1
100
AcDbArc
50
180
51
213.98916450577011
0
LINE
5
817
100
AcDbEntity
8
0
100
AcDbLine
10
-337.00000232458126
20
376
30
0
11
-337.00000232458115
21
369.50000561028719
31
0
0
CIRCLE
5
818
100
AcDbEntity
8
0
100
AcDbCircle
10
-327.00000585988164
20
412.99999495968228
30
0
40
1.0000000149011612
210
-0
220
0
230
1
0
CIRCLE
5
819
100
AcDbEntity
8
0
100
AcDbCircle
10
-327.00000585988164
20
392.99999466165906
30
0
40
1.0000000149011612
210
-0
220
0
230
1
0
CIRCLE
5
820
100
AcDbEntity
8
0
100
AcDbCircle
10
-327.00000585988164
20
412.99999495968228
30
0
40
1.0000000149011612
210
-0
220
0
230
1
0
LINE
5
821
100
AcDbEntity
8
0
100
AcDbLine
10
-346.00000227987766
20
363.00000540912151
30
0
11
-346.00000227987766
21
373.00000555813313
31
0
0
CIRCLE
5
822
100
AcDbEntity
8
0
100
AcDbCircle
10
-327.00000585988164
20
412.99999495968228
30
0
40
1.0000000149011612
210
-0
220
0
230
1
0
CIRCLE
5
823
100
AcDbEntity
8
0
100
AcDbCircle
10
-327.00000585988164
20
392.99999466165906
30
0
40
1.0000000149011612
210
-0
220
0
230
1
0
CIRCLE
5
824
100
AcDbEntity
8
0
100
AcDbCircle
10
-327.00000585988164
20
392.99999466165906
30
0
40
1.0000000149011612
210
-0
220
0
230
1
0
CIRCLE
5
825
100
AcDbEntity
8
0
100
AcDbCircle
10
-327.00000585988164
20
392.99999466165906
30
0
40
1.0000000149011612
210
-0
220
0
230
1
0
LINE
5
826
100
AcDbEntity
8
0
100
AcDbLine
10
-334.00000227987766
20
363.00000540912151
30
0
11
-334.00000227987766
21
373.00000555813313
31
0
0
CIRCLE
5
827
100
AcDbEntity
8
0
100
AcDbCircle
10
-327.00000585988164
20
412.99999495968228
30
0
40
1.0000000149011612
210
-0
220
0
230
1
0
CIRCLE
5
828
100
AcDbEntity
8
0
100
AcDbCircle
10
-327.00000585988164
20
412.99999495968228
30
0
40
1.0000000149011612
210
-0
220
0
230
1
0
CIRCLE
5
829
100
AcDbEntity
8
0
100
AcDbCircle
10
-327.00000585988164
20
412.99999495968228
30
0
40
1.0000000149011612
210
-0
220
0
230
1
0
CIRCLE
5
830
100
AcDbEntity
8
0
100
AcDbCircle
10
-327.00000585988164
20
412.99999495968228
30
0
40
1.0000000149011612
210
-0
220
0
230
1
0
CIRCLE
5
831
100
AcDbEntity
8
0
100
AcDbCircle
10
-327.00000585988164
20
412.99999495968228
30
0
40
1.0000000149011612
210
-0
220
0
230
1
0
ENDSEC
0
SECTION
2
OBJECTS
0
DICTIONARY
5
C
100
AcDbDictionary
3
ACAD_GROUP
350
D
3
ACAD_MLINESTYLE
350
17
0
DICTIONARY
5
D
100
AcDbDictionary
0
DICTIONARY
5
1A
330
C
100
AcDbDictionary
0
DICTIONARY
5
17
100
AcDbDictionary
0
ENDSEC
0
EOF
