0
SECTION
2
HEADER
9
$INSUNITS
70
4
9
$ACADVER
1
AC1014
9
$HANDSEED
5
FFFF
0
ENDSEC
0
SECTION
2
TABLES
0
TABLE
2
VPORT
5
8
100
AcDbSymbolTable
0
ENDTAB
0
TABLE
2
LTYPE
5
5
100
AcDbSymbolTable
0
LTYPE
5
14
100
AcDbSymbolTableRecord
100
AcDbLinetypeTableRecord
2
BYBLOCK
70
0
0
LTYPE
5
15
100
AcDbSymbolTableRecord
100
AcDbLinetypeTableRecord
2
BYLAYER
70
0
0
ENDTAB
0
TABLE
2
LAYER
5
2
100
AcDbSymbolTable
70
2
0
LAYER
5
50
100
AcDbSymbolTableRecord
100
AcDbLayerTableRecord
2
0
70
0
6
CONTINUOUS
0
ENDTAB
0
TABLE
2
STYLE
5
3
100
AcDbSymbolTable
70
1
0
STYLE
5
11
100
AcDbSymbolTableRecord
100
AcDbTextStyleTableRecord
2
STANDARD
70
0
0
ENDTAB
0
TABLE
2
VIEW
5
6
100
AcDbSymbolTable
70
0
0
ENDTAB
0
TABLE
2
UCS
5
7
100
AcDbSymbolTable
70
0
0
ENDTAB
0
TABLE
2
APPID
5
9
100
AcDbSymbolTable
70
2
0
APPID
5
12
100
AcDbSymbolTableRecord
100
AcDbRegAppTableRecord
2
ACAD
70
0
0
ENDTAB
0
TABLE
2
DIMSTYLE
5
A
100
AcDbSymbolTable
70
1
0
ENDTAB
0
TABLE
2
BLOCK_RECORD
5
1
100
AcDbSymbolTable
70
1
0
BLOCK_RECORD
5
1F
100
AcDbSymbolTableRecord
100
AcDbBlockTableRecord
2
*MODEL_SPACE
0
BLOCK_RECORD
5
1B
100
AcDbSymbolTableRecord
100
AcDbBlockTableRecord
2
*PAPER_SPACE
0
ENDTAB
0
ENDSEC
0
SECTION
2
BLOCKS
0
BLOCK
5
20
100
AcDbEntity
100
AcDbBlockBegin
2
*MODEL_SPACE
0
ENDBLK
5
21
100
AcDbEntity
100
AcDbBlockEnd
0
BLOCK
5
1C
100
AcDbEntity
100
AcDbBlockBegin
2
*PAPER_SPACE
0
ENDBLK
5
1D
100
AcDbEntity
100
AcDbBlockEnd
0
ENDSEC
0
SECTION
2
ENTITIES
0
CIRCLE
5
100
100
AcDbEntity
8
0
100
AcDbCircle
10
-303
20
-102.99999999999997
30
0
40
42.00000062584877
210
0
220
0
230
1
0
CIRCLE
5
101
100
AcDbEntity
8
0
100
AcDbCircle
10
-313.00000014901161
20
42.000002160668387
30
0
40
1.0000000149011612
210
0
220
0
230
1
0
ARC
5
102
100
AcDbEntity
8
0
100
AcDbCircle
10
-303.00000000000006
20
31.000000000000032
30
0
40
20.999999999999979
210
0
220
-0
230
1
100
AcDbArc
50
89.999999999999844
51
180
0
CIRCLE
5
103
100
AcDbEntity
8
0
100
AcDbCircle
10
-303
20
-102.99999999999997
30
0
40
35.000000521540642
210
0
220
0
230
1
0
CIRCLE
5
104
100
AcDbEntity
8
0
100
AcDbCircle
10
-303
20
-102.99999999999997
30
0
40
35.000000521540642
210
0
220
0
230
1
0
CIRCLE
5
105
100
AcDbEntity
8
0
100
AcDbCircle
10
-303
20
-102.99999999999997
30
0
40
38.000000566244125
210
0
220
0
230
1
0
LWPOLYLINE
5
106
100
AcDbEntity
8
0
100
AcDbPolyline
90
2
70
1
43
0.0
10
-329.31313979545803
20
-60.483901000859888
42
3.5159657767298551
10
-276.6868602045414
20
-60.483901000860207
42
-3.5159657767298551
0
LINE
5
107
100
AcDbEntity
8
0
100
AcDbLine
10
-286.99999976158142
20
-50.499999254941912
30
0
11
-286.99999976158142
21
31.000002235174176
31
0
0
ARC
5
108
100
AcDbEntity
8
0
100
AcDbCircle
10
-319.00000023841858
20
-52.999999254941912
30
0
40
2.5
210
-0
220
0
230
1
100
AcDbArc
50
0
51
90
0
ARC
5
109
100
AcDbEntity
8
0
100
AcDbCircle
10
-303.00000000000006
20
31.000000000000032
30
0
40
20.999999999999979
210
0
220
-0
230
1
100
AcDbArc
50
89.999999999999844
51
180
0
ARC
5
110
100
AcDbEntity
8
0
100
AcDbCircle
10
-286.99999976158142
20
-52.999999254941912
30
0
40
2.5
210
0
220
-0
230
1
100
AcDbArc
50
90
51
180
0
ARC
5
111
100
AcDbEntity
8
0
100
AcDbCircle
10
-269.00000000000006
20
-50
30
0
40
12.999999999999972
210
0
220
0
230
1
100
AcDbArc
50
180
51
240.88798753801748
0
ARC
5
112
100
AcDbEntity
8
0
100
AcDbCircle
10
-303
20
-102.99999999999997
30
0
40
42.00000062584877
210
0
220
-0
230
1
100
AcDbArc
50
82.516762641036877
51
97.483237358963123
0
ARC
5
113
100
AcDbEntity
8
0
100
AcDbCircle
10
-302.99999976158142
20
31.000002235174193
30
0
40
15.999999999999979
210
-0
220
0
230
1
100
AcDbArc
50
0
51
39.441786617206041
0
ARC
5
114
100
AcDbEntity
8
0
100
AcDbCircle
10
-303
20
31.000000000000032
30
0
40
20.999999999999979
210
-0
220
0
230
1
100
AcDbArc
50
0
51
90
0
CIRCLE
5
115
100
AcDbEntity
8
0
100
AcDbCircle
10
-292.99999985098839
20
42.000002160668387
30
0
40
1.0000000149011612
210
0
220
0
230
1
0
ARC
5
116
100
AcDbEntity
8
0
100
AcDbCircle
10
-292.99999985098839
20
42.000002160668387
30
0
40
2.4999999999999951
210
0
220
0
230
1
100
AcDbArc
50
114.97159261903271
51
340.4810294924024
0
ARC
5
117
100
AcDbEntity
8
0
100
AcDbCircle
10
-303.00000023841858
20
31.000002235174193
30
0
40
16.000000000000021
210
0
220
0
230
1
100
AcDbArc
50
140.55821338279401
51
180
0
LINE
5
118
100
AcDbEntity
8
0
100
AcDbLine
10
-316.50000023841858
20
-52.999999254941912
30
0
11
-289.49999976158142
21
-52.999999254941912
31
0
0
CIRCLE
5
119
100
AcDbEntity
8
0
100
AcDbCircle
10
-286.99999976158142
20
-52.999999254941912
30
0
40
1.0000000000000009
210
0
220
0
230
1
0
ARC
5
120
100
AcDbEntity
8
0
100
AcDbCircle
10
-319.00000023841858
20
-52.999999254941912
30
0
40
2.5
210
-0
220
0
230
1
100
AcDbArc
50
0
51
90
0
ARC
5
121
100
AcDbEntity
8
0
100
AcDbCircle
10
-269.00000000000006
20
-50
30
0
40
12.999999999999972
210
0
220
0
230
1
100
AcDbArc
50
180
51
240.88798753801748
0
ARC
5
122
100
AcDbEntity
8
0
100
AcDbCircle
10
-302.99999976158142
20
31.000002235174193
30
0
40
15.999999999999979
210
-0
220
0
230
1
100
AcDbArc
50
0
51
39.441786617206041
0
ARC
5
123
100
AcDbEntity
8
0
100
AcDbCircle
10
-286.99999976158142
20
-52.999999254941912
30
0
40
2.5
210
0
220
-0
230
1
100
AcDbArc
50
90
51
180
0
CIRCLE
5
124
100
AcDbEntity
8
0
100
AcDbCircle
10
-303
20
-102.99999999999997
30
0
40
38.000000566244125
210
0
220
0
230
1
0
ARC
5
125
100
AcDbEntity
8
0
100
AcDbCircle
10
-303.00000023841858
20
31.000002235174193
30
0
40
16.000000000000021
210
0
220
0
230
1
100
AcDbArc
50
140.55821338279401
51
180
0
CIRCLE
5
126
100
AcDbEntity
8
0
100
AcDbCircle
10
-313.00000014901161
20
42.000002160668387
30
0
40
1.0000000149011612
210
0
220
0
230
1
0
LINE
5
127
100
AcDbEntity
8
0
100
AcDbLine
10
-282
20
-50
30
0
11
-282
21
31.000000000000014
31
0
0
CIRCLE
5
128
100
AcDbEntity
8
0
100
AcDbCircle
10
-286.99999976158142
20
-52.999999254941912
30
0
40
1.0000000000000009
210
0
220
0
230
1
0
LINE
5
129
100
AcDbEntity
8
0
100
AcDbLine
10
-286.99999976158142
20
-50.499999254941912
30
0
11
-286.99999976158142
21
31.000002235174176
31
0
0
LINE
5
130
100
AcDbEntity
8
0
100
AcDbLine
10
-282
20
-50
30
0
11
-282
21
31.000000000000014
31
0
0
ARC
5
131
100
AcDbEntity
8
0
100
AcDbCircle
10
-303
20
31.000000000000032
30
0
40
20.999999999999979
210
-0
220
0
230
1
100
AcDbArc
50
0
51
90
0
LINE
5
132
100
AcDbEntity
8
0
100
AcDbLine
10
-316.50000023841858
20
-52.999999254941912
30
0
11
-289.49999976158142
21
-52.999999254941912
31
0
0
ARC
5
133
100
AcDbEntity
8
0
100
AcDbCircle
10
-337
20
-50
30
0
40
13.000000000000009
210
-0
220
0
230
1
100
AcDbArc
50
-60.887987538017271
51
0
0
ARC
5
134
100
AcDbEntity
8
0
100
AcDbCircle
10
-292.99999985098839
20
42.000002160668387
30
0
40
2.4999999999999951
210
0
220
0
230
1
100
AcDbArc
50
114.97159261903271
51
340.4810294924024
0
LINE
5
135
100
AcDbEntity
8
0
100
AcDbLine
10
-319.00000023841858
20
31.000002235174176
30
0
11
-319.00000023841858
21
-50.499999254941912
31
0
0
CIRCLE
5
136
100
AcDbEntity
8
0
100
AcDbCircle
10
-319.00000023841858
20
-52.999999254941912
30
0
40
0.99999999999999933
210
0
220
0
230
1
0
CIRCLE
5
137
100
AcDbEntity
8
0
100
AcDbCircle
10
-319.00000023841858
20
-52.999999254941912
30
0
40
0.99999999999999933
210
0
220
0
230
1
0
LINE
5
138
100
AcDbEntity
8
0
100
AcDbLine
10
-324
20
31.000000000000014
30
0
11
-324.00000000000006
21
-50
31
0
0
LINE
5
139
100
AcDbEntity
8
0
100
AcDbLine
10
-324
20
31.000000000000014
30
0
11
-324.00000000000006
21
-50
31
0
0
ARC
5
140
100
AcDbEntity
8
0
100
AcDbCircle
10
-313.00000014901161
20
42.000002160668387
30
0
40
2.4999999999999929
210
0
220
0
230
1
100
AcDbArc
50
-160.48102949240209
51
65.028407380966101
0
LINE
5
141
100
AcDbEntity
8
0
100
AcDbLine
10
-319.00000023841858
20
31.000002235174176
30
0
11
-319.00000023841858
21
-50.499999254941912
31
0
0
CIRCLE
5
142
100
AcDbEntity
8
0
100
AcDbCircle
10
-292.99999985098839
20
42.000002160668387
30
0
40
1.0000000149011612
210
0
220
0
230
1
0
ARC
5
143
100
AcDbEntity
8
0
100
AcDbCircle
10
-313.00000014901161
20
42.000002160668387
30
0
40
2.4999999999999929
210
0
220
0
230
1
100
AcDbArc
50
-160.48102949240209
51
65.028407380966101
0
ARC
5
144
100
AcDbEntity
8
0
100
AcDbCircle
10
-337
20
-50
30
0
40
13.000000000000009
210
-0
220
0
230
1
100
AcDbArc
50
-60.887987538017271
51
0
0
ENDSEC
0
SECTION
2
OBJECTS
0
DICTIONARY
5
C
100
AcDbDictionary
3
ACAD_GROUP
350
D
3
ACAD_MLINESTYLE
350
17
0
DICTIONARY
5
D
100
AcDbDictionary
0
DICTIONARY
5
1A
330
C
100
AcDbDictionary
0
DICTIONARY
5
17
100
AcDbDictionary
0
ENDSEC
0
EOF
