0
SECTION
2
HEADER
9
$INSUNITS
70
4
9
$ACADVER
1
AC1014
9
$HANDSEED
5
FFFF
0
ENDSEC
0
SECTION
2
TABLES
0
TABLE
2
VPORT
5
8
100
AcDbSymbolTable
0
ENDTAB
0
TABLE
2
LTYPE
5
5
100
AcDbSymbolTable
0
LTYPE
5
14
100
AcDbSymbolTableRecord
100
AcDbLinetypeTableRecord
2
BYBLOCK
70
0
0
LTYPE
5
15
100
AcDbSymbolTableRecord
100
AcDbLinetypeTableRecord
2
BYLAYER
70
0
0
ENDTAB
0
TABLE
2
LAYER
5
2
100
AcDbSymbolTable
70
2
0
LAYER
5
50
100
AcDbSymbolTableRecord
100
AcDbLayerTableRecord
2
0
70
0
6
CONTINUOUS
0
ENDTAB
0
TABLE
2
STYLE
5
3
100
AcDbSymbolTable
70
1
0
STYLE
5
11
100
AcDbSymbolTableRecord
100
AcDbTextStyleTableRecord
2
STANDARD
70
0
0
ENDTAB
0
TABLE
2
VIEW
5
6
100
AcDbSymbolTable
70
0
0
ENDTAB
0
TABLE
2
UCS
5
7
100
AcDbSymbolTable
70
0
0
ENDTAB
0
TABLE
2
APPID
5
9
100
AcDbSymbolTable
70
2
0
APPID
5
12
100
AcDbSymbolTableRecord
100
AcDbRegAppTableRecord
2
ACAD
70
0
0
ENDTAB
0
TABLE
2
DIMSTYLE
5
A
100
AcDbSymbolTable
70
1
0
ENDTAB
0
TABLE
2
BLOCK_RECORD
5
1
100
AcDbSymbolTable
70
1
0
BLOCK_RECORD
5
1F
100
AcDbSymbolTableRecord
100
AcDbBlockTableRecord
2
*MODEL_SPACE
0
BLOCK_RECORD
5
1B
100
AcDbSymbolTableRecord
100
AcDbBlockTableRecord
2
*PAPER_SPACE
0
ENDTAB
0
ENDSEC
0
SECTION
2
BLOCKS
0
BLOCK
5
20
100
AcDbEntity
100
AcDbBlockBegin
2
*MODEL_SPACE
0
ENDBLK
5
21
100
AcDbEntity
100
AcDbBlockEnd
0
BLOCK
5
1C
100
AcDbEntity
100
AcDbBlockBegin
2
*PAPER_SPACE
0
ENDBLK
5
1D
100
AcDbEntity
100
AcDbBlockEnd
0
ENDSEC
0
SECTION
2
ENTITIES
0
LINE
5
100
100
AcDbEntity
8
0
100
AcDbLine
10
1.6763806343078613e-07
20
7.4999998323619366
30
0
11
-10.000000260770321
21
7.4999998323619366
31
0
0
LINE
5
101
100
AcDbEntity
8
0
100
AcDbLine
10
49.999999366700649
20
-9.9999995157122612
30
0
11
42.5
21
-9.9999995157122612
31
0
0
LINE
5
102
100
AcDbEntity
8
0
100
AcDbLine
10
42.5
20
-25.000000484287739
30
0
11
42.5
21
-9.9999995157122612
31
0
0
LINE
5
103
100
AcDbEntity
8
0
100
AcDbLine
10
49.999999366700649
20
7.4999998323619366
30
0
11
49.999999366700649
21
17.499999515712261
31
0
0
LWPOLYLINE
5
104
100
AcDbEntity
8
0
100
AcDbPolyline
90
2
70
1
43
0.0
10
85
20
17.499999515712261
10
85.000000167638063
20
7.4999998323619366
0
LINE
5
105
100
AcDbEntity
8
0
100
AcDbLine
10
59.999999515712261
20
0
30
0
11
59.999999515712261
21
7.4999998323619366
31
0
0
LINE
5
106
100
AcDbEntity
8
0
100
AcDbLine
10
49.999999366700649
20
17.499999515712261
30
0
11
42.5
21
17.499999515712261
31
0
0
LINE
5
107
100
AcDbEntity
8
0
100
AcDbLine
10
92.499999366700649
20
17.499999515712261
30
0
11
85
21
17.499999515712261
31
0
0
LINE
5
108
100
AcDbEntity
8
0
100
AcDbLine
10
49.999999366700649
20
-35.000000167638063
30
0
11
42.500000167638063
21
-35.000000167638063
31
0
0
LINE
5
109
100
AcDbEntity
8
0
100
AcDbLine
10
59.999999515712261
20
0
30
0
11
74.999999739229679
21
0
31
0
0
LINE
5
110
100
AcDbEntity
8
0
100
AcDbLine
10
59.999999515712261
20
7.4999998323619366
30
0
11
49.999999366700649
21
7.4999998323619366
31
0
0
LINE
5
111
100
AcDbEntity
8
0
100
AcDbLine
10
49.999999366700649
20
-25.000000484287739
30
0
11
49.999999366700649
21
-35.000000167638063
31
0
0
LINE
5
112
100
AcDbEntity
8
0
100
AcDbLine
10
49.999999366700649
20
-25.000000484287739
30
0
11
42.5
21
-25.000000484287739
31
0
0
LINE
5
113
100
AcDbEntity
8
0
100
AcDbLine
10
42.5
20
6.3329935073852539e-07
30
0
11
42.500183472557545
21
6.3329935073852539e-07
31
0
0
LINE
5
114
100
AcDbEntity
8
0
100
AcDbLine
10
92.499999366700649
20
17.499999515712261
30
0
11
92.499999366700649
21
25
31
0
0
LINE
5
115
100
AcDbEntity
8
0
100
AcDbLine
10
85.000000167638063
20
7.4999998323619366
30
0
11
74.999999739229679
21
7.4999998323619366
31
0
0
LINE
5
116
100
AcDbEntity
8
0
100
AcDbLine
10
74.999999739229679
20
0
30
0
11
74.999999739229679
21
7.4999998323619366
31
0
0
LINE
5
117
100
AcDbEntity
8
0
100
AcDbLine
10
50
20
0
30
0
11
49.999999366700649
21
7.4999998323619366
31
0
0
LINE
5
118
100
AcDbEntity
8
0
100
AcDbLine
10
42.500000633299351
20
17.499999515712261
30
0
11
42.500000633299351
21
25
31
0
0
LINE
5
119
100
AcDbEntity
8
0
100
AcDbLine
10
50
20
0
30
0
11
49.999999366700649
21
-9.9999995157122612
31
0
0
LINE
5
120
100
AcDbEntity
8
0
100
AcDbLine
10
85.000000167638063
20
7.4999998323619366
30
0
11
85
21
17.499999515712261
31
0
0
LINE
5
121
100
AcDbEntity
8
0
100
AcDbLine
10
-10.000000149011612
20
42.500000633299351
30
0
11
1.6763806343078613e-07
21
42.500000633299351
31
0
0
LINE
5
122
100
AcDbEntity
8
0
100
AcDbLine
10
42.5
20
-84.999999366700649
30
0
11
42.500183472557545
21
-84.999999366700649
31
0
0
LINE
5
123
100
AcDbEntity
8
0
100
AcDbLine
10
49.999999366700649
20
-77.500000167638063
30
0
11
49.999999366700649
21
-67.500000484287739
31
0
0
LINE
5
124
100
AcDbEntity
8
0
100
AcDbLine
10
50
20
-85
30
0
11
49.999999366700649
21
-77.500000167638063
31
0
0
LINE
5
125
100
AcDbEntity
8
0
100
AcDbLine
10
42.500000633299351
20
-52.499999515712261
30
0
11
42.500000633299351
21
-60
31
0
0
LINE
5
126
100
AcDbEntity
8
0
100
AcDbLine
10
49.999999366700649
20
-67.500000484287739
30
0
11
42.5
21
-67.500000484287739
31
0
0
LINE
5
127
100
AcDbEntity
8
0
100
AcDbLine
10
42.500000633299351
20
-67.500000484287739
30
0
11
42.500000633299351
21
-60
31
0
0
LINE
5
128
100
AcDbEntity
8
0
100
AcDbLine
10
49.999999366700649
20
-52.499999515712261
30
0
11
42.499999366700649
21
-52.499999515712261
31
0
0
LINE
5
129
100
AcDbEntity
8
0
100
AcDbLine
10
-25.000000484287739
20
7.4999998323619366
30
0
11
-35.000000633299351
21
7.4999998323619366
31
0
0
LINE
5
130
100
AcDbEntity
8
0
100
AcDbLine
10
50
20
-35
30
0
11
50
21
-52.499999515712261
31
0
0
LINE
5
131
100
AcDbEntity
8
0
100
AcDbLine
10
-35.000000633299351
20
17.499999515712261
30
0
11
-42.5
21
17.499999515712261
31
0
0
LINE
5
132
100
AcDbEntity
8
0
100
AcDbLine
10
-10.000000260770321
20
0
30
0
11
-10.000000260770321
21
7.4999998323619366
31
0
0
LINE
5
133
100
AcDbEntity
8
0
100
AcDbLine
10
-25.000000484287739
20
0
30
0
11
-25.000000484287739
21
7.4999998323619366
31
0
0
LINE
5
134
100
AcDbEntity
8
0
100
AcDbLine
10
-25.000000484287739
20
0
30
0
11
-10.000000260770321
21
0
31
0
0
LINE
5
135
100
AcDbEntity
8
0
100
AcDbLine
10
-35.000000633299351
20
7.4999998323619366
30
0
11
-35.000000633299351
21
17.499999515712261
31
0
0
LINE
5
136
100
AcDbEntity
8
0
100
AcDbLine
10
7.4999993667006493
20
32.500000484287739
30
0
11
7.4999993667006493
21
25
31
0
0
LINE
5
137
100
AcDbEntity
8
0
100
AcDbLine
10
92.499999366700649
20
32.500000484287739
30
0
11
92.499999366700649
21
25
31
0
0
LINE
5
138
100
AcDbEntity
8
0
100
AcDbLine
10
-35.000000633299351
20
32.500000484287739
30
0
11
-35.000000633299351
21
42.500000633299351
31
0
0
LINE
5
139
100
AcDbEntity
8
0
100
AcDbLine
10
-10.000000149011612
20
42.500000633299351
30
0
11
-10.000000149011612
21
50
31
0
0
LINE
5
140
100
AcDbEntity
8
0
100
AcDbLine
10
42.500000633299351
20
32.500000484287739
30
0
11
42.500000633299351
21
25
31
0
0
LINE
5
141
100
AcDbEntity
8
0
100
AcDbLine
10
-17.5
20
50
30
0
11
-25.00000037252903
21
50
31
0
0
LINE
5
142
100
AcDbEntity
8
0
100
AcDbLine
10
-10.000000149011612
20
50
30
0
11
-17.5
21
50
31
0
0
LINE
5
143
100
AcDbEntity
8
0
100
AcDbLine
10
32.500000260770321
20
85
30
0
11
50
21
85
31
0
0
CIRCLE
5
144
100
AcDbEntity
8
0
100
AcDbCircle
10
-27.500000521540642
20
25
30
0
40
0.99999964237213135
210
0
220
0
230
1
0
LINE
5
145
100
AcDbEntity
8
0
100
AcDbLine
10
32.499999850988388
20
-84.999999366700649
30
0
11
42.500000167638063
21
-84.999999366700649
31
0
0
LINE
5
146
100
AcDbEntity
8
0
100
AcDbLine
10
-25.00000037252903
20
50
30
0
11
-25.00000037252903
21
42.500000633299351
31
0
0
LINE
5
147
100
AcDbEntity
8
0
100
AcDbLine
10
-42.500000633299351
20
32.500000484287739
30
0
11
-42.5
21
17.499999515712261
31
0
0
LINE
5
148
100
AcDbEntity
8
0
100
AcDbLine
10
-35.000000633299351
20
32.500000484287739
30
0
11
-42.500000633299351
21
32.500000484287739
31
0
0
LINE
5
149
100
AcDbEntity
8
0
100
AcDbLine
10
32.500000260770321
20
-35
30
0
11
50
21
-35
31
0
0
LINE
5
150
100
AcDbEntity
8
0
100
AcDbLine
10
32.500000260770321
20
50
30
0
11
50
21
50
31
0
0
LINE
5
151
100
AcDbEntity
8
0
100
AcDbLine
10
-35.000000633299351
20
42.500000633299351
30
0
11
-25.00000037252903
21
42.500000633299351
31
0
0
LINE
5
152
100
AcDbEntity
8
0
100
AcDbLine
10
42.500000167638063
20
49.999999832361937
30
0
11
32.499999739229679
21
49.999999832361937
31
0
0
LINE
5
153
100
AcDbEntity
8
0
100
AcDbLine
10
59.99999962747097
20
50
30
0
11
59.99999962747097
21
42.500000633299351
31
0
0
LINE
5
154
100
AcDbEntity
8
0
100
AcDbLine
10
42.500000167638063
20
-35.000000167638063
30
0
11
32.499999739229679
21
-35.000000167638063
31
0
0
LINE
5
155
100
AcDbEntity
8
0
100
AcDbLine
10
67.5
20
50
30
0
11
59.99999962747097
21
50
31
0
0
LINE
5
156
100
AcDbEntity
8
0
100
AcDbLine
10
85
20
42.500000633299351
30
0
11
85.000183472557538
21
42.500000633299351
31
0
0
LINE
5
157
100
AcDbEntity
8
0
100
AcDbLine
10
-3.166496753692627e-07
20
49.999999832361937
30
0
11
0
21
59.999999515712261
31
0
0
LINE
5
158
100
AcDbEntity
8
0
100
AcDbLine
10
49.999999366700649
20
75.000000484287739
30
0
11
42.5
21
75.000000484287739
31
0
0
LINE
5
159
100
AcDbEntity
8
0
100
AcDbLine
10
0
20
60
30
0
11
0
21
50
31
0
0
LINE
5
160
100
AcDbEntity
8
0
100
AcDbLine
10
31.241906197172145
20
-42.499999366700649
30
0
11
32.500000260770321
21
-42.499999366700649
31
0
0
LINE
5
161
100
AcDbEntity
8
0
100
AcDbLine
10
74.999999850988388
20
42.500000633299351
30
0
11
85.000000167638063
21
42.500000633299351
31
0
0
LINE
5
162
100
AcDbEntity
8
0
100
AcDbLine
10
49.999999366700649
20
49.999999832361937
30
0
11
42.500000167638063
21
49.999999832361937
31
0
0
LINE
5
163
100
AcDbEntity
8
0
100
AcDbLine
10
32.499999850988388
20
6.3329935073852539e-07
30
0
11
42.500000167638063
21
6.3329935073852539e-07
31
0
0
LINE
5
164
100
AcDbEntity
8
0
100
AcDbLine
10
74.999999850988388
20
42.500000633299351
30
0
11
74.999999850988388
21
50
31
0
0
LINE
5
165
100
AcDbEntity
8
0
100
AcDbLine
10
32.500000260770321
20
-85
30
0
11
50
21
-85
31
0
0
LINE
5
166
100
AcDbEntity
8
0
100
AcDbLine
10
49.999999366700649
20
59.999999515712261
30
0
11
49.999999366700649
21
49.999999832361937
31
0
0
LINE
5
167
100
AcDbEntity
8
0
100
AcDbLine
10
7.4999993667006493
20
75.000000484287739
30
0
11
-6.3329935073852539e-07
21
75.000000484287739
31
0
0
LINE
5
168
100
AcDbEntity
8
0
100
AcDbLine
10
42.5
20
59.999999515712261
30
0
11
42.5
21
75.000000484287739
31
0
0
LINE
5
169
100
AcDbEntity
8
0
100
AcDbLine
10
49.999999366700649
20
42.500000633299351
30
0
11
59.99999962747097
21
42.500000633299351
31
0
0
LINE
5
170
100
AcDbEntity
8
0
100
AcDbLine
10
7.4999993667006493
20
32.500000484287739
30
0
11
0
21
32.500000484287739
31
0
0
LWPOLYLINE
5
171
100
AcDbEntity
8
0
100
AcDbPolyline
90
2
70
1
43
0.0
10
85.000000167638063
20
42.500000633299351
10
85
20
32.500000484287739
0
LINE
5
172
100
AcDbEntity
8
0
100
AcDbLine
10
32.499999850988388
20
85.000000633299351
30
0
11
32.499999850988388
21
92.5
31
0
0
LINE
5
173
100
AcDbEntity
8
0
100
AcDbLine
10
17.499999739229679
20
42.500000633299351
30
0
11
17.499999739229679
21
50
31
0
0
LINE
5
174
100
AcDbEntity
8
0
100
AcDbLine
10
49.999999366700649
20
59.999999515712261
30
0
11
42.5
21
59.999999515712261
31
0
0
LINE
5
175
100
AcDbEntity
8
0
100
AcDbLine
10
50
20
85
30
0
11
49.999999366700649
21
75.000000484287739
31
0
0
LINE
5
176
100
AcDbEntity
8
0
100
AcDbLine
10
17.499999515712261
20
42.5
30
0
11
17.499999515712261
21
49.999999832361937
31
0
0
LINE
5
177
100
AcDbEntity
8
0
100
AcDbLine
10
-6.3329935073852539e-07
20
75.000000484287739
30
0
11
0
21
85
31
0
0
LINE
5
178
100
AcDbEntity
8
0
100
AcDbLine
10
0
20
42.500000633299351
30
0
11
0
21
50
31
0
0
LINE
5
179
100
AcDbEntity
8
0
100
AcDbLine
10
85
20
42.500000633299351
30
0
11
85
21
32.500000484287739
31
0
0
LWPOLYLINE
5
180
100
AcDbEntity
8
0
100
AcDbPolyline
90
2
70
1
43
0.0
10
0
20
42.500000633299351
10
0
20
32.500000484287739
0
LINE
5
181
100
AcDbEntity
8
0
100
AcDbLine
10
50
20
50
30
0
11
50
21
32.500000484287739
31
0
0
LINE
5
182
100
AcDbEntity
8
0
100
AcDbLine
10
25
20
92.5
30
0
11
17.49999962747097
21
92.5
31
0
0
LINE
5
183
100
AcDbEntity
8
0
100
AcDbLine
10
74.999999850988388
20
50
30
0
11
67.5
21
50
31
0
0
CIRCLE
5
184
100
AcDbEntity
8
0
100
AcDbCircle
10
14.999999478459358
20
-17.5
30
0
40
0.99999964237213135
210
0
220
0
230
1
0
LINE
5
185
100
AcDbEntity
8
0
100
AcDbLine
10
32.499999739229679
20
42.5
30
0
11
32.499999739229679
21
49.999999832361937
31
0
0
CIRCLE
5
186
100
AcDbEntity
8
0
100
AcDbCircle
10
14.999999478459358
20
67.5
30
0
40
0.99999964237213135
210
0
220
0
230
1
0
LINE
5
187
100
AcDbEntity
8
0
100
AcDbLine
10
7.4999993667006493
20
59.999999515712261
30
0
11
0
21
59.999999515712261
31
0
0
LINE
5
188
100
AcDbEntity
8
0
100
AcDbLine
10
0
20
42.500000633299351
30
0
11
0.00018347255754669334
21
42.500000633299351
31
0
0
LINE
5
189
100
AcDbEntity
8
0
100
AcDbLine
10
49.999999366700649
20
32.500000484287739
30
0
11
42.499999366700649
21
32.500000484287739
31
0
0
LINE
5
190
100
AcDbEntity
8
0
100
AcDbLine
10
92.499999366700649
20
32.500000484287739
30
0
11
85
21
32.500000484287739
31
0
0
LINE
5
191
100
AcDbEntity
8
0
100
AcDbLine
10
17.499999515712261
20
42.5
30
0
11
32.499999739229679
21
42.5
31
0
0
LINE
5
192
100
AcDbEntity
8
0
100
AcDbLine
10
25
20
92.499999366700649
30
0
11
32.500000260770321
21
92.499999366700649
31
0
0
LINE
5
193
100
AcDbEntity
8
0
100
AcDbLine
10
7.4999993667006493
20
75.000000484287739
30
0
11
7.4999993667006493
21
59.999999515712261
31
0
0
LINE
5
194
100
AcDbEntity
8
0
100
AcDbLine
10
7.4999993667006493
20
49.999999832361937
30
0
11
-3.166496753692627e-07
21
49.999999832361937
31
0
0
LINE
5
195
100
AcDbEntity
8
0
100
AcDbLine
10
31.241906197172145
20
-42.499999366700649
30
0
11
32.499999739229679
21
-42.5
31
0
0
LINE
5
196
100
AcDbEntity
8
0
100
AcDbLine
10
32.500000260770321
20
0
30
0
11
50
21
0
31
0
0
LINE
5
197
100
AcDbEntity
8
0
100
AcDbLine
10
25
20
42.500000633299351
30
0
11
32.500000260770321
21
42.500000633299351
31
0
0
LINE
5
198
100
AcDbEntity
8
0
100
AcDbLine
10
17.499999515712261
20
49.999999832361937
30
0
11
7.4999993667006493
21
49.999999832361937
31
0
0
LINE
5
199
100
AcDbEntity
8
0
100
AcDbLine
10
25
20
42.500000633299351
30
0
11
17.499999739229679
21
42.500000633299351
31
0
0
LINE
5
200
100
AcDbEntity
8
0
100
AcDbLine
10
32.500000260770321
20
42.500000633299351
30
0
11
32.500000260770321
21
50
31
0
0
LINE
5
201
100
AcDbEntity
8
0
100
AcDbLine
10
17.499999739229679
20
50
30
0
11
0
21
50
31
0
0
LINE
5
202
100
AcDbEntity
8
0
100
AcDbLine
10
31.241906197172145
20
42.500000633299351
30
0
11
36.000000536441803
21
42.500000633299351
31
0
0
LINE
5
203
100
AcDbEntity
8
0
100
AcDbLine
10
17.499999739229679
20
92.499999366700649
30
0
11
17.499999739229679
21
85
31
0
0
LINE
5
204
100
AcDbEntity
8
0
100
AcDbLine
10
1.6763806343078613e-07
20
42.500000633299351
30
0
11
0
21
32.500000484287739
31
0
0
LINE
5
205
100
AcDbEntity
8
0
100
AcDbLine
10
7.4999993667006493
20
-9.9999995157122612
30
0
11
7.4999993667006493
21
-25.000000484287739
31
0
0
LINE
5
206
100
AcDbEntity
8
0
100
AcDbLine
10
17.499999739229679
20
85
30
0
11
0
21
85
31
0
0
LINE
5
207
100
AcDbEntity
8
0
100
AcDbLine
10
-3.166496753692627e-07
20
-35.000000167638063
30
0
11
0
21
-25.000000484287739
31
0
0
LINE
5
208
100
AcDbEntity
8
0
100
AcDbLine
10
32.499999850988388
20
-84.999999366700649
30
0
11
32.499999850988388
21
-77.5
31
0
0
LINE
5
209
100
AcDbEntity
8
0
100
AcDbLine
10
25
20
7.4999993667006493
30
0
11
17.499999739229679
21
7.4999993667006493
31
0
0
LINE
5
210
100
AcDbEntity
8
0
100
AcDbLine
10
32.500000260770321
20
-77.500000633299351
30
0
11
32.500000260770321
21
-85
31
0
0
LINE
5
211
100
AcDbEntity
8
0
100
AcDbLine
10
25
20
7.5
30
0
11
17.49999962747097
21
7.5
31
0
0
LINE
5
212
100
AcDbEntity
8
0
100
AcDbLine
10
0
20
-85
30
0
11
0
21
-67.500000484287739
31
0
0
LINE
5
213
100
AcDbEntity
8
0
100
AcDbLine
10
7.4999993667006493
20
-35.000000167638063
30
0
11
-3.166496753692627e-07
21
-35.000000167638063
31
0
0
LINE
5
214
100
AcDbEntity
8
0
100
AcDbLine
10
0
20
-85
30
0
11
0
21
-67.500000484287739
31
0
0
LINE
5
215
100
AcDbEntity
8
0
100
AcDbLine
10
17.49999962747097
20
-77.5
30
0
11
17.49999962747097
21
-84.999999366700649
31
0
0
LINE
5
216
100
AcDbEntity
8
0
100
AcDbLine
10
0
20
17.499999515712261
30
0
11
1.6763806343078613e-07
21
7.4999998323619366
31
0
0
LINE
5
217
100
AcDbEntity
8
0
100
AcDbLine
10
17.499999739229679
20
-77.500000633299351
30
0
11
17.499999739229679
21
-85
31
0
0
LINE
5
218
100
AcDbEntity
8
0
100
AcDbLine
10
7.4999993667006493
20
-84.999999366700649
30
0
11
17.49999962747097
21
-84.999999366700649
31
0
0
LINE
5
219
100
AcDbEntity
8
0
100
AcDbLine
10
32.499999850988388
20
6.3329935073852539e-07
30
0
11
32.499999850988388
21
7.5
31
0
0
LINE
5
220
100
AcDbEntity
8
0
100
AcDbLine
10
17.499999739229679
20
-85
30
0
11
0
21
-85
31
0
0
LINE
5
221
100
AcDbEntity
8
0
100
AcDbLine
10
17.499999515712261
20
-42.5
30
0
11
32.499999739229679
21
-42.5
31
0
0
LINE
5
222
100
AcDbEntity
8
0
100
AcDbLine
10
32.500000260770321
20
7.4999993667006493
30
0
11
32.500000260770321
21
0
31
0
0
LINE
5
223
100
AcDbEntity
8
0
100
AcDbLine
10
7.4999993667006493
20
17.499999515712261
30
0
11
0
21
17.499999515712261
31
0
0
LINE
5
224
100
AcDbEntity
8
0
100
AcDbLine
10
17.49999962747097
20
7.5
30
0
11
17.49999962747097
21
6.3329935073852539e-07
31
0
0
LINE
5
225
100
AcDbEntity
8
0
100
AcDbLine
10
17.499999739229679
20
7.4999993667006493
30
0
11
17.499999739229679
21
0
31
0
0
LINE
5
226
100
AcDbEntity
8
0
100
AcDbLine
10
17.499999739229679
20
0
30
0
11
0
21
0
31
0
0
LINE
5
227
100
AcDbEntity
8
0
100
AcDbLine
10
0
20
-42.499999366700649
30
0
11
0
21
-52.499999515712261
31
0
0
LINE
5
228
100
AcDbEntity
8
0
100
AcDbLine
10
7.4999993667006493
20
-9.9999995157122612
30
0
11
-6.3329935073852539e-07
21
-9.9999995157122612
31
0
0
LINE
5
229
100
AcDbEntity
8
0
100
AcDbLine
10
25
20
7.4999993667006493
30
0
11
32.500000260770321
21
7.4999993667006493
31
0
0
LINE
5
230
100
AcDbEntity
8
0
100
AcDbLine
10
32.499999850988388
20
7.5
30
0
11
25
21
7.5
31
0
0
LINE
5
231
100
AcDbEntity
8
0
100
AcDbLine
10
0
20
0
30
0
11
0
21
17.499999515712261
31
0
0
LINE
5
232
100
AcDbEntity
8
0
100
AcDbLine
10
1.6763806343078613e-07
20
-42.499999366700649
30
0
11
0
21
-52.499999515712261
31
0
0
LINE
5
233
100
AcDbEntity
8
0
100
AcDbLine
10
0
20
0
30
0
11
0
21
17.499999515712261
31
0
0
LINE
5
234
100
AcDbEntity
8
0
100
AcDbLine
10
0
20
-42.499999366700649
30
0
11
0
21
-52.499999515712261
31
0
0
LINE
5
235
100
AcDbEntity
8
0
100
AcDbLine
10
7.4999993667006493
20
17.499999515712261
30
0
11
7.4999993667006493
21
25
31
0
0
LINE
5
236
100
AcDbEntity
8
0
100
AcDbLine
10
-6.3329935073852539e-07
20
-9.9999995157122612
30
0
11
0
21
0
31
0
0
CIRCLE
5
237
100
AcDbEntity
8
0
100
AcDbCircle
10
14.999999478459358
20
25
30
0
40
0.99999964237213135
210
0
220
0
230
1
0
LINE
5
238
100
AcDbEntity
8
0
100
AcDbLine
10
7.4999993667006493
20
6.3329935073852539e-07
30
0
11
17.49999962747097
21
6.3329935073852539e-07
31
0
0
LINE
5
239
100
AcDbEntity
8
0
100
AcDbLine
10
17.499999515712261
20
-42.5
30
0
11
32.499999739229679
21
-42.5
31
0
0
LINE
5
240
100
AcDbEntity
8
0
100
AcDbLine
10
17.499999515712261
20
-35.000000167638063
30
0
11
7.4999993667006493
21
-35.000000167638063
31
0
0
LINE
5
241
100
AcDbEntity
8
0
100
AcDbLine
10
7.4999993667006493
20
-25.000000484287739
30
0
11
0
21
-25.000000484287739
31
0
0
LINE
5
242
100
AcDbEntity
8
0
100
AcDbLine
10
7.4999993667006493
20
-52.499999515712261
30
0
11
0
21
-52.499999515712261
31
0
0
LINE
5
243
100
AcDbEntity
8
0
100
AcDbLine
10
7.4999993667006493
20
-35.000000167638063
30
0
11
-3.166496753692627e-07
21
-35.000000167638063
31
0
0
LINE
5
244
100
AcDbEntity
8
0
100
AcDbLine
10
0
20
-42.499999366700649
30
0
11
0
21
-35
31
0
0
LINE
5
245
100
AcDbEntity
8
0
100
AcDbLine
10
32.499999739229679
20
-42.5
30
0
11
32.499999739229679
21
-35.000000167638063
31
0
0
LINE
5
246
100
AcDbEntity
8
0
100
AcDbLine
10
7.4999993667006493
20
-52.499999515712261
30
0
11
7.4999993667006493
21
-60
31
0
0
LINE
5
247
100
AcDbEntity
8
0
100
AcDbLine
10
17.499999515712261
20
-42.5
30
0
11
17.499999515712261
21
-35.000000167638063
31
0
0
LINE
5
248
100
AcDbEntity
8
0
100
AcDbLine
10
25
20
-77.5
30
0
11
17.49999962747097
21
-77.5
31
0
0
LINE
5
249
100
AcDbEntity
8
0
100
AcDbLine
10
32.499999739229679
20
-42.5
30
0
11
32.499999739229679
21
-35.000000167638063
31
0
0
LINE
5
250
100
AcDbEntity
8
0
100
AcDbLine
10
7.4999993667006493
20
-67.500000484287739
30
0
11
7.4999993667006493
21
-60
31
0
0
LINE
5
251
100
AcDbEntity
8
0
100
AcDbLine
10
25
20
-77.500000633299351
30
0
11
17.499999739229679
21
-77.500000633299351
31
0
0
LINE
5
252
100
AcDbEntity
8
0
100
AcDbLine
10
32.500000260770321
20
-42.499999366700649
30
0
11
32.500000260770321
21
-35
31
0
0
LINE
5
253
100
AcDbEntity
8
0
100
AcDbLine
10
17.499999515712261
20
-35.000000167638063
30
0
11
7.4999993667006493
21
-35.000000167638063
31
0
0
LINE
5
254
100
AcDbEntity
8
0
100
AcDbLine
10
0
20
-67.500000484287739
30
0
11
1.6763806343078613e-07
21
-77.500000167638063
31
0
0
LINE
5
255
100
AcDbEntity
8
0
100
AcDbLine
10
25
20
-77.500000633299351
30
0
11
32.500000260770321
21
-77.500000633299351
31
0
0
CIRCLE
5
256
100
AcDbEntity
8
0
100
AcDbCircle
10
14.999999478459358
20
-60
30
0
40
0.99999964237213135
210
0
220
0
230
1
0
LINE
5
257
100
AcDbEntity
8
0
100
AcDbLine
10
0
20
-42.499999366700649
30
0
11
0.00018347255754669334
21
-42.499999366700649
31
0
0
LINE
5
258
100
AcDbEntity
8
0
100
AcDbLine
10
17.499999739229679
20
-35
30
0
11
0
21
-35
31
0
0
LINE
5
259
100
AcDbEntity
8
0
100
AcDbLine
10
7.4999993667006493
20
-67.500000484287739
30
0
11
0
21
-67.500000484287739
31
0
0
LINE
5
260
100
AcDbEntity
8
0
100
AcDbLine
10
17.499999739229679
20
-42.499999366700649
30
0
11
17.499999739229679
21
-35
31
0
0
LINE
5
261
100
AcDbEntity
8
0
100
AcDbLine
10
32.499999850988388
20
-77.5
30
0
11
25
21
-77.5
31
0
0
CIRCLE
5
262
100
AcDbEntity
8
0
100
AcDbCircle
10
57.499999478459358
20
25
30
0
40
0.99999964237213135
210
0
220
0
230
1
0
CIRCLE
5
263
100
AcDbEntity
8
0
100
AcDbCircle
10
35.000000521540642
20
67.5
30
0
40
2.4999999999999987
210
0
220
0
230
1
0
CIRCLE
5
264
100
AcDbEntity
8
0
100
AcDbCircle
10
77.500000521540642
20
25
30
0
40
2.5000000000000027
210
0
220
0
230
1
0
CIRCLE
5
265
100
AcDbEntity
8
0
100
AcDbCircle
10
35.000000521540642
20
25
30
0
40
2.5
210
0
220
0
230
1
0
CIRCLE
5
266
100
AcDbEntity
8
0
100
AcDbCircle
10
-7.4999994784593582
20
25
30
0
40
2.5
210
0
220
0
230
1
0
CIRCLE
5
267
100
AcDbEntity
8
0
100
AcDbCircle
10
35.000000521540642
20
-17.5
30
0
40
2.5
210
0
220
0
230
1
0
CIRCLE
5
268
100
AcDbEntity
8
0
100
AcDbCircle
10
35.000000521540642
20
-60
30
0
40
2.5000000000000004
210
0
220
0
230
1
0
ENDSEC
0
SECTION
2
OBJECTS
0
DICTIONARY
5
C
100
AcDbDictionary
3
ACAD_GROUP
350
D
3
ACAD_MLINESTYLE
350
17
0
DICTIONARY
5
D
100
AcDbDictionary
0
DICTIONARY
5
1A
330
C
100
AcDbDictionary
0
DICTIONARY
5
17
100
AcDbDictionary
0
ENDSEC
0
EOF
